<svg width="166" height="100" viewBox="0 0 166 100" fill="none" xmlns="http://www.w3.org/2000/svg">
<g id="Group 75">
<rect id="Rectangle 566" width="100" height="100" fill="white"/>
<g id="&#208;&#161;&#208;&#187;&#208;&#190;&#208;&#185;_x0020_1">
<g id="_1310048819856">
<g id="Group 63">
<g id="Vector">
<mask id="path-2-inside-1_992_2755" fill="white">
<path d="M122.578 54.1849V43.0295H118V41.5469H129V43.0295H124.422V54.1849H122.578Z"/>
</mask>
<path d="M122.578 54.1849V43.0295H118V41.5469H129V43.0295H124.422V54.1849H122.578Z" fill="#E3E3E3" stroke="#E3E3E3" stroke-width="0.002" mask="url(#path-2-inside-1_992_2755)"/>
</g>
<g id="1">
<mask id="path-3-inside-2_992_2755" fill="white">
<path d="M130 54.1849V41.5469H134.583C135.618 41.5469 136.407 41.6057 136.952 41.7263C137.714 41.894 138.365 42.197 138.903 42.6324C139.606 43.1972 140.13 43.915 140.477 44.7917C140.827 45.6683 141 46.6715 141 47.7982C141 48.7572 140.882 49.6074 140.647 50.3487C140.412 51.0901 140.108 51.7049 139.74 52.1903C139.368 52.6757 138.965 53.0581 138.526 53.3347C138.089 53.6142 137.559 53.826 136.94 53.9701C136.318 54.1143 135.605 54.1849 134.8 54.1849H130V54.1849ZM131.765 52.7022H134.602C135.478 52.7022 136.166 52.6257 136.664 52.4698C137.163 52.3139 137.559 52.0962 137.857 51.8137C138.272 51.4166 138.597 50.8812 138.829 50.2105C139.061 49.5397 139.179 48.7278 139.179 47.7717C139.179 46.4479 138.95 45.4301 138.495 44.7181C138.039 44.0062 137.485 43.5296 136.832 43.2884C136.361 43.1148 135.602 43.0295 134.555 43.0295H131.765V52.7022V52.7022Z"/>
</mask>
<path d="M130 54.1849V41.5469H134.583C135.618 41.5469 136.407 41.6057 136.952 41.7263C137.714 41.894 138.365 42.197 138.903 42.6324C139.606 43.1972 140.13 43.915 140.477 44.7917C140.827 45.6683 141 46.6715 141 47.7982C141 48.7572 140.882 49.6074 140.647 50.3487C140.412 51.0901 140.108 51.7049 139.74 52.1903C139.368 52.6757 138.965 53.0581 138.526 53.3347C138.089 53.6142 137.559 53.826 136.94 53.9701C136.318 54.1143 135.605 54.1849 134.8 54.1849H130V54.1849ZM131.765 52.7022H134.602C135.478 52.7022 136.166 52.6257 136.664 52.4698C137.163 52.3139 137.559 52.0962 137.857 51.8137C138.272 51.4166 138.597 50.8812 138.829 50.2105C139.061 49.5397 139.179 48.7278 139.179 47.7717C139.179 46.4479 138.95 45.4301 138.495 44.7181C138.039 44.0062 137.485 43.5296 136.832 43.2884C136.361 43.1148 135.602 43.0295 134.555 43.0295H131.765V52.7022V52.7022Z" fill="#E3E3E3" stroke="#E3E3E3" stroke-width="0.002" mask="url(#path-3-inside-2_992_2755)"/>
</g>
<g id="2">
<mask id="path-4-inside-3_992_2755" fill="white">
<path d="M156 54.1849V41.5469H160.167C161.107 41.5469 161.825 41.6057 162.32 41.7263C163.013 41.894 163.604 42.197 164.094 42.6324C164.733 43.1972 165.209 43.915 165.524 44.7917C165.842 45.6683 166 46.6715 166 47.7982C166 48.7572 165.893 49.6074 165.679 50.3487C165.465 51.0901 165.189 51.7049 164.854 52.1903C164.516 52.6757 164.15 53.0581 163.751 53.3347C163.354 53.6142 162.872 53.826 162.309 53.9701C161.743 54.1143 161.096 54.1849 160.364 54.1849H156V54.1849ZM157.605 52.7022H160.184C160.98 52.7022 161.605 52.6257 162.059 52.4698C162.512 52.3139 162.872 52.0962 163.142 51.8137C163.52 51.4166 163.815 50.8812 164.026 50.2105C164.238 49.5397 164.345 48.7278 164.345 47.7717C164.345 46.4479 164.136 45.4301 163.722 44.7181C163.309 44.0062 162.805 43.5296 162.211 43.2884C161.783 43.1148 161.093 43.0295 160.141 43.0295H157.605V52.7022V52.7022Z"/>
</mask>
<path d="M156 54.1849V41.5469H160.167C161.107 41.5469 161.825 41.6057 162.32 41.7263C163.013 41.894 163.604 42.197 164.094 42.6324C164.733 43.1972 165.209 43.915 165.524 44.7917C165.842 45.6683 166 46.6715 166 47.7982C166 48.7572 165.893 49.6074 165.679 50.3487C165.465 51.0901 165.189 51.7049 164.854 52.1903C164.516 52.6757 164.15 53.0581 163.751 53.3347C163.354 53.6142 162.872 53.826 162.309 53.9701C161.743 54.1143 161.096 54.1849 160.364 54.1849H156V54.1849ZM157.605 52.7022H160.184C160.98 52.7022 161.605 52.6257 162.059 52.4698C162.512 52.3139 162.872 52.0962 163.142 51.8137C163.52 51.4166 163.815 50.8812 164.026 50.2105C164.238 49.5397 164.345 48.7278 164.345 47.7717C164.345 46.4479 164.136 45.4301 163.722 44.7181C163.309 44.0062 162.805 43.5296 162.211 43.2884C161.783 43.1148 161.093 43.0295 160.141 43.0295H157.605V52.7022V52.7022Z" fill="#E3E3E3" stroke="#E3E3E3" stroke-width="0.002" mask="url(#path-4-inside-3_992_2755)"/>
</g>
<path id="3" d="M143 41.5469H144.533V51.5549L151.327 41.5469H153V54.1849H151.467V44.2033L144.69 54.1849H143V41.5469Z" fill="#E3E3E3"/>
<path id="Vector_2" d="M145 58.0732H149.139V58.7482H145.846V60.524H147.368C147.93 60.524 148.377 60.5722 148.709 60.67C149.041 60.7664 149.307 60.9485 149.507 61.2177C149.707 61.4855 149.807 61.7976 149.807 62.1538C149.807 62.4444 149.736 62.7163 149.592 62.968C149.448 63.2212 149.234 63.4274 148.949 63.5868C148.666 63.7461 148.181 63.8265 147.497 63.8265H145V58.0732V58.0732ZM145.846 63.1756H147.532C147.988 63.1756 148.329 63.0926 148.558 62.9252C148.785 62.7578 148.899 62.5073 148.899 62.1739C148.899 61.9355 148.834 61.7373 148.703 61.5779C148.572 61.4186 148.391 61.3128 148.16 61.2606C147.927 61.2083 147.531 61.1829 146.972 61.1829H145.846V63.1756V63.1756ZM150.825 58.0732H154.946V58.7482H151.67V63.8265H150.825V58.0732ZM157.247 63.8265V58.7482H155.146V58.0732H160.193V58.7482H158.093V63.8265H157.247V63.8265ZM160.419 58.0732H161.267L163.355 61.6101L165.169 58.0732H166L163.613 62.5489C163.315 63.1087 163.07 63.4756 162.879 63.6484C162.687 63.8211 162.414 63.9068 162.058 63.9068C161.842 63.9068 161.576 63.8613 161.26 63.7702V63.1194C161.485 63.2372 161.724 63.2961 161.977 63.2961C162.181 63.2961 162.358 63.2359 162.508 63.1167C162.656 62.9975 162.821 62.7256 163 62.3011L160.419 58.0732Z" fill="#E3E3E3"/>
<path id="Vector_3" d="M118 56.1289H166" stroke="#E3E3E3" stroke-width="0.7" stroke-miterlimit="22.9256"/>
</g>
<g id="Group 68">
<path id="Vector_4" d="M13 33.2045C13 30.8067 13 28.4089 13 25.9941C15.97 26.6233 18.9437 27.2523 21.9244 27.883C24.9053 28.5136 27.8897 29.1461 30.8848 29.7798C33.8801 30.4135 36.8859 31.0508 39.8956 31.6878C42.9159 32.3271 45.9508 32.969 49 33.6134C49 36.0613 49 38.4961 49 40.9224C46.6456 40.4191 44.3056 39.9143 41.9764 39.4157C39.6508 38.9179 37.3288 38.4203 35.0104 37.9242C35.0104 40.8981 35.0104 43.885 35.0104 46.8589C35.0104 49.8329 35.0122 52.8111 35.014 55.7859C35.0158 58.7641 35.0176 61.7424 35.0176 64.7163C35.0176 67.6903 35.0176 70.6643 35.0176 73.6296C32.2708 73.0096 29.524 72.3898 26.788 71.772C26.788 68.8192 26.788 65.8483 26.788 62.8826C26.788 59.9169 26.7898 56.9469 26.7916 53.9819C26.7934 51.0119 26.7916 48.0419 26.7916 45.0719C26.7916 42.1019 26.7988 39.1283 26.7988 36.1626C24.4912 35.6684 22.1835 35.1753 19.8796 34.682C17.5899 34.1917 15.286 33.6944 13 33.2045V33.2045Z" fill="#252427"/>
<path id="Vector_5" d="M35.3592 21.098C37.2079 21.4605 39.0653 21.8239 40.9269 22.1883C39.4346 22.4804 37.939 22.7702 36.4511 23.0606C34.9642 23.3508 33.4783 23.6417 31.9933 23.9307C30.5053 24.2202 29.02 24.5093 27.5405 24.7981C26.0619 25.0868 24.5799 25.3761 23.1033 25.6647C26.6148 25.7837 30.1378 25.9025 33.676 26.0228C37.2212 26.1434 40.7951 26.2653 44.3738 26.3869C47.9616 26.5088 51.5676 26.6304 55.1848 26.753C58.818 26.8761 62.4693 27.0006 66.1388 27.1229C68.2498 27.5366 70.3695 27.9514 72.4977 28.3676C70.552 28.7423 68.6146 29.1166 66.6793 29.489C64.7458 29.861 62.8117 30.2337 60.8881 30.6045C58.9599 30.9763 57.0306 31.3464 55.108 31.7161C53.1869 32.0855 51.2696 32.4566 49.3497 32.8254C47.4406 32.4394 45.54 32.0544 43.6478 31.6715C45.1535 31.3818 46.6584 31.0894 48.1686 30.7981C49.6798 30.5066 51.1922 30.2154 52.7054 29.9234C54.2175 29.6317 55.7263 29.3389 57.2427 29.0465C58.7603 28.7539 60.2812 28.4606 61.8032 28.1669C58.1575 28.0414 54.5256 27.915 50.9137 27.79C47.3133 27.6654 43.7286 27.541 40.1617 27.4178C36.6039 27.2949 33.0509 27.1718 29.5198 27.0496C26.0042 26.928 22.4978 26.8066 19.0068 26.6845C17.001 26.2782 14.9994 25.8732 13.0105 25.4701C14.8586 25.1089 16.7083 24.7448 18.564 24.3818C20.4212 24.0185 22.2826 23.6552 24.147 23.2911C26.0093 22.9275 27.8728 22.5622 29.7403 22.1966C31.6094 21.8307 33.4867 21.465 35.3592 21.098V21.098Z" fill="#252427"/>
<g id="Group">
<path id="Vector_6" d="M66.4687 73.9616C63.7161 74.5557 60.9704 75.1474 58.2251 75.7405C55.4833 76.3328 52.738 76.9257 50 77.5173C50 70.2656 50 63.0009 50 55.7405C50 48.4801 50 41.2066 50 33.9376C52.7491 33.3501 55.4983 32.7639 58.2436 32.1779C60.9854 31.5927 63.7269 31.0071 66.4687 30.422C69.4841 29.7786 72.2217 29.7148 74.6864 30.2049C77.1501 30.6948 79.3463 31.75 81.265 33.3778C83.1758 34.9989 84.6077 37.0115 85.5644 39.413C86.5206 41.8131 87 44.607 87 47.7903C87 50.991 86.5166 54.0027 85.5644 56.8088C84.6112 59.618 83.1768 62.2421 81.2724 64.6707C79.3511 67.121 77.1653 69.1197 74.6975 70.6662C72.2295 72.2127 69.4844 73.3107 66.4687 73.9616V73.9616ZM75.3302 60.7337C77.5902 57.6069 78.699 53.8832 78.6972 49.5719C78.6954 45.2649 77.5857 42.0118 75.3265 39.8599C73.0494 37.691 70.091 37.006 66.4687 37.7802C63.6826 38.3757 60.8965 38.9673 58.1104 39.5634C58.1104 44.3771 58.1086 49.1908 58.1067 54.0001C58.1049 58.8095 58.0993 63.6188 58.0993 68.4282C60.8891 67.8271 63.679 67.2263 66.4687 66.6252C70.0911 65.8445 73.0504 63.8881 75.3302 60.7337Z" fill="#252427"/>
<path id="1_2" d="M66.4687 73.9616C63.7161 74.5557 60.9704 75.1474 58.2251 75.7405C55.4833 76.3328 52.738 76.9257 50 77.5173C50 70.2656 50 63.0009 50 55.7405C50 48.4801 50 41.2066 50 33.9376C52.7491 33.3501 55.4983 32.7639 58.2436 32.1779C60.9854 31.5927 63.7269 31.0071 66.4687 30.422C69.4841 29.7786 72.2217 29.7148 74.6864 30.2049C77.1501 30.6948 79.3463 31.75 81.265 33.3778C83.1758 34.9989 84.6077 37.0115 85.5644 39.413C86.5206 41.8131 87 44.607 87 47.7903C87 50.991 86.5166 54.0027 85.5644 56.8088C84.6112 59.618 83.1768 62.2421 81.2724 64.6707C79.3511 67.121 77.1653 69.1197 74.6975 70.6662C72.2295 72.2127 69.4844 73.3107 66.4687 73.9616V73.9616ZM75.3302 60.7337C77.5902 57.6069 78.699 53.8832 78.6972 49.5719C78.6954 45.2649 77.5857 42.0118 75.3265 39.8599C73.0494 37.691 70.091 37.006 66.4687 37.7802C63.6826 38.3757 60.8965 38.9673 58.1104 39.5634C58.1104 44.3771 58.1086 49.1908 58.1067 54.0001C58.1049 58.8095 58.0993 63.6188 58.0993 68.4282C60.8891 67.8271 63.679 67.2263 66.4687 66.6252C70.0911 65.8445 73.0504 63.8881 75.3302 60.7337Z" stroke="#252427" stroke-width="0.8" stroke-miterlimit="22.9256"/>
<path id="Vector_7" d="M57.6016 67.0927L65.3582 65.543C68.6489 64.8856 71.5395 63.2573 73.6938 60.4412C75.8388 57.6372 76.896 54.2484 76.8942 50.2863C76.8925 46.3362 75.8375 43.3356 73.6903 41.3323C71.5379 39.324 68.7527 38.6666 65.3616 39.3335L57.6085 40.8581" stroke="#252427" stroke-width="0.6" stroke-miterlimit="22.9256"/>
<path id="Vector_8" d="M57.6016 65.6492L64.8012 64.4223C67.8556 63.9018 70.5387 62.6126 72.5383 60.383C74.5293 58.1631 75.5105 55.4801 75.5089 52.3433C75.5073 49.2159 74.5281 46.8403 72.5351 45.2542C70.5372 43.6642 67.952 43.1438 64.8044 43.6717L57.608 44.8788" stroke="#252427" stroke-width="0.6" stroke-miterlimit="22.9256"/>
<path id="Vector_9" d="M57.6016 63.9629L64.0948 63.0085C66.8495 62.6036 69.2693 61.6008 71.0728 59.8664C72.8684 58.1395 73.7534 56.0524 73.752 53.6123C73.7505 51.1796 72.8673 49.3316 71.0699 48.0978C69.268 46.8609 66.9365 46.4561 64.0977 46.8668L57.6074 47.8058" stroke="#252427" stroke-width="0.6" stroke-miterlimit="22.9256"/>
<path id="Vector_10" d="M57.6016 62.4405L63.3341 61.7433C65.7661 61.4475 67.9024 60.7149 69.4946 59.4478C71.0799 58.1863 71.8612 56.6616 71.8599 54.8789C71.8586 53.1017 71.0789 51.7517 69.492 50.8503C67.9013 49.9467 65.8429 49.651 63.3367 49.951L57.6067 50.637" stroke="#252427" stroke-width="0.6" stroke-miterlimit="22.9256"/>
<path id="Vector_11" d="M57.6016 60.7591L61.9831 60.3326C63.8419 60.1516 65.4748 59.7035 66.6917 58.9284C67.9033 58.1567 68.5005 57.224 68.4995 56.1335C68.4986 55.0463 67.9026 54.2205 66.6897 53.6691C65.4739 53.1164 63.9006 52.9355 61.985 53.119L57.6055 53.5386" stroke="#252427" stroke-width="0.6" stroke-miterlimit="22.9256"/>
<path id="Vector_12" d="M57.6016 59.6093L59.7923 59.4151C60.7217 59.3328 61.5382 59.1287 62.1466 58.7759C62.7524 58.4245 63.051 57.9999 63.0505 57.5035C63.0501 57.0085 62.7521 56.6326 62.1456 56.3816C61.5377 56.1299 60.7511 56.0476 59.7933 56.1311L57.6035 56.3222" stroke="#252427" stroke-width="0.6" stroke-miterlimit="22.9256"/>
<path id="Vector_13" d="M57.6328 58.6368L58.7282 58.5602C59.1929 58.5277 59.6011 58.4471 59.9053 58.3078C60.2083 58.169 60.3576 58.0014 60.3573 57.8053C60.3571 57.6099 60.2081 57.4614 59.9049 57.3623C59.6009 57.263 59.2076 57.2304 58.7287 57.2634L57.6338 57.3389" stroke="#252427" stroke-width="0.6" stroke-miterlimit="22.9256"/>
<path id="Vector_14" fill-rule="evenodd" clip-rule="evenodd" d="M63.7976 49.9103L64.8708 49.8747L72.8586 40.6504L71.4113 44.5102L65.5414 49.8524L65.9119 49.8701L59.0473 56.1981L58.6914 56.2291L63.7976 49.9103Z" fill="#252427" stroke="#252427" stroke-width="0.2" stroke-miterlimit="22.9256"/>
<path id="Vector_15" fill-rule="evenodd" clip-rule="evenodd" d="M79.1626 51.0156V53.6165L75.4457 53.7474L75.3823 54.2754L68.4262 55.488L68.2656 55.0495L71.8317 53.7294L71.8645 54.1795L79.1626 51.0156Z" fill="#252427" stroke="#252427" stroke-width="0.2" stroke-miterlimit="22.9256"/>
<path id="Vector_16" fill-rule="evenodd" clip-rule="evenodd" d="M67.2519 66.7747L65.7546 67.2698L61.7014 61.9486L61.3071 61.9966L58.0508 58.1356V57.9414L64.8052 64.4246L64.3557 64.5012L67.2519 66.7747Z" fill="#252427" stroke="#252427" stroke-width="0.2" stroke-miterlimit="22.9256"/>
<path id="Vector_17" fill-rule="evenodd" clip-rule="evenodd" d="M62.2872 44.0989L62.4948 44.0641L63.6931 37.7067L66.0878 37.2305L63.3032 43.9285L63.1714 43.9506L61.6283 47.2301L61.3828 47.2656L62.2872 44.0989Z" fill="#252427" stroke="#252427" stroke-width="0.2" stroke-miterlimit="22.9256"/>
<path id="Vector_18" fill-rule="evenodd" clip-rule="evenodd" d="M70.3802 58.6397L70.0555 58.9716L75.8534 60.7595L75.4072 61.9064L70.8542 60.081L71.1255 59.8263L65.2266 57.7432L70.3802 58.6397Z" fill="#252427" stroke="#252427" stroke-width="0.2" stroke-miterlimit="22.9256"/>
</g>
</g>
</g>
</g>
</g>
</svg>
