<svg width="166" height="100" viewBox="0 0 166 100" fill="none" xmlns="http://www.w3.org/2000/svg">
<rect width="100" height="100" fill="white"/>
<path d="M122.579 54.1844V43.0295H122.578V43.029H118.001V41.5474H129V43.029H124.422V43.0295H124.421V54.1844H122.579Z" fill="#E3E3E3" stroke="#E3E3E3" stroke-width="0.001"/>
<path d="M130.001 54.1844V41.5474H134.583C135.618 41.5474 136.407 41.6062 136.952 41.7268C137.714 41.8945 138.364 42.1974 138.903 42.6328C139.606 43.1976 140.129 43.9153 140.476 44.7919C140.826 45.6684 141 46.6715 141 47.7982C141 48.7572 140.882 49.6073 140.646 50.3486C140.411 51.0899 140.108 51.7047 139.739 52.19C139.368 52.6754 138.965 53.0578 138.525 53.3342C138.089 53.6137 137.559 53.8255 136.94 53.9696C136.317 54.1138 135.605 54.1844 134.8 54.1844H130.001ZM131.765 52.7027H134.602C135.478 52.7027 136.166 52.6262 136.665 52.4703C137.163 52.3143 137.56 52.0966 137.857 51.8141C138.272 51.4169 138.597 50.8814 138.83 50.2106C139.062 49.5398 139.18 48.7278 139.18 47.7717C139.18 46.4479 138.95 45.4299 138.495 44.7179C138.04 44.0059 137.485 43.5292 136.832 43.2879C136.361 43.1143 135.602 43.029 134.555 43.029H131.765V43.0295H131.765V52.7022H131.765V52.7027Z" fill="#E3E3E3" stroke="#E3E3E3" stroke-width="0.001"/>
<path d="M156.001 54.1844V41.5474H160.167C161.107 41.5474 161.825 41.6062 162.32 41.7268C163.013 41.8945 163.604 42.1974 164.094 42.6328C164.733 43.1975 165.208 43.9153 165.524 44.7919C165.842 45.6684 166 46.6715 166 47.7982C166 48.7572 165.893 49.6073 165.679 50.3486C165.465 51.0899 165.189 51.7047 164.854 52.19C164.516 52.6754 164.15 53.0578 163.75 53.3342C163.353 53.6137 162.872 53.8255 162.309 53.9696C161.743 54.1138 161.096 54.1844 160.364 54.1844H156.001ZM157.605 52.7027H160.184C160.98 52.7027 161.605 52.6262 162.059 52.4703C162.512 52.3143 162.872 52.0966 163.143 51.8141C163.52 51.4169 163.816 50.8814 164.027 50.2106C164.238 49.5398 164.345 48.7278 164.345 47.7717C164.345 46.4479 164.137 45.4299 163.723 44.7179C163.309 44.0059 162.805 43.5292 162.211 43.2879C161.783 43.1143 161.093 43.029 160.141 43.029H157.605V43.0295H157.604V52.7022H157.605V52.7027Z" fill="#E3E3E3" stroke="#E3E3E3" stroke-width="0.001"/>
<path d="M143 41.5469H144.533V51.5549L151.327 41.5469H153V54.1849H151.467V44.2033L144.69 54.1849H143V41.5469Z" fill="#E3E3E3"/>
<path d="M143 41.5469H144.533V51.5549L151.327 41.5469H153V54.1849H151.467V44.2033L144.69 54.1849H143V41.5469Z" stroke="#E3E3E3"/>
<path d="M145 58.0732H149.139V58.7482H145.846V60.524H147.368C147.93 60.524 148.377 60.5722 148.709 60.67C149.041 60.7664 149.307 60.9485 149.507 61.2177C149.707 61.4855 149.807 61.7976 149.807 62.1538C149.807 62.4444 149.736 62.7163 149.592 62.968C149.448 63.2212 149.234 63.4274 148.949 63.5868C148.666 63.7461 148.181 63.8265 147.497 63.8265H145V58.0732ZM145.846 63.1756H147.532C147.988 63.1756 148.329 63.0926 148.558 62.9252C148.785 62.7578 148.899 62.5073 148.899 62.1739C148.899 61.9355 148.834 61.7373 148.703 61.5779C148.572 61.4186 148.391 61.3128 148.16 61.2606C147.927 61.2083 147.531 61.1829 146.972 61.1829H145.846V63.1756ZM150.825 58.0732H154.946V58.7482H151.67V63.8265H150.825V58.0732ZM157.247 63.8265V58.7482H155.146V58.0732H160.193V58.7482H158.093V63.8265H157.247ZM160.419 58.0732H161.267L163.355 61.6101L165.169 58.0732H166L163.613 62.5489C163.315 63.1087 163.07 63.4756 162.879 63.6484C162.687 63.8211 162.414 63.9068 162.058 63.9068C161.842 63.9068 161.576 63.8613 161.26 63.7702V63.1194C161.485 63.2372 161.724 63.2961 161.977 63.2961C162.181 63.2961 162.358 63.2359 162.508 63.1167C162.656 62.9975 162.821 62.7256 163 62.3011L160.419 58.0732Z" fill="#E3E3E3"/>
<path d="M145 58.0732H149.139V58.7482H145.846V60.524H147.368C147.93 60.524 148.377 60.5722 148.709 60.67C149.041 60.7664 149.307 60.9485 149.507 61.2177C149.707 61.4855 149.807 61.7976 149.807 62.1538C149.807 62.4444 149.736 62.7163 149.592 62.968C149.448 63.2212 149.234 63.4274 148.949 63.5868C148.666 63.7461 148.181 63.8265 147.497 63.8265H145V58.0732ZM145.846 63.1756H147.532C147.988 63.1756 148.329 63.0926 148.558 62.9252C148.785 62.7578 148.899 62.5073 148.899 62.1739C148.899 61.9355 148.834 61.7373 148.703 61.5779C148.572 61.4186 148.391 61.3128 148.16 61.2606C147.927 61.2083 147.531 61.1829 146.972 61.1829H145.846V63.1756ZM150.825 58.0732H154.946V58.7482H151.67V63.8265H150.825V58.0732ZM157.247 63.8265V58.7482H155.146V58.0732H160.193V58.7482H158.093V63.8265H157.247ZM160.419 58.0732H161.267L163.355 61.6101L165.169 58.0732H166L163.613 62.5489C163.315 63.1087 163.07 63.4756 162.879 63.6484C162.687 63.8211 162.414 63.9068 162.058 63.9068C161.842 63.9068 161.576 63.8613 161.26 63.7702V63.1194C161.485 63.2372 161.724 63.2961 161.977 63.2961C162.181 63.2961 162.358 63.2359 162.508 63.1167C162.656 62.9975 162.821 62.7256 163 62.3011L160.419 58.0732Z" stroke="#E3E3E3"/>
<path d="M118 56.1294H166" stroke="#E3E3E3" stroke-width="0.7" stroke-miterlimit="22.9256"/>
<path d="M13 33.204C13 30.8062 13 28.4085 13 25.9937C15.97 26.6228 18.9437 27.2518 21.9244 27.8825C24.9053 28.5131 27.8897 29.1456 30.8848 29.7793C33.8801 30.4131 36.8859 31.0503 39.8956 31.6873C42.9159 32.3266 45.9508 32.9685 49 33.6129C49 36.0608 49 38.4957 49 40.9219C46.6456 40.4186 44.3056 39.9139 41.9764 39.4153C39.6508 38.9174 37.3288 38.4198 35.0104 37.9237C35.0104 40.8976 35.0104 43.8845 35.0104 46.8584C35.0104 49.8324 35.0122 52.8106 35.014 55.7854C35.0158 58.7636 35.0176 61.7419 35.0176 64.7158C35.0176 67.6898 35.0176 70.6638 35.0176 73.6291C32.2708 73.0091 29.524 72.3893 26.788 71.7716C26.788 68.8187 26.788 65.8479 26.788 62.8821C26.788 59.9164 26.7898 56.9464 26.7916 53.9814C26.7934 51.0115 26.7916 48.0414 26.7916 45.0714C26.7916 42.1014 26.7988 39.1278 26.7988 36.1621C24.4912 35.6679 22.1835 35.1748 19.8796 34.6815C17.5899 34.1912 15.286 33.694 13 33.204V33.204Z" fill="#252427"/>
<path d="M35.3592 21.098C37.2079 21.4605 39.0653 21.8239 40.9269 22.1883C39.4346 22.4804 37.939 22.7702 36.4511 23.0606C34.9642 23.3508 33.4783 23.6417 31.9933 23.9307C30.5053 24.2202 29.02 24.5093 27.5405 24.7981C26.0619 25.0868 24.5799 25.3761 23.1033 25.6647C26.6148 25.7837 30.1378 25.9025 33.676 26.0228C37.2212 26.1434 40.7951 26.2653 44.3738 26.3869C47.9616 26.5088 51.5676 26.6304 55.1848 26.753C58.818 26.8761 62.4693 27.0006 66.1388 27.1229C68.2498 27.5366 70.3695 27.9514 72.4977 28.3676C70.552 28.7423 68.6146 29.1166 66.6793 29.489C64.7458 29.861 62.8117 30.2337 60.8881 30.6045C58.9599 30.9763 57.0306 31.3464 55.108 31.7161C53.1869 32.0855 51.2696 32.4566 49.3497 32.8254C47.4406 32.4394 45.54 32.0544 43.6478 31.6715C45.1535 31.3818 46.6584 31.0894 48.1686 30.7981C49.6798 30.5066 51.1922 30.2154 52.7054 29.9234C54.2175 29.6317 55.7263 29.3389 57.2427 29.0465C58.7603 28.7539 60.2812 28.4606 61.8032 28.1669C58.1575 28.0414 54.5256 27.915 50.9137 27.79C47.3133 27.6654 43.7286 27.541 40.1617 27.4178C36.6039 27.2949 33.0509 27.1718 29.5198 27.0496C26.0042 26.928 22.4978 26.8066 19.0068 26.6845C17.001 26.2782 14.9994 25.8732 13.0105 25.4701C14.8586 25.1089 16.7083 24.7448 18.564 24.3818C20.4212 24.0185 22.2826 23.6552 24.147 23.2911C26.0093 22.9275 27.8728 22.5622 29.7403 22.1966C31.6094 21.8307 33.4867 21.465 35.3592 21.098V21.098Z" fill="#252427"/>
<path d="M66.4687 73.962C63.7161 74.5562 60.9704 75.1479 58.2251 75.741C55.4833 76.3333 52.738 76.9262 50 77.5178C50 70.2661 50 63.0014 50 55.741C50 48.4806 50 41.2071 50 33.938C52.7491 33.3506 55.4983 32.7644 58.2436 32.1784C60.9854 31.5932 63.7269 31.0076 66.4687 30.4225C69.4841 29.779 72.2217 29.7153 74.6864 30.2054C77.1501 30.6953 79.3463 31.7505 81.265 33.3783C83.1758 34.9994 84.6077 37.012 85.5644 39.4135C86.5206 41.8136 87 44.6075 87 47.7908C87 50.9915 86.5166 54.0032 85.5644 56.8093C84.6112 59.6185 83.1768 62.2426 81.2724 64.6712C79.3511 67.1215 77.1653 69.1202 74.6975 70.6666C72.2295 72.2132 69.4844 73.3112 66.4687 73.962V73.962ZM75.3302 60.7342C77.5902 57.6074 78.699 53.8837 78.6972 49.5724C78.6954 45.2654 77.5857 42.0123 75.3265 39.8604C73.0494 37.6915 70.091 37.0065 66.4687 37.7807C63.6826 38.3762 60.8965 38.9677 58.1104 39.5638C58.1104 44.3776 58.1086 49.1913 58.1067 54.0006C58.1049 58.8099 58.0993 63.6193 58.0993 68.4286C60.8891 67.8276 63.679 67.2268 66.4687 66.6256C70.0911 65.845 73.0504 63.8886 75.3302 60.7342Z" fill="#252427"/>
<path d="M66.4687 73.962C63.7161 74.5562 60.9704 75.1479 58.2251 75.741C55.4833 76.3333 52.738 76.9262 50 77.5178C50 70.2661 50 63.0014 50 55.741C50 48.4806 50 41.2071 50 33.938C52.7491 33.3506 55.4983 32.7644 58.2436 32.1784C60.9854 31.5932 63.7269 31.0076 66.4687 30.4225C69.4841 29.779 72.2217 29.7153 74.6864 30.2054C77.1501 30.6953 79.3463 31.7505 81.265 33.3783C83.1758 34.9994 84.6077 37.012 85.5644 39.4135C86.5206 41.8136 87 44.6075 87 47.7908C87 50.9915 86.5166 54.0032 85.5644 56.8093C84.6112 59.6185 83.1768 62.2426 81.2724 64.6712C79.3511 67.1215 77.1653 69.1202 74.6975 70.6666C72.2295 72.2132 69.4844 73.3112 66.4687 73.962V73.962ZM75.3302 60.7342C77.5902 57.6074 78.699 53.8837 78.6972 49.5724C78.6954 45.2654 77.5857 42.0123 75.3265 39.8604C73.0494 37.6915 70.091 37.0065 66.4687 37.7807C63.6826 38.3762 60.8965 38.9677 58.1104 39.5638C58.1104 44.3776 58.1086 49.1913 58.1067 54.0006C58.1049 58.8099 58.0993 63.6193 58.0993 68.4286C60.8891 67.8276 63.679 67.2268 66.4687 66.6256C70.0911 65.845 73.0504 63.8886 75.3302 60.7342Z" stroke="#252427" stroke-width="0.8" stroke-miterlimit="22.9256"/>
<path d="M57.6016 67.0937L65.3582 65.544C68.6489 64.8866 71.5395 63.2583 73.6938 60.4421C75.8388 57.6382 76.896 54.2494 76.8942 50.2873C76.8925 46.3372 75.8375 43.3366 73.6903 41.3333C71.5379 39.325 68.7527 38.6676 65.3616 39.3344L57.6085 40.8591" stroke="#252427" stroke-width="0.6" stroke-miterlimit="22.9256"/>
<path d="M57.6016 65.6501L64.8012 64.4233C67.8556 63.9027 70.5387 62.6136 72.5383 60.384C74.5293 58.164 75.5105 55.4811 75.5089 52.3443C75.5073 49.2169 74.5281 46.8413 72.5351 45.2552C70.5372 43.6652 67.952 43.1447 64.8044 43.6727L57.608 44.8798" stroke="#252427" stroke-width="0.6" stroke-miterlimit="22.9256"/>
<path d="M57.6016 63.9639L64.0948 63.0095C66.8495 62.6046 69.2693 61.6018 71.0728 59.8674C72.8684 58.1405 73.7534 56.0534 73.752 53.6133C73.7505 51.1805 72.8673 49.3326 71.0699 48.0987C69.268 46.8619 66.9365 46.457 64.0977 46.8677L57.6074 47.8067" stroke="#252427" stroke-width="0.6" stroke-miterlimit="22.9256"/>
<path d="M57.6016 62.4405L63.3341 61.7433C65.7661 61.4475 67.9024 60.7149 69.4946 59.4478C71.0799 58.1863 71.8612 56.6616 71.8599 54.8789C71.8586 53.1017 71.0789 51.7517 69.492 50.8503C67.9013 49.9467 65.8429 49.651 63.3367 49.951L57.6067 50.637" stroke="#252427" stroke-width="0.6" stroke-miterlimit="22.9256"/>
<path d="M57.6016 60.7591L61.9831 60.3326C63.8419 60.1516 65.4748 59.7035 66.6917 58.9284C67.9033 58.1567 68.5005 57.224 68.4995 56.1335C68.4986 55.0463 67.9026 54.2205 66.6897 53.6691C65.4739 53.1164 63.9006 52.9355 61.985 53.119L57.6055 53.5386" stroke="#252427" stroke-width="0.6" stroke-miterlimit="22.9256"/>
<path d="M57.6016 59.6098L59.7923 59.4156C60.7217 59.3332 61.5382 59.1292 62.1466 58.7764C62.7524 58.425 63.051 58.0004 63.0505 57.504C63.0501 57.009 62.7521 56.6331 62.1456 56.3821C61.5377 56.1304 60.7511 56.048 59.7933 56.1316L57.6035 56.3226" stroke="#252427" stroke-width="0.6" stroke-miterlimit="22.9256"/>
<path d="M57.6328 58.6373L58.7282 58.5607C59.1929 58.5281 59.6011 58.4476 59.9053 58.3082C60.2083 58.1695 60.3576 58.0018 60.3573 57.8058C60.3571 57.6104 60.2081 57.4619 59.9049 57.3628C59.6009 57.2634 59.2076 57.2309 58.7287 57.2639L57.6338 57.3393" stroke="#252427" stroke-width="0.6" stroke-miterlimit="22.9256"/>
<path fill-rule="evenodd" clip-rule="evenodd" d="M63.7976 49.9113L64.8708 49.8757L72.8586 40.6514L71.4113 44.5111L65.5414 49.8534L65.9119 49.8711L59.0473 56.199L58.6914 56.2301L63.7976 49.9113Z" fill="#252427" stroke="#252427" stroke-width="0.2" stroke-miterlimit="22.9256"/>
<path fill-rule="evenodd" clip-rule="evenodd" d="M79.1626 51.0156V53.6165L75.4457 53.7474L75.3823 54.2754L68.4262 55.488L68.2656 55.0495L71.8317 53.7294L71.8645 54.1795L79.1626 51.0156Z" fill="#252427" stroke="#252427" stroke-width="0.2" stroke-miterlimit="22.9256"/>
<path fill-rule="evenodd" clip-rule="evenodd" d="M67.2519 66.7752L65.7546 67.2703L61.7014 61.9491L61.3071 61.9971L58.0508 58.1361V57.9419L64.8052 64.4251L64.3557 64.5017L67.2519 66.7752Z" fill="#252427" stroke="#252427" stroke-width="0.2" stroke-miterlimit="22.9256"/>
<path fill-rule="evenodd" clip-rule="evenodd" d="M62.2872 44.0999L62.4948 44.0651L63.6931 37.7076L66.0878 37.2314L63.3032 43.9295L63.1714 43.9516L61.6283 47.2311L61.3828 47.2666L62.2872 44.0999Z" fill="#252427" stroke="#252427" stroke-width="0.2" stroke-miterlimit="22.9256"/>
<path fill-rule="evenodd" clip-rule="evenodd" d="M70.3802 58.6402L70.0555 58.9721L75.8534 60.76L75.4072 61.9069L70.8542 60.0815L71.1255 59.8267L65.2266 57.7437L70.3802 58.6402Z" fill="#252427" stroke="#252427" stroke-width="0.2" stroke-miterlimit="22.9256"/>
</svg>
