<svg width="607" height="554" viewBox="0 0 607 554" fill="none" xmlns="http://www.w3.org/2000/svg">
<path d="M607 260.499C568.37 253.851 550.476 245.449 520.595 240.101C490.719 234.751 472.021 233.131 454.101 232.89C436.182 232.647 419.038 233.78 400.909 235.457C382.78 237.137 363.665 239.361 345.714 241.045C327.764 242.73 310.976 243.874 309.893 249.465C308.809 255.056 323.432 265.096 339.786 271.927C356.14 278.758 374.226 282.383 391.91 290.194C409.595 298.007 426.875 310.01 448.172 320.788C469.469 331.568 494.788 341.125 514.78 347.891C534.773 354.658 549.443 358.637 568.224 368.277C587.008 377.918 583.624 374.346 607.5 388" stroke="#165A52" stroke-width="1.2" stroke-miterlimit="22.9256"/>
<path d="M607 210C582.962 206.238 536.404 199.867 503.724 196.273C471.045 192.679 431.844 188.411 394.033 186.667C356.222 184.921 319.803 185.7 292.416 188.665C265.027 191.631 246.669 196.788 232.382 203.213C218.095 209.639 207.877 217.336 207.437 231.821C206.995 246.306 216.33 267.579 228.682 283.299C241.036 299.02 256.408 309.19 279.386 320.713C302.366 332.24 332.954 345.119 359.83 354.993C386.706 364.869 409.867 371.74 431.264 376.486C452.663 381.233 472.298 383.856 490.64 388.121C508.982 392.388 526.033 398.296 548.038 408.668C570.042 419.042 578.82 424.12 607.5 439.5" stroke="#165A52" stroke-width="1.2" stroke-miterlimit="22.9256"/>
<path d="M607.5 171C575.684 163.006 547 157.46 499.733 150.425C452.464 143.39 400.645 138.501 364.962 135.422C329.278 132.344 309.73 131.071 286.834 131.879C263.938 132.685 237.696 135.569 216.148 139.347C194.602 143.124 177.754 147.794 164.661 155.862C151.566 163.927 142.225 175.388 138.977 189.695C135.728 204.002 138.569 221.153 146.622 239.998C154.674 258.842 167.939 279.378 185.883 298.059C203.825 316.741 226.447 333.569 247.468 346.462C268.49 359.354 287.909 368.314 310.44 377.165C332.971 386.018 358.614 394.765 381.682 401.025C404.75 407.286 425.243 411.062 442.105 414.899C458.968 418.736 472.201 422.635 488.154 428.515C504.105 434.396 522.778 442.263 546.698 453.819C570.617 465.377 584.22 472.173 607 483.499" stroke="#165A52" stroke-width="1.2" stroke-miterlimit="22.9256"/>
<path d="M606.5 135C542.999 121.5 486 103.5 447.5 99.5004C324 77.4998 331 76.4999 236.5 80.9999C166.5 88.9999 115.5 88 87.9998 141.5C68 212.5 101.39 238.5 126 283C170.5 346.5 263.486 398.819 289.5 403.5C376.5 424.5 366 422.5 417.5 433C472 448 465 444.542 504 463.5C540 481 574.5 498 606.5 516" stroke="#165A52" stroke-width="1.2" stroke-miterlimit="22.9256"/>
<path d="M605.5 99.4994C560.5 91 498.5 78.3928 452 69.5C405.5 60.6072 311.999 29.5 255 29.5C9.00025 29.5001 12.741 111 12.741 141C12.741 159 18.939 184.5 27.5 204C93 373 240.991 437.906 264 444.5C287.008 451.097 309.496 446.672 325.5 449.5C350 451.28 386 457.5 405.5 463.5C428 466.5 467.666 483.5 493 493C513 500.5 575.5 534 608 553" stroke="#165A52" stroke-miterlimit="22.9256"/>
</svg>
