<svg width="1090" height="1163" viewBox="0 0 1090 1163" fill="none" xmlns="http://www.w3.org/2000/svg">
<mask id="mask0_957_2144" style="mask-type:alpha" maskUnits="userSpaceOnUse" x="50" y="-124" width="1519" height="1212">
<path d="M1478.3 638.33C1449.77 627.854 1421.25 617.377 1378.89 605.701C1336.54 594.022 1280.37 581.142 1234.18 572.594C1187.99 564.046 1151.79 559.827 1113.16 553.177C1074.53 546.529 1033.47 537.45 1003.59 532.101C973.718 526.751 955.02 525.131 937.1 524.89C919.18 524.648 902.036 525.78 883.908 527.458C865.779 529.138 846.664 531.361 828.713 533.046C810.763 534.73 793.975 535.874 792.892 541.465C791.808 547.056 806.431 557.097 822.785 563.927C839.139 570.758 857.225 574.384 874.909 582.195C892.593 590.008 909.873 602.01 931.17 612.788C952.468 623.568 977.787 633.126 997.778 639.892C1017.77 646.659 1032.44 650.637 1051.22 660.277C1070.01 669.918 1092.9 685.222 1116.78 698.876C1140.65 712.533 1165.5 724.54 1183.69 734.669C1201.87 744.801 1213.39 753.055 1231.65 763.028C1249.91 773.002 1274.91 784.698 1296.35 796.679C1317.79 808.663 1335.66 820.933 1348.68 829.121C1361.69 837.309 1369.85 841.416 1378.01 845.524" stroke="black" stroke-width="1.2" stroke-miterlimit="22.9256"/>
<path d="M1487.89 616.525C1477.06 611.996 1466.23 607.468 1449.98 601.537C1433.73 595.604 1412.05 588.269 1383.75 579.171C1355.45 570.072 1320.53 559.21 1288.81 550.462C1257.1 541.716 1228.6 535.085 1203.91 528.946C1179.22 522.806 1158.35 517.16 1136.95 512.036C1115.56 506.912 1093.64 502.31 1069.6 498.548C1045.56 494.787 1019.4 491.867 986.722 488.273C954.044 484.679 914.843 480.411 877.031 478.667C839.221 476.921 802.802 477.7 775.415 480.665C748.026 483.631 729.668 488.788 715.381 495.213C701.094 501.639 690.876 509.336 690.436 523.821C689.994 538.306 699.328 559.579 711.681 575.299C724.035 591.02 739.407 601.19 762.385 612.713C785.365 624.24 815.953 637.119 842.828 646.993C869.705 656.869 892.865 663.74 914.263 668.486C935.662 673.233 955.296 675.856 973.639 680.121C991.98 684.388 1009.03 690.296 1031.04 700.668C1053.04 711.042 1080 725.881 1108.68 741.261C1137.36 756.64 1167.76 772.56 1193.25 785.787C1218.74 799.016 1239.31 809.548 1259.2 820.197C1279.09 830.846 1298.29 841.61 1312.81 849.499C1327.32 857.387 1337.15 862.396 1344.67 866.165C1352.2 869.936 1357.42 872.464 1362.64 874.992" stroke="black" stroke-width="1.2" stroke-miterlimit="22.9256"/>
<path d="M1499.56 590.368C1481.14 582.778 1462.72 575.188 1429.35 562.748C1395.97 550.308 1347.65 533.021 1312.37 521.67C1277.09 510.318 1254.85 504.907 1234.66 500.323C1214.47 495.737 1196.32 491.983 1176.79 486.706C1157.26 481.427 1136.35 474.626 1104.53 466.636C1072.71 458.643 1030 449.461 982.731 442.426C935.463 435.39 883.644 430.502 847.961 427.423C812.276 424.345 792.728 423.071 769.833 423.879C746.937 424.685 720.695 427.57 699.146 431.347C677.6 435.124 660.753 439.795 647.66 447.862C634.564 455.927 625.223 467.388 621.975 481.696C618.726 496.003 621.567 513.154 629.62 531.999C637.672 550.842 650.937 571.378 668.881 590.059C686.823 608.742 709.446 625.57 730.467 638.463C751.489 651.355 770.908 660.315 793.438 669.165C815.97 678.018 841.613 686.765 864.681 693.025C887.748 699.287 908.242 703.062 925.104 706.9C941.967 710.736 955.2 714.635 971.152 720.515C987.104 726.397 1005.78 734.263 1029.7 745.82C1053.62 757.378 1082.78 772.626 1105.56 783.952C1128.34 795.279 1144.74 802.681 1160.83 809.951C1176.93 817.22 1192.73 824.356 1207.42 831.745C1222.11 839.134 1235.69 846.776 1255.29 856.29C1274.89 865.802 1300.51 877.183 1317.34 884.49C1334.16 891.796 1342.19 895.025 1350.22 898.256" stroke="black" stroke-width="1.2" stroke-miterlimit="22.9256"/>
<path d="M1512.97 560.65C1472.17 543.429 1431.38 526.21 1399.56 514.805C1367.75 503.399 1344.92 497.811 1320.85 491.331C1296.78 484.853 1271.47 477.484 1247.15 470.516C1222.83 463.549 1199.51 456.981 1173.66 449.559C1147.82 442.14 1119.46 433.864 1089.83 426.527C1060.21 419.189 1029.32 412.789 1002.47 407.225C975.627 401.662 952.83 396.933 931.353 392.781C909.879 388.627 889.726 385.048 861.141 381.219C832.555 377.39 795.535 373.314 762.343 372.848C729.15 372.383 699.784 375.531 676.51 379.194C653.236 382.858 636.053 387.041 620.343 393.052C604.632 399.06 590.395 406.897 580.524 418.526C570.651 430.155 565.144 445.573 565.352 464.413C565.561 483.253 571.482 505.514 582.317 528.683C593.148 551.853 608.89 575.933 626.009 596.34C643.13 616.747 661.628 633.482 683.415 648.449C705.199 663.414 730.271 676.611 760.497 688.27C790.723 699.93 826.103 710.052 854.738 716.65C883.372 723.251 905.261 726.329 928.675 733.493C952.088 740.66 977.024 751.912 1002.88 764.319C1028.75 776.726 1055.53 790.287 1074.87 800.479C1094.2 810.673 1106.09 817.497 1130.81 829.287C1155.53 841.08 1193.08 857.836 1221.93 870.852C1250.78 883.869 1270.92 893.148 1286.8 900.359C1302.68 907.573 1314.3 912.724 1321.97 916.141C1329.65 919.561 1333.37 921.251 1337.1 922.94" stroke="black" stroke-width="1.2" stroke-miterlimit="22.9256"/>
<path d="M1530.8 521.198C1518.88 515.686 1506.95 510.176 1490.63 503.407C1474.32 496.64 1453.6 488.617 1420.6 478.154C1387.6 467.691 1342.31 454.787 1301.48 443.595C1260.66 432.401 1224.31 422.915 1184.15 413.388C1144 403.861 1100.06 394.291 1062.46 386.031C1024.86 377.772 993.607 370.823 960.12 363.806C926.632 356.789 890.909 349.703 857.029 343.262C823.151 336.82 791.116 331.02 762.356 327.17C733.596 323.318 708.114 321.412 682.615 321.944C657.113 322.474 631.599 325.441 606.84 330.918C582.081 336.395 558.077 344.383 541.918 352.132C525.757 359.88 517.438 367.386 510.803 376.976C504.166 386.567 499.212 398.241 496.979 412.267C494.745 426.293 495.23 442.673 498.599 458.85C501.967 475.026 508.22 490.998 518.044 509.051C527.866 527.104 541.261 547.238 556.17 567.209C571.078 587.178 587.505 606.986 605.378 626.224C623.247 645.464 642.562 664.132 660.827 679.599C679.091 695.07 696.307 707.34 709.734 716.495C723.161 725.648 732.802 731.688 744.862 735.15C756.923 738.616 771.403 739.505 786.62 740.54C801.836 741.575 817.792 742.756 833.592 744.805C849.394 746.857 865.044 749.776 883.167 754.073C901.29 758.373 921.885 764.051 946.258 773.234C970.631 782.417 998.779 795.107 1021.46 806.291C1044.14 817.477 1061.36 827.156 1079.98 837.45C1098.6 847.744 1118.63 858.655 1140.66 868.962C1162.69 879.27 1186.72 888.977 1210.86 899.013C1235 909.05 1259.25 919.418 1278.2 927.268C1297.16 935.119 1310.83 940.452 1324.51 945.786" stroke="black" stroke-miterlimit="22.9256"/>
<path d="M1544.08 491.699C1537.6 488.95 1531.12 486.203 1516.48 479.268C1501.84 472.332 1479.05 461.211 1459.44 451.853C1439.83 442.497 1423.4 434.903 1404.44 429.178C1385.49 423.453 1364.02 419.594 1343.65 415.486C1323.29 411.377 1304.03 407.016 1285.22 401.913C1266.42 396.81 1248.07 390.963 1229.55 386.75C1211.03 382.534 1192.35 379.949 1172.12 377.038C1151.89 374.125 1130.12 370.882 1101.56 365.148C1073 359.413 1037.67 351.184 1001.39 342.299C965.112 333.413 927.899 323.869 891.818 316.246C855.737 308.622 820.79 302.919 790.184 297.153C759.575 291.385 733.311 285.554 702.311 280.597C671.311 275.64 635.577 271.552 606.085 270.609C576.592 269.663 553.341 271.863 535.219 275.338C517.093 278.813 504.097 283.567 493.333 288.436C482.57 293.305 474.04 298.289 467.922 303.58C461.805 308.87 458.094 314.47 451.101 322.024C444.106 329.577 433.829 339.086 427.327 348.862C420.826 358.639 418.101 368.679 418.317 384.224C418.53 399.772 421.682 420.823 430.829 443.306C439.975 465.789 455.116 489.706 472.795 515.427C490.473 541.145 510.688 568.666 531.107 593.367C551.524 618.067 572.146 639.949 588.775 655.31C605.4 670.669 618.035 679.509 631.316 689.745C644.596 699.98 658.522 711.611 674.266 722.277C690.008 732.942 707.57 742.641 723.058 749.95C738.545 757.261 751.96 762.18 768.775 765.465C785.59 768.749 805.805 770.399 823.58 772.401C841.357 774.403 856.695 776.759 872.252 780.555C887.809 784.35 903.587 789.583 923.246 797.037C942.905 804.491 966.447 814.163 989.854 824.807C1013.26 835.453 1036.54 847.072 1055.31 856.664C1074.09 866.257 1088.38 873.823 1106.79 882.874C1125.21 891.927 1147.75 902.463 1171.03 912.582C1194.31 922.702 1218.34 932.405 1238.01 940.335C1257.69 948.266 1273.02 954.425 1284.53 959.144C1296.05 963.866 1303.74 967.15 1311.45 970.434" stroke="black" stroke-width="1.2" stroke-miterlimit="22.9256"/>
<path d="M1558.46 459.359C1548.94 454.301 1539.41 449.242 1527.28 442.458C1515.16 435.673 1500.44 427.16 1483.55 417.951C1466.65 408.74 1447.58 398.833 1430.34 391.999C1413.1 385.167 1397.69 381.41 1377.69 378.03C1357.7 374.65 1333.12 371.645 1301.13 366.147C1269.14 360.647 1229.75 352.653 1197.23 346.601C1164.7 340.548 1139.04 336.435 1110.82 331.881C1082.59 327.326 1051.8 322.33 1018.29 315.026C984.784 307.721 948.558 298.109 910.466 288.731C872.374 279.353 832.413 270.21 797.2 262.434C761.985 254.659 731.52 248.249 696.645 241.73C661.766 235.21 622.483 228.581 587.756 223.443C553.027 218.303 522.856 214.654 500.091 213.406C477.326 212.158 461.967 213.307 444.187 216.746C426.406 220.184 406.202 225.911 392.128 233.44C378.054 240.967 370.109 250.297 362.616 257.955C355.122 265.613 348.083 271.6 342.889 279.514C337.698 287.426 334.352 297.267 331.493 308.692C328.633 320.118 326.261 333.131 327.307 348.528C328.354 363.926 332.82 381.71 340.289 397.749C347.758 413.79 358.23 428.083 370.191 443.75C382.151 459.415 395.602 476.45 408.492 493.53C421.381 510.609 433.709 527.734 445.706 542.77C457.704 557.804 469.372 570.748 482.064 584.725C494.755 598.701 508.473 613.708 522.095 629.284C535.715 644.858 549.238 661.004 562.717 672.992C576.194 684.981 589.627 692.815 601.161 700.124C612.693 707.432 622.325 714.215 628.858 721.101C635.387 727.987 638.814 734.977 656.218 745.543C673.619 756.108 704.996 770.25 725.071 778.642C745.146 787.033 753.919 789.673 764.767 791.37C775.614 793.067 788.536 793.824 801.322 795.41C814.11 797 826.761 799.418 841.183 802.258C855.606 805.099 871.801 808.356 891.377 814.174C910.951 819.993 933.907 828.367 957.684 838.379C981.461 848.392 1006.06 860.041 1027.27 870.443C1048.47 880.846 1066.29 890.005 1084.15 898.709C1102.01 907.416 1119.9 915.67 1139.39 924.17C1158.87 932.67 1179.94 941.417 1201.97 950.405C1224 959.396 1246.99 968.631 1263.42 975.596C1279.86 982.559 1289.75 987.251 1299.63 991.944" stroke="black" stroke-width="1.2" stroke-miterlimit="22.9256"/>
<path d="M1568.3 436.655C1559.1 432.037 1549.9 427.415 1539.84 420.345C1529.78 413.276 1518.87 403.755 1503.18 393.816C1487.48 383.877 1467.01 373.522 1448.11 365.472C1429.21 357.423 1411.88 351.677 1394.1 347.607C1376.32 343.537 1358.09 341.139 1331.97 337.773C1305.86 334.406 1271.86 330.069 1234.42 324.132C1196.98 318.197 1156.1 310.661 1122.99 304.849C1089.89 299.041 1064.58 294.954 1031.93 288.315C999.29 281.678 959.319 272.488 918.918 263.223C878.516 253.957 837.678 244.617 797.504 235.053C757.329 225.489 717.816 215.703 676.51 206.264C635.206 196.822 592.106 187.726 554.266 181.59C516.426 175.452 483.843 172.273 450.496 170.484C417.147 168.693 383.035 168.291 355.347 172.409C327.662 176.526 306.402 185.161 290.697 191.421C274.993 197.677 264.845 201.556 257.104 205.474C249.363 209.391 244.027 213.348 237.693 215.852C231.357 218.356 224.02 219.405 219.301 222.833C214.582 226.26 212.482 232.062 213.96 243.992C215.437 255.923 220.491 273.981 226.866 293.948C233.24 313.914 240.929 335.789 256.614 361.362C272.297 386.936 295.975 416.205 318.959 444.317C341.941 472.427 364.228 499.38 382.273 519.911C400.316 540.444 414.117 554.554 428.147 568.557C442.178 582.563 456.439 596.465 471.227 612.053C486.013 627.641 501.33 644.919 514.835 657.79C528.337 670.66 540.032 679.125 550.654 687.576C561.276 696.025 570.828 704.459 579.108 715.33C587.386 726.2 594.394 739.503 604.157 749.542C613.916 759.579 626.434 766.349 643.674 774.307C660.91 782.266 682.869 791.414 700.985 797.7C719.099 803.989 733.368 807.414 748.203 809.968C763.037 812.523 778.437 814.207 793.02 816.132C807.602 818.058 821.369 820.225 841.008 825.086C860.651 829.947 886.167 837.506 911.965 846.975C937.765 856.444 963.847 867.825 988.342 879.148C1012.84 890.473 1035.74 901.737 1059.79 913.422C1083.84 925.109 1109.03 937.215 1133.75 948.826C1158.46 960.437 1182.7 971.551 1203.59 980.498C1224.47 989.445 1242.02 996.225 1255.32 1001.79C1268.62 1007.36 1277.69 1011.7 1286.76 1016.05" stroke="black" stroke-width="1.2" stroke-miterlimit="22.9256"/>
<path d="M1311 293.953C1315.99 298.172 1320.98 302.391 1323.31 306.126C1325.63 309.862 1325.3 313.114 1314.9 313.86C1304.5 314.605 1284.03 312.847 1265.75 310.181C1247.48 307.516 1231.41 303.947 1208.96 299.529C1186.52 295.111 1157.72 289.845 1129.21 284.792C1100.71 279.738 1072.51 274.897 1035.68 268.467C998.853 262.036 953.395 254.017 911.791 245.131C870.184 236.246 832.43 226.493 791.412 215.829C750.394 205.163 706.11 193.591 672.556 184.871C639.001 176.149 616.175 170.285 580.466 163.219C544.759 156.152 496.171 147.883 452.553 141.295C408.935 134.708 370.284 129.802 341.03 127.149C311.775 124.496 291.91 124.096 277.102 124.267C262.294 124.438 252.542 125.179 242.787 125.92" stroke="black" stroke-width="1.2" stroke-miterlimit="22.9256"/>
<path d="M1219.53 253.554C1222.98 257.638 1226.44 261.723 1228.48 265.594C1230.53 269.464 1231.17 273.117 1225.31 274.012C1219.46 274.905 1207.11 273.038 1186.93 269.267C1166.75 265.496 1138.75 259.818 1102.59 253.041C1066.43 246.264 1022.13 238.384 982.476 230.429C942.821 222.47 907.814 214.438 869.083 206.248C830.353 198.061 787.901 189.715 741.897 178.796C695.892 167.879 646.338 154.384 611.501 143.93C576.665 133.475 556.551 126.061 528.378 119.981C500.205 113.899 463.974 109.155 433.437 104.98C402.899 100.803 378.057 97.1967 356.17 93.8329C334.28 90.47 315.353 87.3481 301.122 83.5742C286.891 79.8003 277.361 75.3726 267.829 70.9443" stroke="black" stroke-width="1.2" stroke-miterlimit="22.9256"/>
<path d="M1148.29 221.999C1151.26 224.913 1154.23 227.825 1155.16 230.377C1156.08 232.928 1154.96 235.12 1148.5 235.481C1142.04 235.839 1130.24 234.372 1106.32 230.838C1082.41 227.303 1046.38 221.702 1005.32 213.228C964.252 204.755 918.146 193.407 875.434 183.656C832.722 173.904 793.404 165.745 757.749 156.745C722.093 147.744 690.099 137.903 659.457 129.013C628.814 120.125 599.522 112.187 572.25 104.943C544.976 97.6982 519.724 91.1435 496.5 85.4895C473.277 79.8341 452.083 75.0789 430.605 70.6414C409.129 66.2045 387.37 62.0854 370.312 59.1409C353.253 56.1958 340.899 54.4273 329.067 51.0673C317.236 47.7038 305.93 42.7515 298.736 39.3718C291.541 35.9901 288.459 34.1831 285.374 32.3764" stroke="black" stroke-width="1.2" stroke-miterlimit="22.9256"/>
<path d="M1077.76 190.514C1079.9 194.309 1082.04 198.104 1082.3 200.929C1082.56 203.754 1080.94 205.612 1070.86 204.377C1060.77 203.139 1042.22 198.811 1019.78 194.271C997.35 189.731 971.033 184.978 946.122 179.474C921.209 173.968 897.7 167.71 874.714 161.589C851.729 155.465 829.264 149.481 798.35 141.966C767.435 134.45 728.069 125.404 696.57 116.849C665.07 108.292 641.434 100.226 614.715 92.7378C587.996 85.2483 558.193 78.3371 529.756 71.1301C501.318 63.919 474.246 56.4127 451.118 49.6434C427.991 42.8711 408.81 36.837 391.378 32.7118C373.948 28.5858 358.27 26.3721 344.568 22.8353C330.866 19.2971 319.142 14.4364 311.703 11.1717C304.266 7.90625 301.115 6.23593 297.962 4.56437" stroke="black" stroke-width="1.2" stroke-miterlimit="22.9256"/>
<path d="M978.087 145.798C979.323 147.711 980.56 149.624 979.353 151.789C978.148 153.954 974.5 156.371 955.817 153.655C937.136 150.935 903.418 143.08 860.943 132.917C818.465 122.75 767.227 110.275 721.155 97.9771C675.085 85.6776 634.18 73.5585 598.089 62.4462C561.998 51.334 530.719 41.2281 506.163 34.0983C481.608 26.965 463.775 22.8042 443.679 17.5124C423.581 12.2201 401.221 5.79313 385.489 0.939199C369.754 -3.91598 360.645 -7.20088 351.25 -11.0526C341.855 -14.9049 332.172 -19.3246 325.772 -22.4068C319.37 -25.491 316.252 -27.2351 313.132 -28.9819" stroke="black" stroke-width="1.2" stroke-miterlimit="22.9256"/>
<path d="M819.206 73.7945C820.273 76.5845 821.338 79.376 819.247 81.1428C817.156 82.9081 811.91 83.653 787.852 77.9119C763.795 72.1687 720.929 59.9443 675.193 46.714C629.456 33.483 580.85 19.2466 545.08 8.46568C509.309 -2.31527 486.375 -9.63873 464.052 -16.9207C441.73 -24.2036 420.022 -31.4438 399.896 -37.4519C379.772 -43.4608 361.23 -48.2377 349.613 -52.3509C337.997 -56.4642 333.306 -59.9117 328.613 -63.362" stroke="black" stroke-width="1.2" stroke-miterlimit="22.9256"/>
<path d="M621.895 -14.6376C626.069 -11.0679 630.241 -7.49882 625.219 -7.27937C620.197 -7.05846 605.979 -10.1914 588.611 -16.4508C571.246 -22.7126 550.733 -32.1032 531.747 -37.6844C512.761 -43.2642 495.306 -45.0364 474.155 -50.8268C453.004 -56.6172 428.16 -66.4297 408.125 -73.4135C388.089 -80.3993 372.863 -84.5588 363.045 -88.2839C353.227 -92.0089 348.816 -95.3017 344.407 -98.5938" stroke="black" stroke-width="1.2" stroke-miterlimit="22.9256"/>
<path d="M1290.3 1032.65C1278.63 1027.47 1266.96 1022.29 1250.56 1015.7C1234.15 1009.11 1213.01 1001.12 1191.48 992.51C1169.95 983.902 1148.04 974.683 1127.47 965.591C1106.9 956.501 1087.67 947.538 1071.66 938.932C1055.65 930.326 1042.87 922.077 1027.91 913.75C1012.94 905.426 995.795 897.025 974.699 887.984C953.606 878.945 928.565 869.266 907.865 861.665C887.166 854.066 870.81 848.541 849.554 844.174C828.299 839.805 802.145 836.591 778.348 832.612C754.552 828.634 733.114 823.892 712.918 818.069C692.722 812.249 673.77 805.347 658.838 797.328C643.908 789.308 633 780.173 622.325 771.867C611.65 763.561 601.208 756.089 591.809 749.37C582.409 742.652 574.049 736.688 567.146 729.765C560.243 722.842 554.798 714.958 546.332 705.444C537.868 695.929 526.384 684.786 514.699 673.308C503.013 661.831 491.126 650.023 476.159 634.823C461.192 619.624 443.146 601.036 424.763 582.776C406.376 564.518 387.654 546.59 370.029 528.822C352.403 511.053 335.877 493.448 315.383 471.759C294.889 450.068 270.429 424.294 250.772 403.033C231.112 381.772 216.257 365.027 204.058 350.944C191.858 336.861 182.316 325.442 176.234 317.188C170.15 308.931 167.524 303.837 164.898 298.743" stroke="black" stroke-width="1.2" stroke-miterlimit="22.9256"/>
<path d="M1281.41 1053.11C1276.62 1051.48 1271.84 1049.85 1259.46 1044.47C1247.08 1039.09 1227.1 1029.97 1205.78 1021.12C1184.47 1012.27 1161.82 1003.69 1140.47 995.291C1119.13 986.889 1099.08 978.655 1080.76 969.927C1062.45 961.2 1045.86 951.976 1028.48 942.146C1011.11 932.316 992.93 921.881 967.148 910.593C941.367 899.307 907.981 887.169 880.681 878.1C853.383 869.034 832.172 863.037 807.478 857.88C782.786 852.723 754.614 848.402 733.341 844.611C712.069 840.821 697.694 837.558 681.159 832.385C664.624 827.216 645.926 820.134 630.241 812.34C614.555 804.546 601.885 796.04 595.355 790.679C588.825 785.32 588.439 783.105 589.284 781.061C590.128 779.019 592.2 777.151 594.32 775.092C596.439 773.034 598.604 770.788 598.617 768.025C598.629 765.262 596.488 761.986 591.912 758.503C587.332 755.02 580.319 751.331 574.114 748.788C567.908 746.247 562.51 744.852 558.284 745.641C554.057 746.429 550.999 749.402 548.786 750.43C546.572 751.46 545.201 750.541 542.148 746.525C539.093 742.508 534.358 735.393 529.23 726.642C524.1 717.891 518.578 707.505 510.589 697.545C502.6 687.584 492.141 678.05 478.611 666.044C465.082 654.041 448.483 639.567 434.213 627.029C419.942 614.493 408.004 603.894 392.39 589.725C376.775 575.555 357.487 557.811 340.439 541.531C323.393 525.249 308.589 510.43 288.447 490.599C268.304 470.766 242.823 445.926 223.418 426.82C204.015 407.714 190.688 394.346 179.622 382.884C168.554 371.421 159.75 361.866 154.13 355.503C148.509 349.14 146.074 345.97 143.637 342.799" stroke="black" stroke-width="1.2" stroke-miterlimit="22.9256"/>
<path d="M1278.89 1068.94C1271.58 1065.99 1264.28 1063.05 1246.23 1055.23C1228.17 1047.42 1199.37 1034.74 1171.99 1022.95C1144.62 1011.16 1118.69 1000.27 1094 989.419C1069.31 978.571 1045.87 967.769 1025.87 957.926C1005.88 948.083 989.328 939.201 972.681 930.95C956.033 922.7 939.287 915.083 924.858 909.869C910.43 904.656 898.316 901.848 880.843 897.263C863.372 892.679 840.541 886.319 821.347 881.849C802.153 877.38 786.595 874.802 775.17 873.821C763.746 872.84 756.455 873.455 749.163 874.071" stroke="black" stroke-width="1.2" stroke-miterlimit="22.9256"/>
<path d="M1270.92 1086.82C1267.18 1085.5 1263.43 1084.18 1254.72 1080.43C1246 1076.68 1232.32 1070.5 1217.88 1064.45C1203.44 1058.4 1188.24 1052.47 1174.46 1047.44C1160.69 1042.42 1148.34 1038.31 1130.03 1030.64C1111.73 1022.98 1087.46 1011.76 1065.83 1001.76C1044.21 991.765 1025.23 982.989 1009.53 974.559C993.833 966.13 981.42 958.048 964.778 951.321C948.138 944.592 927.273 939.219 912.39 935.481C897.508 931.743 888.612 929.644 882.321 928.737C876.032 927.83 872.347 928.118 868.663 928.407" stroke="black" stroke-width="1.2" stroke-miterlimit="22.9256"/>
<path d="M512.844 761.199C511.782 756.91 510.721 752.622 506.1 743.659C501.476 734.697 493.294 721.061 484.987 708.332C476.68 695.605 468.253 683.782 456.176 670.834C444.096 657.888 428.371 643.817 412.08 630.17C395.788 616.522 378.931 603.295 363.384 591.373C347.836 579.453 333.597 568.835 320.698 557.352C307.797 545.87 296.236 533.521 284.799 522.229C273.36 510.937 262.042 500.702 250.24 490.117C238.438 479.534 226.151 468.603 213.094 457.4C200.037 446.197 186.208 434.722 174.912 424.723C163.615 414.725 154.847 406.204 147.665 399.537C140.478 392.87 134.875 388.057 131.36 385.093C127.846 382.131 126.42 381.017 124.994 379.905" stroke="black" stroke-width="1.2" stroke-miterlimit="22.9256"/>
<path d="M481.779 746.433C479.688 740.058 477.595 733.684 472.953 724.685C468.311 715.688 461.115 704.067 450.22 691.798C439.324 679.53 424.724 666.612 407.24 651.921C389.754 637.23 369.38 620.763 349.212 604.999C329.042 589.233 309.076 574.168 291.434 560.081C273.791 545.995 258.47 532.888 244.41 521.006C230.349 509.127 217.544 498.467 204.262 487.024C190.982 475.58 177.225 463.351 165.349 452.923C153.47 442.496 143.474 433.872 135.616 427.169C127.758 420.468 122.037 415.687 118.332 412.735C114.625 409.784 112.93 408.665 111.237 407.543" stroke="black" stroke-width="1.2" stroke-miterlimit="22.9256"/>
<path d="M427.278 720.674C426.608 716.535 425.938 712.396 422.971 706.89C420.004 701.387 414.742 694.52 402.68 682.842C390.617 671.163 371.756 654.674 349.452 636.338C327.149 618.003 301.402 597.819 279.203 580.389C257.001 562.96 238.349 548.287 220.027 534.052C201.703 519.816 183.711 506.016 168.846 493.968C153.982 481.923 142.246 471.628 132.236 463.361C122.226 455.093 113.945 448.851 108.223 444.919C102.501 440.986 99.3405 439.362 96.1775 437.736" stroke="black" stroke-width="1.2" stroke-miterlimit="22.9256"/>
<path d="M317.876 669.164C316.133 664.524 314.39 659.886 308.189 652.13C301.987 644.373 291.324 633.498 279.419 622.583C267.513 611.667 254.361 600.708 239.597 589.161C224.831 577.613 208.451 565.479 194.883 555.763C181.314 546.046 170.553 538.746 159.778 530.735C149 522.725 138.207 514 128.681 506.771C119.152 499.541 110.892 493.805 103.391 489.405C95.8871 485.005 89.1411 481.941 84.9757 479.733C80.811 477.526 79.2228 476.176 77.6387 474.824" stroke="black" stroke-width="1.2" stroke-miterlimit="22.9256"/>
<path d="M172.311 600.776C171.287 594.626 170.262 588.474 163.759 580.597C157.255 572.72 145.273 563.116 133.559 554.641C121.842 546.168 110.394 538.826 99.9211 532.078C89.448 525.332 79.948 519.181 73.714 515.094C67.4794 511.008 64.5108 508.985 61.5388 506.962" stroke="black" stroke-width="1.2" stroke-miterlimit="22.9256"/>
<path d="M68.411 551.968C66.9367 547.756 65.4638 543.542 63.0426 540.005C60.6193 536.47 57.2478 533.61 55.0264 531.828C52.805 530.05 51.7311 529.351 50.6565 528.652" stroke="black" stroke-width="1.2" stroke-miterlimit="22.9256"/>
</mask>
<g mask="url(#mask0_957_2144)">
<path d="M561.852 311.714C904.331 300.543 963.5 345.001 1090 383.001L1090 846.001L966.435 800.715L717.672 727.597L600.17 629.905C476.275 497.068 389.044 317.35 561.852 311.714Z" fill="#165A52"/>
</g>
</svg>
