<svg width="720" height="740" viewBox="0 0 720 740" fill="none" xmlns="http://www.w3.org/2000/svg">
<mask id="mask0_957_2360" style="mask-type:alpha" maskUnits="userSpaceOnUse" x="11" y="63" width="953" height="639">
<path d="M963.054 447.471C956.428 448.404 949.803 449.336 939.937 450.155C930.072 450.976 916.965 451.682 899.897 452.283C882.828 452.885 861.797 453.381 842.801 453.083C823.806 452.785 806.844 451.693 792.116 451.011C777.389 450.33 764.898 450.06 752.153 449.338C739.408 448.616 726.411 447.443 712.272 445.294C698.134 443.144 682.855 440.018 663.771 436.077C644.689 432.136 621.802 427.379 599.941 421.2C578.081 415.023 557.249 407.422 541.799 400.111C526.347 392.799 516.278 385.773 508.661 378.687C501.043 371.601 495.876 364.453 496.938 354.654C497.998 344.855 505.285 332.403 513.801 324.261C522.318 316.12 532.063 312.287 546.296 309.025C560.532 305.762 579.256 303.07 595.577 301.671C611.899 300.272 625.816 300.165 638.528 301.141C651.24 302.116 662.748 304.173 673.662 304.878C684.577 305.581 694.899 304.933 708.47 302.254C722.041 299.574 738.86 294.863 756.716 290.122C774.571 285.382 793.465 280.615 809.294 276.698C825.123 272.78 837.888 269.717 850.27 266.441C862.651 263.164 874.65 259.678 883.696 257.209C892.743 254.74 898.837 253.291 903.497 252.226C908.157 251.159 911.384 250.479 914.61 249.797" stroke="black" stroke-width="1.2" stroke-miterlimit="22.9256"/>
<path d="M918.135 458.583C906.875 460.094 895.616 461.606 875.337 463.464C855.058 465.324 825.76 467.529 804.484 468.287C783.21 469.046 769.96 468.356 757.957 467.508C745.955 466.662 735.203 465.655 723.516 465.4C711.83 465.146 699.212 465.644 680.229 464.822C661.247 464.002 635.903 461.863 608.141 457.4C580.378 452.937 550.199 446.151 529.443 441.285C508.687 436.419 497.354 433.476 484.289 428.488C471.223 423.501 456.426 416.471 444.403 409.753C432.381 403.036 423.137 396.633 416.355 388.681C409.571 380.731 405.25 371.233 404.683 361.009C404.116 350.786 407.301 339.839 413.631 328.768C419.96 317.698 429.434 306.505 441.424 297.465C453.414 288.424 467.922 281.535 481.153 276.973C494.385 272.412 506.341 270.176 520.072 268.618C533.805 267.058 549.313 266.174 563.118 266.456C576.923 266.738 589.025 268.187 599.049 268.889C609.074 269.591 617.021 269.547 626.708 268.703C636.395 267.858 647.823 266.21 662.597 263.107C677.371 260.003 695.49 255.444 709.589 252.274C723.689 249.105 733.767 247.325 743.663 245.577C753.561 243.83 763.275 242.114 772.373 240.013C781.473 237.912 789.958 235.425 802.067 232.853C814.177 230.282 829.913 227.628 840.231 225.996C850.549 224.365 855.447 223.759 860.346 223.152" stroke="black" stroke-width="1.2" stroke-miterlimit="22.9256"/>
<path d="M882.16 470.81C857.192 474.435 832.226 478.06 812.939 479.53C793.653 481.001 780.049 480.316 765.652 479.988C751.255 479.659 736.066 479.685 721.482 479.636C706.898 479.586 692.92 479.462 677.419 479.42C661.919 479.377 644.897 479.42 627.234 478.588C609.572 477.756 591.269 476.051 575.363 474.57C559.458 473.089 545.95 471.834 533.251 470.449C520.555 469.065 508.668 467.553 491.921 464.571C475.173 461.589 453.563 457.135 434.478 451.005C415.392 444.874 398.829 437.064 385.807 430.09C372.786 423.116 363.307 416.977 354.838 409.898C346.369 402.82 338.911 394.803 334.301 385.091C329.691 375.379 327.928 363.974 329.755 351.385C331.583 338.796 336.997 325.022 345.313 311.593C353.628 298.163 364.842 285.076 376.513 274.719C388.185 264.362 400.315 256.734 414.171 250.93C428.025 245.126 443.607 241.146 462.005 239.197C480.403 237.247 501.62 237.33 518.646 238.465C535.673 239.598 548.51 241.783 562.593 241.525C576.676 241.265 592.002 238.562 607.963 235.265C623.926 231.968 640.522 228.076 652.539 224.996C664.556 221.916 671.994 219.649 687.246 216.543C702.498 213.436 725.562 209.493 743.292 206.366C761.022 203.24 773.419 200.929 783.184 199.177C792.949 197.424 800.083 196.227 804.795 195.425C809.509 194.622 811.799 194.213 814.091 193.804" stroke="black" stroke-width="1.2" stroke-miterlimit="22.9256"/>
<path d="M860.319 495.034C852.981 496.416 845.642 497.796 835.669 499.167C825.696 500.537 813.088 501.897 793.209 502.508C773.332 503.118 746.185 502.981 721.756 502.564C697.326 502.148 675.616 501.454 651.723 500.05C627.831 498.647 601.757 496.536 579.442 494.779C557.128 493.021 538.572 491.615 518.729 489.822C498.886 488.029 477.753 485.849 457.737 483.593C437.721 481.339 418.822 479.012 401.976 476.013C385.131 473.016 370.342 469.35 355.765 464.047C341.185 458.744 326.82 451.805 313.115 443.331C299.41 434.857 286.365 424.845 277.798 416.516C269.23 408.188 265.138 401.543 262.202 393.827C259.264 386.111 257.48 377.325 257.469 367.49C257.458 357.655 259.221 346.769 262.618 336.58C266.015 326.39 271.049 316.897 278.319 306.702C285.588 296.507 295.095 285.61 305.455 275.116C315.816 264.623 327.032 254.532 339.026 245.104C351.019 235.674 363.788 226.908 375.666 220.084C387.543 213.257 398.529 208.373 407.06 204.841C415.591 201.31 421.668 199.132 428.899 199.151C436.131 199.167 444.517 201.381 453.339 203.639C462.16 205.897 471.419 208.201 480.668 209.893C489.917 211.583 499.158 212.663 509.942 213.298C520.727 213.932 533.054 214.121 547.866 212.694C562.678 211.267 579.973 208.222 593.996 205.125C608.019 202.028 618.769 198.879 630.384 195.593C641.998 192.305 654.476 188.877 668.046 186.242C681.615 183.607 696.277 181.762 711.031 179.717C725.786 177.672 740.632 175.426 752.218 173.842C763.804 172.258 772.128 171.335 780.454 170.413" stroke="black" stroke-miterlimit="22.9256"/>
<path d="M865.158 517.409C861.192 517.995 857.226 518.579 848.202 520.388C839.179 522.198 825.097 525.23 813.001 527.698C800.906 530.165 790.795 532.069 779.406 532.229C768.018 532.391 755.352 530.811 743.298 529.614C731.246 528.418 719.806 527.606 708.558 527.378C697.31 527.151 686.254 527.51 675.25 526.742C664.248 525.975 653.299 524.084 641.431 522.111C629.566 520.14 616.784 518.089 599.885 516.394C582.986 514.698 561.974 513.359 540.361 512.277C518.75 511.197 496.542 510.375 475.157 508.486C453.772 506.597 433.211 503.64 415.135 501.568C397.057 499.496 381.464 498.31 363.236 495.619C345.006 492.928 324.14 488.737 307.139 483.648C290.138 478.561 277.001 472.576 266.922 466.731C256.841 460.886 249.817 455.178 244.085 449.826C238.353 444.475 233.911 439.479 230.882 434.746C227.852 430.013 226.231 425.54 222.904 419.12C219.577 412.701 214.544 404.333 211.7 396.519C208.856 388.705 208.203 381.447 209.735 371.068C211.265 360.688 214.98 347.19 222.263 333.894C229.545 320.598 240.396 307.503 252.865 293.693C265.334 279.883 279.421 265.357 293.37 252.762C307.318 240.166 321.128 229.499 332.056 222.428C342.983 215.358 351.031 211.884 359.575 207.599C368.12 203.315 377.16 198.22 387.157 194.125C397.151 190.03 408.102 186.935 417.648 185.04C427.193 183.144 435.332 182.449 445.274 183.51C455.216 184.57 466.96 187.386 477.336 189.492C487.714 191.598 496.724 192.994 505.991 193.468C515.258 193.942 524.781 193.495 536.732 192.312C548.683 191.129 563.061 189.213 577.451 186.619C591.841 184.024 606.242 180.75 617.881 177.964C629.521 175.176 638.4 172.876 649.781 170.381C661.162 167.885 675.044 165.195 689.315 162.929C703.586 160.662 718.243 158.819 730.248 157.321C742.251 155.821 751.6 154.666 758.632 153.736C765.665 152.805 770.378 152.097 775.092 151.39" stroke="black" stroke-width="1.2" stroke-miterlimit="22.9256"/>
<path d="M870.35 541.91C864.428 543.452 858.504 544.995 850.936 547.19C843.369 549.387 834.156 552.238 823.633 555.134C813.11 558.031 801.276 560.973 790.768 562.209C780.262 563.444 771.08 562.972 759.306 561.36C747.532 559.746 733.163 556.993 714.319 554.473C695.476 551.956 672.16 549.673 652.957 547.421C633.754 545.169 618.667 542.949 602.067 540.527C585.466 538.106 567.353 535.481 547.473 533.877C527.594 532.274 505.947 531.69 483.251 530.588C460.554 529.484 436.808 527.862 415.908 526.244C395.007 524.624 376.953 523.012 356.361 520.617C335.767 518.222 312.636 515.045 292.254 511.753C271.871 508.462 254.236 505.056 241.067 501.477C227.897 497.897 219.192 494.148 209.307 488.394C199.42 482.641 188.351 474.882 180.961 467.106C173.571 459.331 169.86 451.536 166.255 444.95C162.651 438.363 159.156 432.985 156.894 426.673C154.634 420.362 153.606 413.117 153.001 404.905C152.395 396.691 152.213 387.509 154.208 377.391C156.203 367.274 160.375 356.219 166.111 346.918C171.848 337.614 179.148 330.065 187.428 321.884C195.706 313.703 204.963 304.895 213.903 295.946C222.842 286.999 231.463 277.911 239.706 270.16C247.949 262.41 255.813 255.997 264.358 249.091C272.902 242.184 282.129 234.786 291.353 226.988C300.575 219.191 309.793 210.992 318.609 205.571C327.425 200.149 335.838 197.504 343.115 194.842C350.391 192.18 356.53 189.502 360.9 186.153C365.268 182.804 367.867 178.783 378.806 175.077C389.743 171.371 409.019 167.977 421.293 166.247C433.566 164.516 438.837 164.448 445.213 165.415C451.587 166.382 459.067 168.381 466.544 169.798C474.022 171.213 481.496 172.045 490.026 172.939C498.555 173.833 508.138 174.791 519.892 174.689C531.645 174.585 545.57 173.425 560.114 171.326C574.657 169.226 589.82 166.19 602.926 163.331C616.031 160.471 627.079 157.788 638.11 155.418C649.14 153.045 660.151 150.984 672.096 149.067C684.04 147.148 696.917 145.372 710.365 143.621C723.814 141.867 737.835 140.136 747.891 138.656C757.949 137.176 764.044 135.949 770.138 134.721" stroke="black" stroke-width="1.2" stroke-miterlimit="22.9256"/>
<path d="M873.844 559.069C868.146 560.379 862.449 561.692 856.04 564.48C849.631 567.267 842.511 571.533 832.61 575.15C822.709 578.768 810.029 581.738 798.46 583.468C786.89 585.196 776.432 585.687 765.864 584.965C755.298 584.244 744.622 582.314 729.338 579.504C714.055 576.695 694.162 573.007 672.149 569.723C650.139 566.44 626.006 563.56 606.494 561.034C586.983 558.507 572.093 556.335 552.768 554.452C533.445 552.569 509.686 550.975 485.675 549.348C461.662 547.722 437.393 546.06 413.485 544.677C389.576 543.295 366.027 542.19 341.48 540.504C316.935 538.82 291.391 536.557 269.131 533.329C246.872 530.102 227.896 525.913 208.607 520.643C189.318 515.374 169.716 509.027 154.208 500.896C138.702 492.765 127.29 482.853 118.85 475.611C110.409 468.371 104.94 463.802 100.855 459.674C96.77 455.547 94.068 451.86 90.6617 448.952C87.2547 446.045 83.1413 443.919 80.7451 440.706C78.3489 437.493 77.6699 433.196 79.5981 425.487C81.5261 417.776 86.0606 406.652 91.5256 394.505C96.9898 382.359 103.382 369.187 114.694 355.089C126.006 340.989 142.238 325.964 157.966 311.579C173.694 297.195 188.919 283.452 201.128 273.19C213.337 262.928 222.53 256.147 231.846 249.482C241.162 242.816 250.601 236.265 260.494 228.684C270.387 221.104 280.737 212.494 289.649 206.486C298.559 200.479 306.033 197.074 312.891 193.47C319.749 189.867 325.991 186.066 331.725 180.386C337.457 174.705 342.682 167.148 349.191 162.313C355.698 157.478 363.49 155.369 374.099 153.379C384.706 151.388 398.13 149.515 409.089 148.816C420.048 148.115 428.543 148.587 437.283 149.753C446.023 150.918 455.008 152.776 463.546 154.315C472.084 155.853 480.177 157.071 491.882 157.622C503.588 158.174 518.908 158.058 534.562 156.715C550.218 155.373 566.208 152.804 581.283 149.965C596.357 147.126 610.515 144.019 625.367 140.851C640.219 137.683 655.765 134.455 670.992 131.467C686.218 128.478 701.127 125.73 713.918 123.785C726.709 121.84 737.385 120.699 745.519 119.55C753.654 118.4 759.248 117.245 764.843 116.089" stroke="black" stroke-width="1.2" stroke-miterlimit="22.9256"/>
<path d="M712.72 606.159C715.967 604.298 719.215 602.438 720.891 600.384C722.568 598.329 722.672 596.081 716.766 593.552C710.861 591.023 698.944 588.212 688.208 586.439C677.472 584.666 667.917 583.929 654.628 582.52C641.34 581.111 624.319 579.03 607.489 576.866C590.662 574.702 574.029 572.455 552.295 569.592C530.562 566.729 503.728 563.252 479.029 561.106C454.329 558.96 431.762 558.148 407.237 557.311C382.714 556.476 356.232 555.612 336.17 554.925C316.109 554.24 302.468 553.727 281.319 551.509C260.172 549.292 231.518 545.372 205.871 541.291C180.224 537.209 157.583 532.968 140.541 529.045C123.5 525.123 112.056 521.519 103.568 518.517C95.0792 515.515 89.5463 513.116 84.0114 510.716" stroke="black" stroke-width="1.2" stroke-miterlimit="22.9256"/>
<path d="M656.412 615.657C658.767 613.588 661.122 611.517 662.649 609.315C664.176 607.114 664.874 604.784 661.592 603.039C658.311 601.296 651.047 600.139 639.116 598.733C627.184 597.327 610.582 595.673 589.2 593.167C567.818 590.661 541.656 587.305 518.156 584.907C494.657 582.511 473.82 581.073 450.83 579.013C427.841 576.952 402.7 574.27 375.285 572.624C347.869 570.977 318.181 570.369 297.222 570.591C276.264 570.814 264.037 571.868 247.303 570.452C230.569 569.038 209.328 565.151 191.409 561.993C173.49 558.837 158.893 556.409 146.017 554.396C133.139 552.381 121.984 550.783 113.467 550.54C104.95 550.297 99.0744 551.411 93.1976 552.526" stroke="black" stroke-width="1.2" stroke-miterlimit="22.9256"/>
<path d="M612.549 623.091C614.522 621.713 616.495 620.336 617.257 618.801C618.022 617.266 617.578 615.574 613.898 614.067C610.22 612.563 603.305 611.241 589.247 608.942C575.189 606.643 553.986 603.365 529.627 601.033C505.268 598.701 477.751 597.316 452.33 595.521C426.909 593.728 403.582 591.526 382.283 590.606C360.983 589.686 341.709 590.048 323.3 590.034C304.89 590.019 287.342 589.629 271.018 589.168C254.693 588.706 239.591 588.176 225.737 587.437C211.883 586.699 199.276 585.752 186.535 584.536C173.795 583.321 160.922 581.836 150.856 580.48C140.789 579.125 133.531 577.898 126.43 577.844C119.328 577.793 112.383 578.912 107.943 579.778C103.503 580.645 101.568 581.258 99.6318 581.869" stroke="black" stroke-width="1.2" stroke-miterlimit="22.9256"/>
<path d="M569.116 630.574C570.691 628.44 572.265 626.305 572.672 624.455C573.079 622.606 572.32 621.039 566.413 619.895C560.507 618.754 549.455 618.034 536.154 616.697C522.853 615.36 507.302 613.406 492.491 612.233C477.679 611.061 463.604 610.669 449.843 610.288C436.082 609.909 422.632 609.537 404.19 608.542C385.746 607.547 362.309 605.928 343.435 605.518C324.561 605.109 310.25 605.909 294.219 605.717C278.189 605.525 260.44 604.341 243.448 603.624C226.455 602.908 210.221 602.66 196.319 602.687C182.417 602.716 170.849 603.021 160.46 602.384C150.072 601.748 140.864 600.169 132.671 599.866C124.478 599.565 117.301 600.54 112.73 601.28C108.161 602.021 106.199 602.529 104.236 603.036" stroke="black" stroke-width="1.2" stroke-miterlimit="22.9256"/>
<path d="M507.71 641.263C508.594 640.217 509.479 639.171 508.982 637.476C508.487 635.783 506.611 633.439 495.63 631.606C484.65 629.775 464.564 628.453 439.236 626.969C413.907 625.488 383.334 623.843 355.746 623.092C328.159 622.342 303.555 622.484 281.809 622.891C260.063 623.298 241.174 623.971 226.417 623.958C211.66 623.947 201.036 623.253 189.009 622.876C176.982 622.5 163.55 622.444 154.07 622.628C144.588 622.813 139.056 623.239 133.308 623.991C127.56 624.743 121.595 625.821 117.637 626.642C113.679 627.464 111.729 628.027 109.778 628.592" stroke="black" stroke-width="1.2" stroke-miterlimit="22.9256"/>
<path d="M409.779 658.706C410.645 657.035 411.512 655.363 410.471 653.762C409.43 652.162 406.483 650.631 392.139 649.777C377.794 648.925 352.052 648.749 324.571 648.687C297.088 648.626 267.866 648.679 246.333 648.922C224.8 649.166 210.956 649.599 197.468 650.125C183.98 650.651 170.849 651.269 158.738 651.367C146.629 651.466 135.541 651.046 128.492 651.538C121.444 652.029 118.435 653.432 115.425 654.836" stroke="black" stroke-width="1.2" stroke-miterlimit="22.9256"/>
<path d="M288.256 679.673C290.979 678.086 293.701 676.498 290.835 675.363C287.97 674.226 279.515 673.543 268.965 674.35C258.417 675.16 245.775 677.461 234.358 677.492C222.94 677.523 212.749 675.285 200.068 675.032C187.388 674.779 172.219 676.513 160.071 677.284C147.922 678.057 138.795 677.869 132.814 678.451C126.834 679.033 123.999 680.387 121.166 681.741" stroke="black" stroke-width="1.2" stroke-miterlimit="22.9256"/>
<path d="M195.543 697.237C196.564 695.578 197.586 693.918 196.255 693.541C194.922 693.163 191.24 694.067 184.764 694.932C178.288 695.798 169.018 696.625 161.058 696.421C153.095 696.217 146.442 694.985 141.647 695.164C136.853 695.342 133.916 696.933 131.489 698.086C129.062 699.241 127.145 699.958 125.227 700.676" stroke="black" stroke-width="1.2" stroke-miterlimit="22.9256"/>
<path d="M769.928 104.787C762.752 105.99 755.578 107.191 745.552 108.413C735.528 109.634 722.655 110.874 709.504 112.45C696.354 114.028 682.928 115.941 670.282 118.031C657.637 120.119 645.776 122.385 635.797 125.043C625.818 127.699 617.725 130.748 608.37 133.422C599.017 136.093 588.402 138.388 575.46 140.341C562.52 142.294 547.254 143.904 534.671 144.965C522.088 146.025 512.19 146.54 499.581 145.316C486.973 144.093 471.655 141.134 457.622 139.151C443.59 137.167 430.842 136.16 418.71 136.123C406.579 136.085 395.063 137.018 385.756 139.49C376.449 141.964 369.351 145.976 362.463 149.475C355.575 152.974 348.897 155.958 342.887 158.639C336.875 161.32 331.53 163.696 326.935 167.004C322.34 170.312 318.494 174.552 312.766 179.297C307.038 184.043 299.427 189.293 291.671 194.73C283.913 200.166 276.01 205.785 266.029 213.084C256.049 220.382 243.991 229.358 231.77 238.047C219.546 246.735 207.16 255.134 195.419 263.641C183.677 272.148 172.582 280.76 158.836 291.344C145.09 301.929 128.693 314.485 115.467 324.945C102.24 335.404 92.1822 343.765 83.8931 350.854C75.6041 357.943 69.0838 363.759 64.839 368.124C60.5927 372.489 58.6209 375.403 56.6492 378.317" stroke="black" stroke-width="1.2" stroke-miterlimit="22.9256"/>
<path d="M766.853 89.2278C763.957 89.3871 761.062 89.5476 753.458 90.7414C745.855 91.934 733.545 94.1607 720.494 95.9415C707.443 97.7211 693.653 99.0553 680.623 100.529C667.595 102.001 655.327 103.615 644.01 105.901C632.694 108.187 622.325 111.147 611.446 114.36C600.567 117.573 589.175 121.036 573.336 123.583C557.497 126.128 537.211 127.756 520.702 128.51C504.193 129.262 491.461 129.142 476.804 127.772C462.148 126.403 445.569 123.787 433.002 122.168C420.436 120.549 411.88 119.927 401.91 120.169C391.939 120.407 380.552 121.51 370.832 123.683C361.111 125.857 353.057 129.101 348.818 131.431C344.579 133.761 344.155 135.177 344.455 136.719C344.754 138.26 345.775 139.925 346.806 141.727C347.836 143.529 348.875 145.467 348.632 147.33C348.387 149.194 346.859 150.981 343.913 152.429C340.964 153.877 336.6 154.986 332.804 155.482C329.007 155.976 325.778 155.857 323.422 154.497C321.065 153.137 319.579 150.535 318.401 149.408C317.222 148.28 316.351 148.63 314.232 150.737C312.111 152.843 308.744 156.707 305.001 161.595C301.258 166.484 297.14 172.396 291.644 177.539C286.148 182.681 279.272 187.052 270.406 192.485C261.541 197.916 250.688 204.41 241.349 210.056C232.009 215.701 224.186 220.499 213.926 226.98C203.666 233.463 190.97 241.631 179.694 249.254C168.42 256.877 158.566 263.955 145.19 273.363C131.812 282.77 114.913 294.504 102.026 303.568C89.1402 312.631 80.2673 319.022 72.8667 324.572C65.4653 330.122 59.5378 334.831 55.7302 338.016C51.9216 341.199 50.2344 342.857 48.5457 344.515" stroke="black" stroke-width="1.2" stroke-miterlimit="22.9256"/>
<path d="M767.476 77.8363C763.009 78.3859 758.543 78.9366 747.454 80.6559C736.364 82.3751 718.653 85.2649 701.846 87.8329C685.04 90.3998 669.141 92.648 653.962 95.1106C638.783 97.5732 624.327 100.252 611.937 102.963C599.547 105.675 589.226 108.418 578.906 110.713C568.586 113.008 558.267 114.854 549.498 115.53C540.731 116.205 533.512 115.707 523.052 115.352C512.593 114.998 498.891 114.784 487.452 114.01C476.013 113.236 466.836 111.899 460.18 110.299C453.525 108.699 449.39 106.837 445.256 104.973" stroke="black" stroke-width="1.2" stroke-miterlimit="22.9256"/>
<path d="M764.588 64.1307C762.313 64.285 760.039 64.4405 754.689 65.2562C749.339 66.0708 740.912 67.5484 732.058 68.7896C723.205 70.0308 713.926 71.0392 705.55 71.7123C697.174 72.3853 689.704 72.7251 678.481 74.2951C667.26 75.8649 652.288 78.6647 638.946 81.1597C625.604 83.6545 613.893 85.8446 604.1 88.4535C594.31 91.0622 586.437 94.0886 576.259 95.3516C566.08 96.6158 553.597 96.1163 544.701 95.6956C535.807 95.2748 530.502 94.9313 526.803 94.2959C523.106 93.6602 521.014 92.7305 518.922 91.8005" stroke="black" stroke-width="1.2" stroke-miterlimit="22.9256"/>
<path d="M298.467 135.66C297.468 138.331 296.47 141.001 293.004 146.114C289.537 151.226 283.603 158.781 277.68 165.703C271.757 172.625 265.847 178.916 257.739 185.252C249.631 191.586 239.327 197.967 228.738 203.953C218.147 209.939 207.271 215.533 197.265 220.506C187.259 225.478 178.122 229.831 169.676 235.025C161.228 240.217 153.472 246.253 145.882 251.602C138.291 256.952 130.865 261.616 123.13 266.421C115.396 271.224 107.351 276.167 98.8396 281.142C90.3276 286.117 81.3485 291.125 73.9569 295.635C66.5654 300.145 60.7593 304.154 56.0313 307.23C51.3012 310.304 47.6481 312.443 45.3616 313.747C43.0758 315.051 42.156 315.521 41.2368 315.989" stroke="black" stroke-width="1.2" stroke-miterlimit="22.9256"/>
<path d="M279.36 139.474C277.58 143.345 275.801 147.215 272.319 152.349C268.837 157.482 263.65 163.879 256.282 169.991C248.912 176.102 239.358 181.927 227.986 188.382C216.613 194.836 203.421 201.919 190.411 208.572C177.399 215.224 164.569 221.446 153.161 227.464C141.753 233.482 131.767 239.294 122.616 244.53C113.465 249.764 105.146 254.424 96.4815 259.518C87.818 264.611 78.8095 270.139 71.0448 274.824C63.2782 279.508 56.7564 283.35 51.6359 286.318C46.5161 289.284 42.7979 291.379 40.4024 292.638C38.0066 293.897 36.932 294.318 35.8579 294.741" stroke="black" stroke-width="1.2" stroke-miterlimit="22.9256"/>
<path d="M245.787 146.103C245.026 148.751 244.265 151.399 242.062 154.517C239.858 157.633 236.213 161.217 228.226 166.707C220.239 172.197 207.911 179.59 193.438 187.553C178.966 195.516 162.348 204.048 148.018 211.423C133.686 218.797 121.643 225.013 109.829 230.999C98.0143 236.985 86.4295 242.743 76.7995 247.934C67.17 253.124 59.4964 257.748 52.9974 261.347C46.4984 264.946 41.1763 267.523 37.5336 269.048C33.8908 270.574 31.9283 271.047 29.9644 271.522" stroke="black" stroke-width="1.2" stroke-miterlimit="22.9256"/>
<path d="M178.321 159.336C176.899 162.113 175.476 164.888 171.21 168.888C166.944 172.888 159.832 178.112 152.003 183.121C144.174 188.13 135.625 192.925 126.097 197.8C116.568 202.676 106.058 207.63 97.3831 211.51C88.7078 215.389 81.8649 218.192 74.9485 221.471C68.031 224.749 61.0398 228.503 54.9121 231.5C48.7827 234.498 43.5183 236.739 38.8107 238.231C34.1012 239.722 29.9485 240.464 27.3557 241.135C24.7634 241.804 23.7286 242.401 22.696 243" stroke="black" stroke-width="1.2" stroke-miterlimit="22.9256"/>
<path d="M88.508 176.886C87.3616 180.815 86.2146 184.746 81.765 188.767C77.3146 192.788 69.5618 196.9 62.0652 200.306C54.5675 203.712 47.3266 206.409 40.7 208.899C34.0731 211.387 28.0592 213.665 24.1082 215.194C20.1569 216.722 18.2685 217.502 16.3782 218.28" stroke="black" stroke-width="1.2" stroke-miterlimit="22.9256"/>
<path d="M24.4015 189.415C23.1742 191.952 21.9475 194.492 20.2382 196.392C18.5279 198.292 16.3347 199.555 14.8991 200.318C13.4638 201.079 12.7844 201.34 12.1047 201.6" stroke="black" stroke-width="1.2" stroke-miterlimit="22.9256"/>
</mask>
<g mask="url(#mask0_957_2360)">
<path d="M252 373L720 373.001L720 160L555.565 196.006L412.5 198.5L336.42 241.473C252.968 312.499 252 373 252 373Z" fill="#165A52"/>
</g>
</svg>
