<svg width="575" height="789" viewBox="0 0 575 789" fill="none" xmlns="http://www.w3.org/2000/svg">
<mask id="mask0_957_1987" style="mask-type:alpha" maskUnits="userSpaceOnUse" x="13" y="54" width="818" height="695">
<path d="M829.997 449.545C825.076 450.439 820.154 451.332 812.776 452.147C805.399 452.962 795.564 453.698 782.73 454.367C769.895 455.037 754.059 455.64 739.69 455.508C725.323 455.376 712.421 454.509 701.243 453.998C690.065 453.488 680.611 453.334 670.925 452.772C661.24 452.21 651.325 451.241 640.465 449.395C629.604 447.549 617.797 444.825 603.048 441.391C588.299 437.956 570.607 433.809 553.567 428.366C536.528 422.923 520.141 416.183 507.843 409.667C495.543 403.149 487.333 396.852 480.968 390.482C474.603 384.113 470.084 377.669 470.037 368.776C469.989 359.883 474.413 348.54 480.137 341.096C485.863 333.651 492.889 330.106 503.353 327.044C513.818 323.982 527.723 321.405 539.924 320.017C552.126 318.63 562.624 318.432 572.306 319.225C581.989 320.017 590.856 321.798 599.157 322.357C607.459 322.916 615.196 322.253 625.211 319.725C635.225 317.196 647.516 312.802 660.587 308.374C673.658 303.946 687.51 299.486 699.122 295.82C710.734 292.152 720.106 289.281 729.171 286.221C738.236 283.16 746.993 279.912 753.609 277.607C760.226 275.303 764.701 273.944 768.128 272.945C771.554 271.943 773.932 271.303 776.308 270.662" stroke="black" stroke-width="1.2" stroke-miterlimit="22.9256"/>
<path d="M796.931 459.903C788.562 461.355 780.193 462.808 765.044 464.641C749.897 466.474 727.97 468.687 711.974 469.529C695.979 470.372 685.916 469.842 676.781 469.161C667.648 468.481 659.443 467.646 650.599 467.5C641.754 467.355 632.272 467.898 617.87 467.29C603.469 466.685 584.15 464.929 562.805 461.084C541.46 457.239 518.089 451.305 501.999 447.043C485.908 442.781 477.097 440.195 466.802 435.767C456.506 431.34 444.726 425.072 435.068 419.068C425.411 413.065 417.877 407.326 412.069 400.164C406.259 393.004 402.174 384.423 400.861 375.156C399.547 365.89 401.003 355.939 404.823 345.854C408.642 335.77 414.824 325.552 423.093 317.267C431.362 308.981 441.717 302.628 451.311 298.395C460.905 294.163 469.737 292.049 479.969 290.536C490.2 289.022 501.831 288.107 512.277 288.263C522.723 288.418 531.985 289.644 539.614 290.207C547.242 290.772 553.238 290.674 560.478 289.838C567.718 289.001 576.203 287.423 587.087 284.502C597.972 281.58 611.256 277.315 621.625 274.338C631.994 271.361 639.448 269.674 646.768 268.017C654.088 266.36 661.273 264.734 667.96 262.762C674.648 260.791 680.837 258.474 689.756 256.054C698.676 253.634 710.326 251.113 717.974 249.559C725.621 248.005 729.267 247.42 732.912 246.833" stroke="black" stroke-width="1.2" stroke-miterlimit="22.9256"/>
<path d="M814.794 487.635C793.783 491.568 772.773 495.5 756.413 497.17C740.052 498.842 728.342 498.249 715.99 498.031C703.637 497.811 690.641 497.964 678.155 498.033C665.669 498.102 653.695 498.089 640.426 498.174C627.156 498.258 612.594 498.443 597.396 497.732C582.199 497.023 566.369 495.42 552.611 494.029C538.854 492.637 527.171 491.458 516.167 490.138C505.166 488.821 494.844 487.364 480.22 484.436C465.594 481.508 446.664 477.107 429.728 470.962C412.792 464.816 397.851 456.922 386.022 449.86C374.194 442.797 365.479 436.563 357.536 429.355C349.593 422.148 342.423 413.967 337.524 404.02C332.624 394.073 329.996 382.362 330.323 369.403C330.65 356.445 333.93 342.239 339.728 328.364C345.524 314.488 353.836 300.94 362.806 290.195C371.778 279.451 381.409 271.509 392.697 265.427C403.983 259.346 416.926 255.125 432.48 252.97C448.033 250.814 466.198 250.724 480.881 251.75C495.563 252.775 506.764 254.916 518.79 254.535C530.817 254.151 543.667 251.246 557.003 247.725C570.339 244.203 584.16 240.065 594.141 236.8C604.123 233.534 610.266 231.141 623.013 227.823C635.76 224.502 655.111 220.259 669.977 216.898C684.843 213.537 695.224 211.059 703.41 209.178C711.594 207.295 717.582 206.005 721.535 205.142C725.49 204.278 727.411 203.838 729.331 203.399" stroke="black" stroke-width="1.2" stroke-miterlimit="22.9256"/>
<path d="M806.729 519.923C800.279 521.478 793.83 523.031 785.012 524.597C776.194 526.163 765.008 527.739 747.214 528.57C729.421 529.401 705.021 529.488 683.032 529.249C661.044 529.011 641.47 528.449 619.861 527.142C598.254 525.833 574.614 523.78 554.387 522.076C534.161 520.371 517.347 519.015 499.336 517.251C481.326 515.487 462.117 513.316 443.904 511.055C425.691 508.794 408.473 506.446 393.031 503.354C377.59 500.264 363.927 496.435 350.284 490.837C336.64 485.239 323.02 477.873 309.834 468.844C296.648 459.815 283.897 449.121 275.342 440.205C266.787 431.288 262.425 424.151 258.991 415.848C255.556 407.544 253.047 398.075 252.024 387.459C250.999 376.842 251.459 365.077 253.46 354.048C255.461 343.02 259.003 332.729 264.482 321.661C269.96 310.594 277.376 298.748 285.601 287.331C293.825 275.915 302.86 264.925 312.662 254.645C322.462 244.362 333.029 234.789 342.995 227.32C352.96 219.848 362.325 214.48 369.625 210.594C376.923 206.71 382.158 204.306 388.656 204.263C395.154 204.218 402.916 206.536 411.073 208.897C419.23 211.258 427.786 213.665 436.268 215.411C444.751 217.156 453.164 218.241 462.917 218.833C472.671 219.424 483.764 219.522 496.922 217.854C510.081 216.185 525.303 212.748 537.581 209.285C549.858 205.82 559.191 202.328 569.286 198.68C579.379 195.031 590.235 191.223 602.153 188.261C614.071 185.299 627.051 183.181 640.094 180.846C653.138 178.511 666.243 175.958 676.487 174.148C686.731 172.338 694.114 171.27 701.498 170.202" stroke="black" stroke-miterlimit="22.9256"/>
<path d="M813.319 544.023C809.817 544.689 806.314 545.354 798.395 547.385C790.476 549.417 778.139 552.812 767.528 555.581C756.918 558.349 748.032 560.49 737.817 560.762C727.605 561.035 716.063 559.44 705.111 558.251C694.162 557.065 683.802 556.287 673.674 556.138C663.547 555.99 653.653 556.473 643.689 555.739C633.726 555.007 623.696 553.06 612.832 551.033C601.97 549.008 590.276 546.905 574.921 545.221C559.566 543.536 540.552 542.272 521.026 541.292C501.502 540.312 481.467 539.617 462.062 537.763C442.658 535.909 423.883 532.895 407.431 530.815C390.978 528.735 376.849 527.589 360.196 524.842C343.543 522.095 324.367 517.75 308.571 512.404C292.774 507.06 280.356 500.713 270.698 494.491C261.039 488.268 254.141 482.168 248.44 476.441C242.738 470.713 238.234 465.36 235.024 460.276C231.814 455.194 229.896 450.379 226.246 443.478C222.595 436.577 217.21 427.588 213.849 419.178C210.489 410.767 209.153 402.938 209.459 391.722C209.763 380.504 211.707 365.9 216.878 351.485C222.047 337.069 230.444 322.84 240.22 307.825C249.996 292.81 261.152 277.008 272.383 263.291C283.613 249.574 294.918 237.94 304.005 230.213C313.092 222.487 319.962 218.666 327.195 213.967C334.429 209.269 342.025 203.691 350.582 199.184C359.137 194.677 368.655 191.242 377.035 189.114C385.413 186.985 392.653 186.164 401.694 187.223C410.734 188.281 421.574 191.219 431.112 193.403C440.651 195.587 448.889 197.016 457.262 197.447C465.636 197.878 474.145 197.314 484.758 195.934C495.371 194.554 508.089 192.361 520.748 189.436C533.407 186.511 546.005 182.852 556.174 179.744C566.342 176.634 574.081 174.074 584.047 171.283C594.013 168.49 606.205 165.466 618.791 162.896C631.377 160.326 644.353 158.21 654.982 156.488C665.61 154.766 673.889 153.438 680.11 152.374C686.331 151.308 690.492 150.503 694.654 149.699" stroke="black" stroke-width="1.2" stroke-miterlimit="22.9256"/>
<path d="M820.426 570.414C815.265 572.13 810.103 573.846 803.532 576.281C796.961 578.718 788.979 581.876 779.825 585.093C770.672 588.311 760.345 591.589 751.034 593.014C741.724 594.439 733.427 594.008 722.685 592.369C711.942 590.73 698.75 587.882 681.563 585.325C664.377 582.77 643.197 580.508 625.715 578.243C608.234 575.978 594.452 573.712 579.291 571.241C564.129 568.77 547.588 566.094 529.564 564.535C511.542 562.976 492.037 562.533 471.536 561.539C451.034 560.544 429.535 558.998 410.595 557.432C391.653 555.865 375.269 554.28 356.525 551.873C337.778 549.465 316.673 546.236 298.025 542.859C279.375 539.482 263.183 535.958 250.984 532.208C238.785 528.458 230.579 524.486 221.105 518.361C211.631 512.235 200.887 503.956 193.446 495.626C186.006 487.297 181.868 478.914 177.951 471.836C174.034 464.757 170.34 458.981 167.657 452.188C164.975 445.395 163.304 437.582 161.913 428.723C160.522 419.862 159.411 409.951 160.16 399.012C160.908 388.073 163.515 376.104 167.708 366.014C171.901 355.921 177.68 347.709 184.273 338.806C190.865 329.904 198.272 320.315 205.379 310.578C212.486 300.842 219.293 290.958 225.898 282.52C232.502 274.082 238.905 267.092 245.868 259.562C252.831 252.033 260.356 243.967 267.836 235.47C275.316 226.973 282.751 218.043 290.111 212.115C297.471 206.186 304.755 203.257 311.017 200.321C317.279 197.385 322.516 194.441 326.097 190.788C329.675 187.135 331.595 182.772 341.038 178.677C350.48 174.581 367.446 170.752 378.292 168.778C389.139 166.803 393.866 166.684 399.693 167.673C405.519 168.661 412.444 170.755 419.307 172.219C426.17 173.682 432.97 174.517 440.724 175.408C448.478 176.299 457.185 177.25 467.733 177.038C478.28 176.824 490.668 175.451 503.516 173.06C516.363 170.668 529.67 167.259 541.148 164.059C552.625 160.859 562.273 157.868 571.937 155.213C581.6 152.557 591.279 150.237 601.811 148.063C612.342 145.889 623.725 143.861 635.625 141.854C647.525 139.845 659.941 137.855 668.822 136.17C677.704 134.486 683.052 133.108 688.399 131.729" stroke="black" stroke-width="1.2" stroke-miterlimit="22.9256"/>
<path d="M825.254 588.879C820.271 590.343 815.289 591.809 809.819 594.874C804.35 597.938 798.394 602.604 789.872 606.594C781.352 610.586 770.268 613.901 760.054 615.868C749.839 617.835 740.495 618.454 730.928 617.767C721.362 617.08 711.572 615.089 697.553 612.188C683.534 609.288 665.284 605.478 645.172 602.124C625.061 598.77 603.086 595.87 585.297 593.312C567.51 590.753 553.91 588.537 536.356 586.672C518.804 584.806 497.297 583.291 475.56 581.743C453.822 580.195 431.85 578.611 410.23 577.325C388.61 576.039 367.342 575.05 345.118 573.442C322.895 571.837 299.716 569.615 279.387 566.323C259.059 563.033 241.58 558.674 223.709 553.152C205.838 547.632 187.575 540.95 172.806 532.306C158.038 523.664 146.764 513.062 138.435 505.318C130.106 497.576 124.722 492.692 120.627 488.271C116.531 483.851 113.723 479.894 110.364 476.785C107.003 473.676 103.089 471.417 100.605 467.969C98.1209 464.522 97.0677 459.89 98.0045 451.551C98.941 443.21 101.867 431.163 105.523 418.004C109.178 404.845 113.561 390.572 122.269 375.256C130.975 359.938 144.006 343.578 156.651 327.914C169.296 312.251 181.554 297.284 191.463 286.102C201.372 274.918 208.93 267.519 216.611 260.245C224.292 252.968 232.095 245.814 240.2 237.546C248.305 229.278 256.714 219.895 264.1 213.332C271.484 206.771 277.847 203.03 283.635 199.08C289.424 195.132 294.64 190.976 299.204 184.794C303.768 178.613 307.681 170.41 313.029 165.134C318.376 159.859 325.158 157.515 334.483 155.275C343.806 153.034 355.671 150.896 365.444 150.047C375.216 149.195 382.895 149.631 390.866 150.814C398.837 151.996 407.1 153.925 414.929 155.512C422.758 157.098 430.153 158.343 440.724 158.837C451.297 159.331 465.046 159.073 478.97 157.488C492.895 155.904 506.994 152.992 520.243 149.798C533.492 146.603 545.889 143.127 558.903 139.579C571.918 136.031 585.55 132.412 598.92 129.055C612.289 125.697 625.398 122.601 636.688 120.391C647.978 118.181 657.45 116.857 664.639 115.546C671.827 114.234 676.734 112.939 681.64 111.643" stroke="black" stroke-width="1.2" stroke-miterlimit="22.9256"/>
<path d="M685.186 641.133C687.914 639.098 690.643 637.063 691.938 634.832C693.234 632.601 693.097 630.175 687.527 627.498C681.959 624.821 670.957 621.892 661.124 620.072C651.291 618.253 642.626 617.54 630.535 616.135C618.445 614.73 602.93 612.634 587.579 610.445C572.23 608.257 557.046 605.976 537.214 603.076C517.384 600.177 492.905 596.658 470.481 594.557C448.056 592.456 427.686 591.777 405.554 591.086C383.423 590.398 359.528 589.696 341.424 589.129C323.319 588.563 311.004 588.128 291.765 585.919C272.527 583.711 246.366 579.73 222.891 575.55C199.416 571.37 178.627 566.99 162.905 562.907C147.182 558.823 136.525 555.034 128.585 551.869C120.646 548.704 115.426 546.164 110.203 543.623" stroke="black" stroke-width="1.2" stroke-miterlimit="22.9256"/>
<path d="M635.516 651.875C637.421 649.621 639.325 647.367 640.472 644.979C641.619 642.592 642.007 640.073 638.878 638.219C635.748 636.367 629.099 635.182 618.228 633.769C607.356 632.356 592.26 630.716 572.779 628.199C553.298 625.681 529.433 622.289 508.059 619.906C486.686 617.526 467.805 616.156 446.925 614.134C426.044 612.11 403.166 609.436 378.349 607.898C353.532 606.36 326.778 605.961 307.958 606.383C289.139 606.805 278.254 608.049 263.064 606.667C247.874 605.287 228.379 601.279 211.945 598.029C195.51 594.78 182.138 592.288 170.354 590.228C158.57 588.166 148.376 586.539 140.695 586.351C133.013 586.163 127.844 587.416 122.675 588.669" stroke="black" stroke-width="1.2" stroke-miterlimit="22.9256"/>
<path d="M596.815 660.28C598.447 658.777 600.08 657.274 600.608 655.612C601.139 653.951 600.566 652.129 597.103 650.536C593.641 648.946 587.288 647.58 574.412 645.223C561.536 642.865 542.136 639.515 519.994 637.212C497.853 634.908 472.97 633.654 449.929 631.939C426.888 630.226 405.688 628.053 386.442 627.246C367.197 626.44 349.905 626.998 333.351 627.142C316.796 627.286 300.978 627.019 286.253 626.663C271.527 626.307 257.894 625.866 245.362 625.19C232.83 624.514 221.397 623.603 209.817 622.402C198.237 621.202 186.51 619.712 177.32 618.338C168.13 616.964 161.478 615.704 155.088 615.707C148.697 615.713 142.567 616.981 138.664 617.953C134.761 618.927 133.084 619.605 131.406 620.281" stroke="black" stroke-width="1.2" stroke-miterlimit="22.9256"/>
<path d="M558.502 668.736C559.7 666.421 560.896 664.105 561.072 662.106C561.249 660.108 560.406 658.425 554.977 657.244C549.55 656.064 539.538 655.384 527.441 654.058C515.344 652.732 501.16 650.76 487.721 649.623C474.282 648.488 461.586 648.188 449.173 647.897C436.76 647.608 424.628 647.324 407.943 646.412C391.257 645.499 370.016 643.957 353.003 643.679C335.99 643.402 323.203 644.389 308.769 644.321C294.335 644.255 278.253 643.132 262.901 642.506C247.548 641.883 232.924 641.756 220.426 641.906C207.929 642.058 197.559 642.488 188.151 641.892C178.745 641.296 170.303 639.673 162.905 639.418C155.507 639.164 149.154 640.278 145.12 641.116C141.087 641.955 139.375 642.519 137.662 643.084" stroke="black" stroke-width="1.2" stroke-miterlimit="22.9256"/>
<path d="M504.348 680.8C505.036 679.665 505.725 678.529 505.105 676.706C504.486 674.884 502.558 672.374 492.496 670.492C482.435 668.613 464.236 667.364 441.308 665.984C418.378 664.608 390.717 663.1 365.831 662.531C340.945 661.962 318.835 662.329 299.321 662.958C279.807 663.586 262.889 664.476 249.618 664.591C236.346 664.708 226.721 664.051 215.867 663.75C205.012 663.449 192.928 663.506 184.422 663.787C175.914 664.069 170.983 664.577 165.891 665.437C160.799 666.298 155.545 667.513 152.07 668.432C148.595 669.353 146.899 669.977 145.202 670.603" stroke="black" stroke-width="1.2" stroke-miterlimit="22.9256"/>
<path d="M418.006 700.459C418.614 698.65 419.222 696.839 418.122 695.122C417.023 693.406 414.216 691.781 401.228 690.986C388.24 690.192 365.072 690.226 340.351 690.399C315.629 690.572 289.354 690.884 270.014 691.335C250.674 691.785 238.269 692.373 226.192 693.057C214.116 693.742 202.37 694.523 191.489 694.734C180.609 694.947 170.594 694.59 164.305 695.181C158.016 695.773 155.454 697.311 152.891 698.851" stroke="black" stroke-width="1.2" stroke-miterlimit="22.9256"/>
<path d="M310.794 724.122C313.081 722.387 315.367 720.652 312.674 719.453C309.981 718.253 302.307 717.591 292.901 718.553C283.497 719.517 272.362 722.108 262.096 722.242C251.83 722.374 242.435 720.052 231.005 719.889C219.574 719.727 206.109 721.729 195.261 722.666C184.413 723.605 176.185 723.482 170.865 724.161C165.546 724.841 163.135 726.326 160.725 727.81" stroke="black" stroke-width="1.2" stroke-miterlimit="22.9256"/>
<path d="M229.154 743.869C229.903 742.071 230.652 740.273 229.417 739.878C228.18 739.483 224.96 740.489 219.224 741.478C213.487 742.468 205.235 743.44 198.054 743.289C190.872 743.139 184.762 741.87 180.468 742.104C176.174 742.339 173.695 744.079 171.63 745.343C169.565 746.609 167.915 747.399 166.262 748.189" stroke="black" stroke-width="1.2" stroke-miterlimit="22.9256"/>
<path d="M685.648 99.3775C679.319 100.737 672.99 102.095 664.101 103.5C655.212 104.904 643.763 106.353 632.099 108.167C620.436 109.982 608.558 112.162 597.401 114.526C586.244 116.888 575.81 119.435 567.11 122.388C558.409 125.339 551.443 128.697 543.306 131.661C535.168 134.623 525.858 137.191 514.421 139.41C502.985 141.628 489.422 143.497 478.216 144.751C467.01 146.004 458.162 146.645 446.698 145.435C435.235 144.226 421.158 141.168 408.336 139.152C395.514 137.134 383.948 136.159 373.035 136.225C362.122 136.289 351.863 137.396 343.747 140.143C335.631 142.891 329.66 147.28 323.825 151.113C317.99 154.946 312.29 158.222 307.16 161.166C302.029 164.108 297.466 166.718 293.673 170.325C289.879 173.931 286.856 178.537 282.191 183.704C277.526 188.871 271.221 194.599 264.803 200.529C258.384 206.459 251.853 212.587 243.626 220.544C235.399 228.501 225.476 238.286 215.377 247.762C205.275 257.236 194.998 266.401 185.311 275.677C175.624 284.953 166.53 294.336 155.254 305.869C143.977 317.403 130.52 331.086 119.698 342.48C108.875 353.873 100.688 362.977 93.9604 370.694C87.2331 378.41 81.9658 384.739 78.5959 389.482C75.2249 394.227 73.7504 397.386 72.2759 400.546" stroke="black" stroke-width="1.2" stroke-miterlimit="22.9256"/>
<path d="M681.343 82.5921C678.756 82.7891 676.168 82.9873 669.452 84.3408C662.737 85.6929 651.895 88.201 640.34 90.2347C628.786 92.2672 616.521 93.8259 604.954 95.5279C593.388 97.2285 582.522 99.076 572.578 101.64C562.636 104.203 553.614 107.485 544.16 111.044C534.705 114.603 524.815 118.436 510.832 121.32C496.848 124.202 478.772 126.134 464.002 127.091C449.233 128.046 437.771 128.027 424.45 126.677C411.13 125.329 395.954 122.654 384.486 121.017C373.02 119.381 365.262 118.785 356.32 119.132C347.379 119.476 337.251 120.764 328.732 123.192C320.213 125.62 313.302 129.188 309.728 131.738C306.154 134.286 305.919 135.817 306.346 137.477C306.773 139.136 307.861 140.923 308.973 142.857C310.083 144.791 311.217 146.871 311.188 148.882C311.159 150.893 309.968 152.834 307.466 154.421C304.963 156.007 301.152 157.242 297.788 157.809C294.425 158.376 291.509 158.275 289.251 156.829C286.992 155.384 285.389 152.59 284.214 151.386C283.039 150.18 282.292 150.565 280.601 152.854C278.91 155.144 276.277 159.34 273.412 164.643C270.546 169.946 267.448 176.357 263.032 181.95C258.616 187.542 252.879 192.315 245.463 198.25C238.046 204.183 228.951 211.279 221.13 217.448C213.309 223.617 206.765 228.858 198.202 235.935C189.638 243.014 179.057 251.932 169.697 260.249C160.338 268.566 152.201 276.284 141.135 286.544C130.068 296.804 116.071 309.603 105.41 319.488C94.7497 329.372 87.4245 336.34 81.3373 342.388C75.2493 348.437 70.4008 353.566 67.3026 357.033C64.2033 360.498 62.8558 362.3 61.5068 364.103" stroke="black" stroke-width="1.2" stroke-miterlimit="22.9256"/>
<path d="M681.094 70.2676C677.132 70.8989 673.17 71.5313 663.368 73.4805C653.566 75.4297 637.926 78.6978 623.067 81.6114C608.207 84.5238 594.132 87.085 580.727 89.8708C567.321 92.6566 554.588 95.6691 543.716 98.6984C532.846 101.727 523.839 104.773 514.788 107.336C505.736 109.899 496.64 111.978 488.821 112.782C481.001 113.586 474.457 113.113 465.01 112.823C455.564 112.533 443.216 112.423 432.847 111.69C422.477 110.955 414.085 109.597 407.935 107.932C401.785 106.267 397.876 104.296 393.967 102.325" stroke="black" stroke-width="1.2" stroke-miterlimit="22.9256"/>
<path d="M677.149 55.5268C675.118 55.7129 673.088 55.9003 668.357 56.8257C663.625 57.7499 656.192 59.415 648.352 60.8293C640.512 62.2437 632.266 63.411 624.798 64.2095C617.33 65.0079 610.643 65.4394 600.704 67.2286C590.767 69.0176 577.58 72.164 565.828 74.9679C554.077 77.7715 543.761 80.2327 535.215 83.1281C526.67 86.0231 519.894 89.3511 510.863 90.8006C501.833 92.2513 490.551 91.8232 482.505 91.4484C474.459 91.0735 469.651 90.7503 466.259 90.0987C462.868 89.4467 460.891 88.464 458.916 87.4811" stroke="black" stroke-width="1.2" stroke-miterlimit="22.9256"/>
<path d="M264.483 136.521C263.861 139.412 263.239 142.302 260.651 147.849C258.062 153.396 253.507 161.6 248.897 169.121C244.287 176.642 239.624 183.482 232.99 190.39C226.355 197.295 217.753 204.27 208.853 210.821C199.952 217.372 190.754 223.503 182.274 228.956C173.794 234.408 166.031 239.185 158.975 244.863C151.918 250.539 145.569 257.119 139.3 262.958C133.029 268.797 126.836 273.894 120.379 279.146C113.923 284.396 107.203 289.8 100.066 295.242C92.929 300.685 85.3754 306.167 79.1972 311.098C73.0191 316.028 68.2142 320.405 64.2821 323.766C60.3478 327.124 57.2851 329.463 55.3647 330.891C53.4446 332.317 52.6665 332.832 51.8887 333.346" stroke="black" stroke-width="1.2" stroke-miterlimit="22.9256"/>
<path d="M247.72 140.79C246.519 144.982 245.318 149.173 242.717 154.743C240.115 160.311 236.112 167.259 230.118 173.917C224.124 180.575 216.136 186.944 206.579 194.006C197.021 201.069 185.894 208.826 174.885 216.117C163.875 223.408 152.983 230.232 143.35 236.825C133.716 243.417 125.339 249.775 117.653 255.504C109.966 261.231 102.969 266.331 95.7058 271.902C88.4434 277.473 80.9156 283.516 74.419 288.638C67.9206 293.76 62.4541 297.961 58.1574 301.208C53.8611 304.453 50.7348 306.746 48.7114 308.125C46.6875 309.504 45.7651 309.968 44.8433 310.434" stroke="black" stroke-width="1.2" stroke-miterlimit="22.9256"/>
<path d="M218.224 148.222C217.813 151.086 217.401 153.949 215.741 157.332C214.081 160.713 211.173 164.612 204.558 170.604C197.943 176.595 187.621 184.679 175.43 193.395C163.24 202.112 149.18 211.461 137.057 219.542C124.933 227.622 114.747 234.432 104.743 240.993C94.7379 247.554 84.9165 253.866 76.7939 259.55C68.6716 265.233 62.2493 270.288 56.7776 274.228C51.3058 278.167 46.7868 280.993 43.6692 282.67C40.5516 284.347 38.8362 284.876 37.1196 285.405" stroke="black" stroke-width="1.2" stroke-miterlimit="22.9256"/>
<path d="M158.91 163.049C157.917 166.056 156.923 169.062 153.499 173.414C150.075 177.766 144.218 183.463 137.695 188.935C131.171 194.407 123.979 199.654 115.914 204.995C107.848 210.337 98.9095 215.774 91.509 220.034C84.1086 224.293 78.245 227.377 72.3642 230.974C66.4823 234.57 60.5831 238.681 55.3823 241.967C50.18 245.254 45.6776 247.717 41.5989 249.368C37.5183 251.017 33.8613 251.853 31.5993 252.6C29.3377 253.344 28.4688 253.997 27.6021 254.652" stroke="black" stroke-width="1.2" stroke-miterlimit="22.9256"/>
<path d="M79.9093 182.718C79.2828 186.967 78.656 191.218 75.0696 195.595C71.4825 199.971 64.9363 204.475 58.5477 208.215C52.1581 211.954 45.9265 214.927 40.2257 217.67C34.5246 220.412 29.3528 222.922 25.9584 224.606C22.5637 226.289 20.9463 227.146 19.3271 228.003" stroke="black" stroke-width="1.2" stroke-miterlimit="22.9256"/>
<path d="M23.5197 196.759C22.679 199.508 21.8389 202.26 20.4995 204.326C19.159 206.392 17.3191 207.774 16.1081 208.61C14.8972 209.444 14.3138 209.731 13.73 210.018" stroke="black" stroke-width="1.2" stroke-miterlimit="22.9256"/>
</mask>
<g mask="url(#mask0_957_1987)">
<path d="M325.501 480L575 520.499L575 206.499L516.5 229.499L382 214.499L312 275.5C243.919 352.888 263.5 398.5 263.5 398.5L325.501 480Z" fill="#CBE7E3"/>
</g>
</svg>
