<svg width="256" height="256" viewBox="0 0 256 256" fill="none" xmlns="http://www.w3.org/2000/svg">
<path d="M256.5 195.5C239.461 190.057 201.14 175.184 188.842 168.667C176.543 162.149 168.333 155.852 161.968 149.483C155.603 143.113 151.084 136.67 151.036 127.777C150.989 118.883 155.412 107.54 161.137 100.096C166.863 92.652 173.889 89.1061 184.353 86.0448C194.818 82.9823 208.722 80.4051 220.924 79.0181C233.126 77.6309 245.818 78.2259 255.5 79.0181" stroke="#B6DDD8" stroke-width="1.2" stroke-miterlimit="22.9256"/>
<path d="M256 224C234.655 220.155 199.089 210.306 182.999 206.044C166.908 201.782 158.097 199.196 147.802 194.768C137.507 190.341 125.727 184.073 116.068 178.069C106.411 172.066 98.8777 166.327 93.0689 159.165C87.2592 152.005 83.1744 143.424 81.861 134.157C80.547 124.891 82.0036 114.94 85.823 104.855C89.6422 94.7708 95.8246 84.5525 104.094 76.2676C112.362 67.9819 122.717 61.6294 132.311 57.3964C141.906 53.1643 150.737 51.0497 160.969 49.5367C171.2 48.0225 182.831 47.1079 193.278 47.2639C203.724 47.419 212.986 48.6447 220.614 49.2082C228.243 49.7727 248.76 45.836 256 45" stroke="#B6DDD8" stroke-width="1.2" stroke-miterlimit="22.9256"/>
<path d="M256 253C236 253 209.5 250.48 174 247C97.5002 239.5 49.9799 201.497 39.9998 192C30.0198 182.503 24.4812 176.967 18.4999 165C10.7343 149.463 8.80288 140.5 10.5001 122C15.5 67.5 46.692 38.9552 66.346 27.2281C85.9999 15.501 104.5 13.5 104.5 13.5C104.5 13.5 135.354 8.17247 151 9.5C166.646 10.8264 188.5 15.001 206.5 13.5C224.5 11.999 235 9.5 257 1.5" stroke="#B6DDD8" stroke-width="1.2" stroke-miterlimit="22.9256"/>
</svg>
