<svg width="496" height="400" viewBox="0 0 496 400" fill="none" xmlns="http://www.w3.org/2000/svg">
<path d="M-253.594 111.334C-247.736 110.27 -241.878 109.207 -233.098 108.237C-224.316 107.265 -212.611 106.39 -197.335 105.592C-182.059 104.795 -163.21 104.077 -146.109 104.233C-129.008 104.389 -113.653 105.421 -100.348 106.029C-87.0442 106.635 -75.7915 106.818 -64.2633 107.487C-52.7362 108.155 -40.9354 109.308 -28.009 111.505C-15.0825 113.701 -1.03005 116.942 16.525 121.029C34.0787 125.117 55.136 130.051 75.4169 136.529C95.6975 143.005 115.201 151.027 129.838 158.782C144.477 166.539 154.248 174.033 161.824 181.613C169.399 189.194 174.778 196.862 174.833 207.446C174.89 218.031 169.624 231.531 162.81 240.391C155.995 249.251 147.632 253.472 135.177 257.116C122.721 260.761 106.172 263.829 91.6493 265.48C77.1259 267.131 64.6311 267.367 53.1072 266.425C41.5826 265.483 31.0299 263.363 21.149 262.698C11.2685 262.033 2.0591 262.823 -9.86021 265.832C-21.7792 268.842 -36.4084 274.072 -51.9663 279.342C-67.5235 284.613 -84.011 289.922 -97.8318 294.286C-111.653 298.651 -122.808 302.068 -133.598 305.711C-144.387 309.354 -154.81 313.221 -162.685 315.964C-170.561 318.707 -175.887 320.324 -179.966 321.514C-184.043 322.706 -186.873 323.468 -189.702 324.231" stroke="#B6DDD8" stroke-width="1.2" stroke-miterlimit="22.9256"/>
<path d="M-190.241 94.1139C-180.28 92.385 -170.319 90.6562 -152.289 88.4742C-134.259 86.2913 -108.162 83.6566 -89.1226 82.6534C-70.0854 81.6495 -58.1079 82.2797 -47.2359 83.0901C-36.3649 83.8995 -26.5997 84.8928 -16.0726 85.0664C-5.54581 85.2389 5.74069 84.5921 22.8818 85.3143C40.0221 86.0341 63.0156 88.1233 88.4204 92.6987C113.826 97.274 141.642 104.336 160.793 109.407C179.945 114.479 190.431 117.556 202.684 122.826C214.938 128.094 228.959 135.553 240.454 142.699C251.948 149.843 260.914 156.674 267.827 165.197C274.742 173.718 279.603 183.932 281.166 194.96C282.729 205.989 280.995 217.831 276.448 229.835C271.902 241.837 264.543 253.998 254.701 263.859C244.859 273.721 232.534 281.282 221.115 286.32C209.695 291.358 199.183 293.875 187.005 295.676C174.827 297.478 160.984 298.567 148.551 298.382C136.118 298.198 125.094 296.74 116.015 296.069C106.935 295.398 99.7987 295.514 91.1814 296.51C82.5644 297.506 72.4654 299.384 59.5102 302.861C46.5554 306.339 30.7443 311.416 18.4026 314.96C6.06008 318.503 -2.81197 320.512 -11.524 322.484C-20.2367 324.456 -28.7887 326.391 -36.7474 328.739C-44.7073 331.085 -52.0745 333.843 -62.6898 336.724C-73.3062 339.604 -87.1727 342.605 -96.2757 344.455C-105.378 346.305 -109.717 347.002 -114.056 347.699" stroke="#B6DDD8" stroke-width="1.2" stroke-miterlimit="22.9256"/>
<path d="M-105.753 4.07129C-82.5576 4.9369 -59.3631 5.80251 -41.635 7.95078C-23.9069 10.0978 -12.531 47.311 0.499979 50.5C46.5 50.5 116.5 50.1613 170.5 58C232.5 67 279.5 73.2904 311 93.5C327.465 104.064 360.5 120.5 374.5 141.5C400.167 180 385.5 225 374.5 245.5C360.5 268 354.5 277 339 291C316 308 296.5 323.896 237.5 318.895C220.51 317.455 220 318.895 197 315.895C171.5 313.895 157.462 317.868 130.5 325.472C85 338.306 94.5 344 -0.999996 362" stroke="#B6DDD8" stroke-width="1.2" stroke-miterlimit="22.9256"/>
<path d="M-0.000206134 12.041C37.9998 9.50032 79.4998 12.041 125.018 17.4147C168.5 19 280.5 31.5 307.5 36.5C325.5 39.8333 355.5 42.5 380 57.5C395.663 64.4862 416.735 80.2808 429.885 89.5C443.036 98.7192 454.5 107.5 465.5 126C492 180.5 473.5 212 468.5 227.5C425 315 369.879 349.64 357.5 355.185C345.121 360.732 337.5 367.221 291 355.185C261 347.419 253.5 349.266 240.5 349.266C210.5 351.5 177 353.001 120 376.5C75.5 390.5 59.5 399.5 -0.500009 399.5" stroke="#B6DDD8" stroke-miterlimit="22.9256"/>
</svg>
