<svg width="690" height="821" viewBox="0 0 690 821" fill="none" xmlns="http://www.w3.org/2000/svg">
<mask id="mask0_957_1956" style="mask-type:alpha" maskUnits="userSpaceOnUse" x="-254" y="44" width="931" height="695">
<path d="M-253.594 328.334C-247.736 327.27 -241.878 326.207 -233.098 325.237C-224.316 324.265 -212.611 323.39 -197.335 322.592C-182.059 321.795 -163.21 321.077 -146.109 321.233C-129.008 321.389 -113.653 322.421 -100.348 323.029C-87.0442 323.635 -75.7915 323.818 -64.2633 324.487C-52.7362 325.155 -40.9354 326.308 -28.009 328.505C-15.0825 330.701 -1.03005 333.942 16.525 338.029C34.0787 342.117 55.136 347.051 75.4169 353.529C95.6975 360.005 115.201 368.027 129.838 375.782C144.477 383.539 154.248 391.033 161.824 398.613C169.399 406.194 174.778 413.862 174.833 424.446C174.89 435.031 169.624 448.531 162.81 457.391C155.995 466.251 147.632 470.472 135.177 474.116C122.721 477.761 106.172 480.829 91.6493 482.48C77.1259 484.131 64.6311 484.367 53.1072 483.425C41.5826 482.483 31.0299 480.363 21.149 479.698C11.2685 479.033 2.0591 479.823 -9.86021 482.832C-21.7792 485.842 -36.4084 491.072 -51.9663 496.342C-67.5235 501.613 -84.011 506.922 -97.8318 511.286C-111.653 515.651 -122.808 519.068 -133.598 522.711C-144.387 526.354 -154.81 530.221 -162.685 532.964C-170.561 535.707 -175.887 537.324 -179.966 538.514C-184.043 539.706 -186.873 540.468 -189.702 541.231" stroke="black" stroke-width="1.2" stroke-miterlimit="22.9256"/>
<path d="M-190.241 311.114C-180.28 309.385 -170.319 307.656 -152.289 305.474C-134.259 303.291 -108.162 300.657 -89.1226 299.653C-70.0854 298.649 -58.1079 299.28 -47.2359 300.09C-36.3649 300.899 -26.5997 301.893 -16.0726 302.066C-5.54581 302.239 5.74069 301.592 22.8818 302.314C40.0221 303.034 63.0156 305.123 88.4204 309.699C113.826 314.274 141.642 321.336 160.793 326.407C179.945 331.479 190.431 334.556 202.684 339.826C214.938 345.094 228.959 352.553 240.454 359.699C251.948 366.843 260.914 373.674 267.827 382.197C274.742 390.718 279.603 400.932 281.166 411.96C282.729 422.989 280.995 434.831 276.448 446.835C271.902 458.837 264.543 470.998 254.701 480.859C244.859 490.721 232.534 498.282 221.115 503.32C209.695 508.358 199.183 510.875 187.005 512.676C174.827 514.478 160.984 515.567 148.551 515.382C136.118 515.198 125.094 513.74 116.015 513.069C106.935 512.398 99.7987 512.514 91.1814 513.51C82.5644 514.506 72.4654 516.384 59.5102 519.861C46.5554 523.339 30.7443 528.416 18.4026 531.96C6.06008 535.503 -2.81197 537.512 -11.524 539.484C-20.2367 541.456 -28.7887 543.391 -36.7474 545.739C-44.7073 548.085 -52.0745 550.843 -62.6898 553.724C-73.3062 556.604 -87.1727 559.605 -96.2757 561.455C-105.378 563.305 -109.717 564.002 -114.056 564.699" stroke="black" stroke-width="1.2" stroke-miterlimit="22.9256"/>
<path d="M-137.204 279.963C-114.389 275.692 -91.5746 271.422 -73.8091 269.608C-56.044 267.792 -43.3289 268.435 -29.9155 268.672C-16.5018 268.91 -2.39007 268.744 11.1674 268.667C24.7252 268.593 37.7279 268.606 52.1364 268.513C66.5452 268.422 82.3579 268.221 98.8604 268.992C115.362 269.761 132.551 271.501 147.491 273.011C162.429 274.522 175.115 275.801 187.063 277.234C199.009 278.664 210.216 280.246 226.097 283.424C241.978 286.603 262.533 291.38 280.923 298.053C299.312 304.726 315.536 313.296 328.38 320.964C341.224 328.632 350.687 335.401 359.311 343.227C367.936 351.052 375.722 359.935 381.04 370.735C386.36 381.536 389.214 394.252 388.858 408.322C388.502 422.393 384.939 437.817 378.643 452.883C372.349 467.95 363.323 482.66 353.582 494.328C343.84 505.994 333.381 514.619 321.124 521.223C308.868 527.826 294.813 532.409 277.925 534.75C261.035 537.092 241.311 537.19 225.368 536.076C209.424 534.964 197.262 532.64 184.203 533.054C171.144 533.471 157.19 536.626 142.71 540.45C128.228 544.274 113.221 548.768 102.382 552.314C91.5428 555.86 84.873 558.458 71.0309 562.062C57.1895 565.668 36.1767 570.277 20.0346 573.926C3.89168 577.576 -7.38128 580.267 -16.2695 582.31C-25.1562 584.355 -31.6582 585.756 -35.9516 586.693C-40.2461 587.631 -42.3312 588.109 -44.4167 588.586" stroke="black" stroke-width="1.2" stroke-miterlimit="22.9256"/>
<path d="M-126.753 239.054C-119.729 237.361 -112.705 235.669 -103.101 233.963C-93.4978 232.258 -81.3156 230.54 -61.9365 229.635C-42.5581 228.729 -15.9844 228.633 7.96285 228.893C31.9097 229.152 53.2281 229.762 76.7609 231.186C100.293 232.61 126.039 234.845 148.067 236.7C170.096 238.556 188.407 240.032 208.022 241.953C227.637 243.873 248.556 246.237 268.392 248.698C288.227 251.159 306.979 253.716 323.796 257.082C340.613 260.447 355.493 264.616 370.35 270.712C385.209 276.808 400.042 284.829 414.402 294.662C428.762 304.494 442.649 316.139 451.965 325.849C461.283 335.559 466.032 343.332 469.772 352.374C473.512 361.417 476.245 371.729 477.359 383.29C478.474 394.852 477.972 407.665 475.793 419.675C473.613 431.685 469.755 442.892 463.787 454.946C457.82 466.999 449.743 479.899 440.786 492.334C431.828 504.766 421.988 516.734 411.312 527.931C400.638 539.129 389.13 549.555 378.276 557.689C367.423 565.827 357.223 571.673 349.273 575.905C341.324 580.136 335.623 582.754 328.546 582.8C321.47 582.849 313.017 580.326 304.133 577.755C295.249 575.184 285.932 572.563 276.693 570.662C267.455 568.762 258.292 567.581 247.67 566.936C237.048 566.293 224.967 566.186 210.636 568.004C196.306 569.821 179.727 573.565 166.355 577.338C152.984 581.111 142.821 584.914 131.826 588.887C120.833 592.862 109.011 597.01 96.0306 600.235C83.051 603.462 68.9136 605.769 54.7093 608.312C40.5034 610.855 26.231 613.636 15.0744 615.608C3.91701 617.579 -4.12349 618.743 -12.1648 619.906" stroke="black" stroke-miterlimit="22.9256"/>
<path d="M-130.509 222.812C-125.348 221.096 -120.186 219.379 -113.614 216.944C-107.043 214.507 -99.0613 211.349 -89.9071 208.132C-80.7531 204.913 -70.4257 201.635 -61.1141 200.21C-51.804 198.785 -43.5075 199.215 -32.7647 200.854C-22.0214 202.493 -8.82964 205.34 8.35734 207.896C25.5436 210.45 46.724 212.712 64.206 214.977C81.688 217.241 95.4694 219.506 110.631 221.977C125.793 224.446 142.335 227.122 160.358 228.681C178.381 230.239 197.886 230.681 218.388 231.674C238.89 232.668 260.389 234.214 279.33 235.779C298.273 237.346 314.656 238.93 333.401 241.336C352.148 243.743 373.253 246.971 391.902 250.348C410.552 253.724 426.744 257.247 438.944 260.997C451.143 264.746 459.349 268.717 468.822 274.843C478.297 280.968 489.04 289.246 496.48 297.576C503.92 305.904 508.058 314.287 511.975 321.365C515.892 328.444 519.586 334.219 522.269 341.012C524.951 347.805 526.621 355.617 528.011 364.476C529.402 373.337 530.513 383.247 529.764 394.186C529.015 405.125 526.408 417.094 522.214 427.184C518.02 437.277 512.24 445.489 505.647 454.391C499.054 463.294 491.647 472.883 484.539 482.619C477.432 492.356 470.624 502.24 464.019 510.678C457.414 519.115 451.011 526.106 444.047 533.635C437.084 541.164 429.558 549.231 422.077 557.728C414.597 566.225 407.162 575.155 399.801 581.083C392.441 587.012 385.156 589.941 378.894 592.877C372.632 595.814 367.394 598.758 363.814 602.411C360.235 606.064 358.315 610.426 348.871 614.522C339.429 618.618 322.463 622.448 311.616 624.422C300.769 626.397 296.042 626.516 290.215 625.527C284.389 624.54 277.463 622.446 270.601 620.982C263.737 619.519 256.937 618.686 249.183 617.795C241.429 616.904 232.722 615.953 222.174 616.166C211.627 616.379 199.238 617.753 186.39 620.144C173.542 622.537 160.235 625.947 148.756 629.146C137.279 632.347 127.631 635.339 117.967 637.993C108.303 640.65 98.6244 642.971 88.0919 645.144C77.5606 647.319 66.1767 649.347 54.2763 651.355C42.3765 653.364 29.96 655.355 21.079 657.04C12.1969 658.724 6.8483 660.102 1.50083 661.481" stroke="black" stroke-width="1.2" stroke-miterlimit="22.9256"/>
<path d="M-135.338 204.348C-130.354 202.884 -125.372 201.418 -119.902 198.353C-114.432 195.289 -108.476 190.623 -99.9542 186.632C-91.4335 182.641 -80.3487 179.325 -70.1343 177.358C-59.9196 175.391 -50.5751 174.771 -41.0078 175.458C-31.442 176.145 -21.6519 178.136 -7.6322 181.036C6.38642 183.935 24.6368 187.744 44.7493 191.097C64.8604 194.451 86.836 197.35 104.625 199.907C122.412 202.466 136.012 204.681 153.566 206.545C171.119 208.41 192.626 209.925 214.364 211.472C236.102 213.02 258.075 214.602 279.694 215.888C301.315 217.173 322.584 218.161 344.808 219.768C367.031 221.373 390.211 223.594 410.54 226.885C430.869 230.174 448.347 234.532 466.218 240.053C484.09 245.573 502.353 252.254 517.122 260.897C531.89 269.538 543.163 280.139 551.492 287.883C559.821 295.625 565.205 300.509 569.3 304.929C573.396 309.348 576.203 313.305 579.563 316.414C582.923 319.523 586.838 321.782 589.321 325.23C591.805 328.677 592.858 333.309 591.921 341.648C590.984 349.988 588.058 362.035 584.401 375.194C580.745 388.352 576.361 402.625 567.653 417.942C558.945 433.259 545.913 449.619 533.268 465.283C520.622 480.946 508.363 495.913 498.453 507.095C488.544 518.279 480.985 525.678 473.304 532.953C465.622 540.229 457.819 547.384 449.713 555.652C441.607 563.92 433.198 573.303 425.812 579.866C418.427 586.427 412.064 590.168 406.275 594.118C400.486 598.067 395.27 602.223 390.705 608.405C386.142 614.586 382.227 622.789 376.879 628.065C371.532 633.34 364.75 635.684 355.424 637.924C346.101 640.166 334.236 642.303 324.463 643.153C314.691 644.005 307.011 643.57 299.04 642.387C291.068 641.205 282.805 639.277 274.976 637.69C267.148 636.104 259.752 634.86 249.181 634.366C238.608 633.872 224.858 634.131 210.934 635.716C197.009 637.301 182.91 640.213 169.66 643.407C156.411 646.603 144.013 650.079 130.999 653.628C117.983 657.176 104.351 660.795 90.9807 664.153C77.6112 667.511 64.5016 670.607 53.2116 672.818C41.9215 675.028 32.4492 676.353 25.26 677.664C18.0712 678.975 13.1649 680.271 8.25868 681.567" stroke="black" stroke-width="1.2" stroke-miterlimit="22.9256"/>
<path d="M4.73106 152.088C2.00272 154.123 -0.725615 156.158 -2.02092 158.389C-3.31695 160.62 -3.1803 163.046 2.38921 165.723C7.95763 168.399 18.9593 171.328 28.7925 173.147C38.6257 174.966 47.2904 175.678 59.3817 177.083C71.4719 178.487 86.9868 180.583 102.338 182.772C117.687 184.959 132.87 187.239 152.702 190.138C172.533 193.037 197.012 196.555 219.436 198.654C241.861 200.754 262.231 201.433 284.363 202.122C306.494 202.811 330.389 203.511 348.494 204.078C366.598 204.643 378.914 205.077 398.153 207.285C417.391 209.493 443.552 213.472 467.027 217.652C490.502 221.831 511.291 226.209 527.013 230.292C542.735 234.375 553.393 238.164 561.332 241.328C569.271 244.493 574.492 247.032 579.714 249.573" stroke="black" stroke-width="1.2" stroke-miterlimit="22.9256"/>
<path d="M54.4015 141.345C52.4965 143.598 50.592 145.852 49.4453 148.24C48.2983 150.627 47.9097 153.146 51.0393 155C54.1685 156.852 60.8178 158.037 71.689 159.449C82.5608 160.862 97.6563 162.5 117.137 165.017C136.618 167.534 160.483 170.925 181.857 173.307C203.231 175.686 222.112 177.056 242.992 179.077C263.872 181.1 286.751 183.773 311.567 185.31C336.385 186.847 363.138 187.245 381.959 186.822C400.778 186.399 411.663 185.156 426.853 186.537C442.043 187.916 461.538 191.924 477.972 195.173C494.407 198.421 507.779 200.913 519.563 202.972C531.347 205.033 541.54 206.659 549.222 206.847C556.904 207.035 562.073 205.782 567.242 204.529" stroke="black" stroke-width="1.2" stroke-miterlimit="22.9256"/>
<path d="M93.1019 132.938C91.4695 134.441 89.8368 135.943 89.3083 137.605C88.7781 139.267 89.3506 141.088 92.8138 142.681C96.2755 144.271 102.628 145.636 115.504 147.993C128.38 150.35 147.78 153.7 169.922 156.002C192.063 158.305 216.946 159.558 239.987 161.272C263.029 162.984 284.229 165.156 303.474 165.962C322.72 166.768 340.012 166.21 356.566 166.064C373.121 165.92 388.938 166.187 403.663 166.542C418.389 166.897 432.022 167.337 444.555 168.014C457.087 168.689 468.52 169.6 480.1 170.8C491.679 172 503.406 173.489 512.596 174.863C521.787 176.237 528.438 177.496 534.829 177.492C541.22 177.486 547.349 176.218 551.253 175.246C555.156 174.272 556.833 173.594 558.511 172.918" stroke="black" stroke-width="1.2" stroke-miterlimit="22.9256"/>
<path d="M131.415 124.481C130.217 126.795 129.021 129.111 128.844 131.11C128.668 133.107 129.51 134.79 134.939 135.971C140.366 137.151 150.379 137.831 162.476 139.156C174.573 140.482 188.756 142.453 202.195 143.589C215.634 144.723 228.33 145.023 240.743 145.313C253.156 145.603 265.288 145.886 281.973 146.798C298.66 147.709 319.9 149.251 336.913 149.529C353.927 149.805 366.714 148.817 381.148 148.884C395.582 148.951 411.663 150.072 427.016 150.698C442.369 151.321 456.992 151.447 469.49 151.297C481.988 151.144 492.358 150.714 501.766 151.31C511.172 151.905 519.613 153.528 527.011 153.783C534.409 154.036 540.763 152.922 544.797 152.084C548.83 151.244 550.542 150.68 552.255 150.116" stroke="black" stroke-width="1.2" stroke-miterlimit="22.9256"/>
<path d="M185.568 112.415C184.881 113.55 184.192 114.686 184.812 116.509C185.431 118.331 187.358 120.841 197.42 122.722C207.482 124.6 225.68 125.849 248.608 127.228C271.538 128.604 299.199 130.11 324.085 130.678C348.971 131.246 371.081 130.878 390.595 130.249C410.109 129.62 427.027 128.729 440.299 128.614C453.57 128.497 463.195 129.153 474.049 129.454C484.904 129.754 496.988 129.697 505.494 129.416C514.002 129.134 518.933 128.626 524.025 127.765C529.118 126.904 534.371 125.689 537.846 124.77C541.322 123.849 543.018 123.225 544.715 122.599" stroke="black" stroke-width="1.2" stroke-miterlimit="22.9256"/>
<path d="M271.911 92.7543C271.303 94.5631 270.695 96.3731 271.795 98.0901C272.894 99.8059 275.701 101.431 288.688 102.226C301.677 103.019 324.844 102.984 349.565 102.81C374.287 102.636 400.562 102.323 419.902 101.872C439.243 101.421 451.648 100.833 463.725 100.148C475.801 99.463 487.547 98.682 498.428 98.4702C509.308 98.2573 519.323 98.6137 525.612 98.0221C531.901 97.4304 534.463 95.8921 537.026 94.3523" stroke="black" stroke-width="1.2" stroke-miterlimit="22.9256"/>
<path d="M379.123 69.0883C376.836 70.8233 374.549 72.5581 377.242 73.7571C379.936 74.9574 387.61 75.619 397.016 74.6565C406.42 73.6918 417.555 71.1007 427.821 70.9667C438.087 70.834 447.481 73.1563 458.912 73.3182C470.343 73.48 483.808 71.478 494.656 70.5403C505.503 69.6012 513.732 69.7241 519.051 69.0441C524.371 68.3642 526.782 66.8799 529.192 65.3958" stroke="black" stroke-width="1.2" stroke-miterlimit="22.9256"/>
<path d="M460.763 49.3404C460.014 51.1375 459.265 52.9359 460.5 53.3304C461.737 53.726 464.957 52.7193 470.693 51.7305C476.43 50.7404 484.682 49.7683 491.863 49.9185C499.045 50.0683 505.155 51.3378 509.449 51.1031C513.743 50.8684 516.222 49.128 518.288 47.8641C520.352 46.5979 522.003 45.8083 523.655 45.0183" stroke="black" stroke-width="1.2" stroke-miterlimit="22.9256"/>
<path d="M4.26232 693.834C10.5915 692.474 16.9203 691.116 25.8101 689.711C34.6992 688.307 46.1475 686.857 57.8125 685.043C69.4756 683.227 81.353 681.047 92.5102 678.683C103.667 676.321 114.101 673.774 122.802 670.821C131.503 667.869 138.469 664.511 146.607 661.547C154.744 658.585 164.054 656.017 175.492 653.798C186.928 651.579 200.49 649.711 211.697 648.456C222.903 647.203 231.751 646.562 243.215 647.771C254.678 648.979 268.755 652.037 281.577 654.052C294.398 656.069 305.964 657.044 316.878 656.978C327.79 656.913 338.05 655.806 346.166 653.059C354.282 650.31 360.253 645.922 366.089 642.089C371.924 638.255 377.624 634.98 382.754 632.036C387.885 629.094 392.448 626.484 396.242 622.877C400.035 619.271 403.059 614.665 407.724 609.499C412.389 604.331 418.695 598.603 425.113 592.673C431.532 586.744 438.063 580.616 446.291 572.659C454.518 564.702 464.441 554.918 474.541 545.442C484.643 535.968 494.921 526.803 504.608 517.528C514.295 508.253 523.391 498.869 534.667 487.337C545.944 475.803 559.402 462.121 570.224 450.727C581.048 439.334 589.235 430.231 595.963 422.514C602.691 414.798 607.958 408.469 611.329 403.726C614.7 398.982 616.175 395.822 617.649 392.663" stroke="black" stroke-width="1.2" stroke-miterlimit="22.9256"/>
<path d="M8.56763 710.62C11.1555 710.423 13.743 710.224 20.4589 708.871C27.1744 707.518 38.0165 705.01 49.571 702.976C61.1259 700.943 73.3907 699.384 84.9572 697.682C96.5233 695.981 107.39 694.133 117.334 691.569C127.276 689.006 136.298 685.724 145.753 682.165C155.207 678.606 165.097 674.772 179.081 671.888C193.065 669.006 211.141 667.073 225.911 666.116C240.68 665.161 252.142 665.179 265.463 666.528C278.783 667.876 293.96 670.551 305.427 672.187C316.893 673.822 324.651 674.418 333.593 674.071C342.534 673.726 352.662 672.438 361.181 670.01C369.701 667.582 376.611 664.014 380.185 661.464C383.759 658.916 383.995 657.385 383.568 655.725C383.141 654.066 382.053 652.28 380.942 650.346C379.831 648.412 378.698 646.332 378.726 644.321C378.756 642.31 379.947 640.37 382.448 638.783C384.952 637.196 388.763 635.962 392.126 635.394C395.49 634.828 398.406 634.928 400.664 636.374C402.922 637.819 404.526 640.612 405.7 641.817C406.875 643.022 407.623 642.637 409.313 640.348C411.005 638.058 413.638 633.863 416.503 628.56C419.369 623.257 422.468 616.846 426.884 611.254C431.301 605.662 437.037 600.89 444.454 594.955C451.871 589.021 460.967 581.925 468.787 575.756C476.609 569.588 483.153 564.347 491.717 557.27C500.281 550.192 510.862 541.274 520.222 532.957C529.582 524.64 537.719 516.922 548.785 506.663C559.853 496.403 573.85 483.604 584.512 473.72C595.173 463.836 602.499 456.868 608.586 450.82C614.674 444.771 619.523 439.642 622.621 436.176C625.721 432.711 627.068 430.909 628.417 429.106" stroke="black" stroke-width="1.2" stroke-miterlimit="22.9256"/>
<path d="M8.8228 722.945C12.7853 722.313 16.7468 721.681 26.5489 719.732C36.351 717.782 51.9916 714.514 66.8505 711.6C81.7098 708.687 95.7849 706.126 109.19 703.34C122.596 700.554 135.33 697.541 146.201 694.512C157.072 691.483 166.078 688.437 175.13 685.874C184.182 683.311 193.277 681.232 201.097 680.428C208.916 679.623 215.461 680.096 224.907 680.386C234.353 680.676 246.702 680.785 257.071 681.518C267.441 682.252 275.832 683.61 281.982 685.275C288.132 686.939 292.041 688.909 295.95 690.88" stroke="black" stroke-width="1.2" stroke-miterlimit="22.9256"/>
<path d="M12.7683 737.684C14.7989 737.497 16.8292 737.31 21.5603 736.384C26.2917 735.46 33.7247 733.795 41.5648 732.381C49.4049 730.966 57.6511 729.799 65.1194 729C72.5868 728.201 79.2741 727.77 89.2125 725.98C99.1501 724.191 112.337 721.045 124.089 718.241C135.84 715.437 146.156 712.975 154.702 710.08C163.247 707.185 170.024 703.857 179.054 702.408C188.084 700.957 199.366 701.384 207.413 701.759C215.458 702.133 220.266 702.456 223.658 703.108C227.049 703.76 229.026 704.742 231.001 705.725" stroke="black" stroke-width="1.2" stroke-miterlimit="22.9256"/>
<path d="M425.428 656.688C426.05 653.797 426.672 650.908 429.26 645.36C431.85 639.813 436.405 631.61 441.015 624.088C445.626 616.568 450.29 609.728 456.923 602.82C463.559 595.915 472.161 588.94 481.062 582.389C489.963 575.837 499.162 569.707 507.642 564.253C516.123 558.801 523.886 554.025 530.942 548.346C537.999 542.67 544.348 536.09 550.618 530.251C556.89 524.413 563.083 519.315 569.54 514.063C575.996 508.813 582.717 503.409 589.854 497.967C596.991 492.524 604.545 487.042 610.724 482.112C616.902 477.181 621.707 472.804 625.64 469.444C629.574 466.086 632.637 463.746 634.558 462.318C636.478 460.892 637.256 460.377 638.034 459.863" stroke="black" stroke-width="1.2" stroke-miterlimit="22.9256"/>
<path d="M442.193 652.42C443.394 648.228 444.595 644.037 447.197 638.467C449.798 632.899 453.802 625.952 459.796 619.293C465.791 612.635 473.779 606.267 483.336 599.204C492.894 592.141 504.022 584.384 515.031 577.093C526.042 569.802 536.934 562.977 546.568 556.384C556.203 549.793 564.58 543.434 572.266 537.705C579.953 531.979 586.951 526.878 594.214 521.307C601.477 515.737 609.005 509.694 615.502 504.571C622.001 499.449 627.467 495.248 631.764 492.001C636.061 488.756 639.187 486.463 641.211 485.084C643.235 483.705 644.157 483.241 645.079 482.775" stroke="black" stroke-width="1.2" stroke-miterlimit="22.9256"/>
<path d="M471.689 644.987C472.1 642.123 472.512 639.261 474.172 635.877C475.833 632.497 478.741 628.598 485.357 622.606C491.972 616.614 502.294 608.531 514.485 599.814C526.676 591.098 540.736 581.749 552.86 573.667C564.984 565.587 575.171 558.777 585.175 552.216C595.18 545.656 605.002 539.343 613.125 533.659C621.248 527.977 627.67 522.921 633.142 518.982C638.614 515.042 643.133 512.216 646.251 510.539C649.369 508.862 651.084 508.333 652.801 507.804" stroke="black" stroke-width="1.2" stroke-miterlimit="22.9256"/>
<path d="M531.004 630.16C531.998 627.152 532.992 624.146 536.416 619.795C539.841 615.443 545.697 609.746 552.221 604.274C558.745 598.802 565.938 593.556 574.003 588.214C582.069 582.872 591.008 577.436 598.408 573.176C605.809 568.916 611.673 565.832 617.554 562.235C623.436 558.639 629.335 554.528 634.536 551.242C639.739 547.955 644.241 545.492 648.32 543.842C652.401 542.192 656.058 541.356 658.32 540.609C660.582 539.865 661.451 539.212 662.317 538.557" stroke="black" stroke-width="1.2" stroke-miterlimit="22.9256"/>
<path d="M610.007 610.49C610.633 606.241 611.26 601.991 614.847 597.614C618.434 593.238 624.981 588.734 631.369 584.994C637.759 581.255 643.991 578.282 649.692 575.539C655.393 572.797 660.565 570.287 663.96 568.603C667.354 566.92 668.972 566.063 670.591 565.206" stroke="black" stroke-width="1.2" stroke-miterlimit="22.9256"/>
<path d="M666.396 596.451C667.237 593.701 668.078 590.95 669.417 588.883C670.758 586.818 672.598 585.435 673.809 584.599C675.02 583.765 675.603 583.478 676.187 583.191" stroke="black" stroke-width="1.2" stroke-miterlimit="22.9256"/>
</mask>
<g mask="url(#mask0_957_1956)">
<path d="M-0.527989 227.5L-0.527998 461.999L-0.527979 630.999L98.0001 614.999L208.5 583.999L387 583.999C455.081 506.61 514 421.999 514 421.999C514 421.999 478.5 303.498 384 263.999C289.5 224.499 -0.527989 227.5 -0.527989 227.5Z" fill="#CBE7E3"/>
</g>
</svg>
