<svg width="531" height="562" viewBox="0 0 531 562" fill="none" xmlns="http://www.w3.org/2000/svg">
<mask id="mask0_957_1925" style="mask-type:alpha" maskUnits="userSpaceOnUse" x="1" y="1" width="683" height="559">
<path d="M680.841 183.285C665.402 184.71 649.962 186.133 627.877 190.749C605.791 195.363 577.058 203.167 553.875 210.901C530.692 218.635 513.057 226.296 493.776 233.087C474.494 239.878 453.565 245.798 438.606 250.919C423.649 256.037 414.661 260.355 406.329 265.34C397.997 270.323 390.32 275.971 382.306 282.253C374.292 288.537 365.939 295.454 358.009 301.69C350.078 307.925 342.568 313.478 343.274 317.395C343.978 321.313 352.899 323.596 361.928 323.311C370.957 323.026 380.095 320.178 389.95 320.144C399.806 320.112 410.377 322.898 422.541 323.742C434.706 324.587 448.465 323.49 459.16 322.121C469.857 320.751 477.493 319.11 488.249 319.942C499.007 320.773 512.884 324.079 526.859 326.038C540.835 328 554.906 328.618 565.492 329.936C576.079 331.255 583.179 333.277 593.767 334.472C604.354 335.669 618.429 336.042 630.916 337.622C643.405 339.204 654.309 341.993 662.087 343.541C669.867 345.089 674.522 345.399 679.179 345.708" stroke="black" stroke-miterlimit="22.9256"/>
<path d="M641.393 219.5C637.223 220.29 633.053 221.081 626.776 222.537C620.499 223.994 612.115 226.118 604.06 228.366C596.006 230.613 588.282 232.985 581.684 234.391C575.088 235.798 569.619 236.236 564.1 237.53C558.581 238.822 553.011 240.972 550.069 245.161C547.129 249.348 546.818 255.576 544.457 259.648C542.097 263.72 537.689 265.633 533.063 268.645C528.437 271.657 523.593 275.768 527.131 277.877C530.671 279.987 542.592 280.096 551.634 282.486C560.676 284.877 566.838 289.55 574.348 291.927C581.859 294.305 590.717 294.386 599.057 296.489C607.399 298.594 615.222 302.724 621.238 305.418C627.255 308.113 631.465 309.374 634.367 310.025C637.269 310.677 638.864 310.72 640.459 310.763" stroke="black" stroke-miterlimit="22.9256"/>
<path d="M683.932 140.76C673.762 141.139 663.592 141.517 645.45 143.054C627.31 144.59 601.199 147.285 582.41 150.078C563.622 152.869 552.158 155.76 541.819 158.599C531.481 161.436 522.269 164.224 512.086 166.422C501.903 168.62 490.75 170.229 474.292 174.204C457.835 178.177 436.075 184.517 412.673 193.561C389.269 202.604 364.225 214.351 347.041 222.626C329.857 230.902 320.533 235.704 310.11 242.819C299.686 249.934 288.163 259.361 279.007 268.016C269.851 276.669 263.063 284.55 258.749 293.555C254.433 302.558 252.59 312.683 254.184 322.902C255.777 333.121 260.804 343.432 268.611 353.341C276.417 363.25 287.003 372.756 299.352 379.711C311.702 386.668 325.816 391.074 338.337 393.388C350.859 395.701 361.787 395.924 374.132 395.181C386.478 394.438 400.241 392.731 412.274 390.152C424.307 387.574 434.61 384.123 443.246 381.759C451.882 379.393 458.852 378.114 467.509 377.336C476.166 376.56 486.512 376.289 500.085 376.901C513.659 377.514 530.461 379.011 543.457 379.802C556.454 380.593 565.644 380.677 574.669 380.759C583.694 380.841 592.553 380.922 600.952 381.488C609.351 382.053 617.29 383.103 628.421 383.633C639.553 384.163 653.878 384.17 663.249 384.067C672.618 383.964 677.032 383.748 681.447 383.534" stroke="black" stroke-miterlimit="22.9256"/>
<path d="M673.513 104.302C666.785 104.152 660.058 104.003 651.018 104.303C641.978 104.604 630.627 105.356 613.046 108.067C595.465 110.778 571.655 115.446 550.288 119.941C528.921 124.434 509.998 128.75 489.305 134.136C468.613 139.522 446.15 145.977 426.916 151.452C407.682 156.928 391.676 161.425 374.619 166.524C357.562 171.622 339.452 177.321 322.339 182.908C305.225 188.494 289.107 193.966 274.93 199.764C260.753 205.561 248.52 211.679 236.808 219.392C225.094 227.106 213.905 236.412 203.611 247.136C193.317 257.861 183.918 270.006 178.106 279.728C172.294 289.45 170.066 296.748 169.072 304.919C168.077 313.092 168.315 322.136 170.327 331.929C172.337 341.722 176.121 352.264 181.198 361.841C186.275 371.418 192.645 380.028 201.123 388.963C209.601 397.899 220.188 407.16 231.442 415.878C242.696 424.594 254.618 432.767 267.087 440.15C279.556 447.535 292.57 454.13 304.403 458.941C316.235 463.754 326.886 466.782 335.103 468.874C343.319 470.964 349.103 472.118 355.449 470.892C361.796 469.668 368.706 466.064 375.989 462.343C383.271 458.623 390.929 454.783 398.703 451.555C406.478 448.328 414.371 445.71 423.711 443.277C433.051 440.846 443.837 438.599 457.137 437.546C470.437 436.494 486.25 436.638 499.201 437.379C512.151 438.121 522.238 439.461 533.113 440.794C543.987 442.127 555.649 443.457 568.106 443.814C580.563 444.173 593.818 443.561 607.194 443.133C620.571 442.705 634.07 442.463 644.569 442.105C655.069 441.748 662.568 441.276 670.069 440.805" stroke="black" stroke-miterlimit="22.9256"/>
<path d="M681.937 70.5014C678.333 70.5807 674.729 70.6611 666.431 70.3666C658.134 70.0709 645.141 69.4025 634.009 68.9642C622.878 68.5271 613.606 68.3201 603.569 70.0621C593.533 71.8029 582.732 75.4915 572.39 78.6973C562.05 81.9009 552.168 84.6205 542.335 86.7256C532.502 88.8308 522.717 90.3192 513.21 92.9221C503.703 95.5229 494.474 99.2348 484.456 103.182C474.438 107.127 463.633 111.303 449.138 115.815C434.643 120.326 416.461 125.169 397.7 129.855C378.939 134.541 359.601 139.068 341.205 144.521C322.81 149.974 305.357 156.352 289.905 161.435C274.451 166.517 261 170.303 245.541 176.027C230.081 181.751 212.615 189.411 198.728 197.318C184.84 205.224 174.531 213.379 166.879 220.883C159.225 228.389 154.229 235.247 150.293 241.534C146.359 247.821 143.484 253.538 141.796 258.758C140.108 263.978 139.603 268.704 138 275.653C136.397 282.603 133.695 291.777 132.803 300.035C131.912 308.292 132.83 315.63 136.308 325.711C139.786 335.793 145.823 348.617 154.953 360.644C164.082 372.67 176.304 383.899 190.095 395.572C203.886 407.243 219.245 419.358 234.086 429.574C248.926 439.789 263.248 448.107 274.301 453.324C285.352 458.54 293.134 460.657 301.52 463.497C309.906 466.338 318.894 469.902 328.516 472.311C338.137 474.721 348.392 475.973 357.166 476.267C365.939 476.561 373.232 475.894 381.747 473.177C390.262 470.461 399.998 465.696 408.68 461.865C417.362 458.034 424.99 455.139 433.032 453.12C441.074 451.1 449.531 449.954 460.272 449.137C471.012 448.319 484.035 447.826 497.208 448.007C510.381 448.188 523.703 449.043 534.5 449.875C545.297 450.707 553.569 451.515 564.078 452.1C574.588 452.685 587.334 453.046 600.335 452.92C613.336 452.794 626.59 452.182 637.442 451.669C648.293 451.158 656.743 450.747 663.11 450.499C669.479 450.252 673.764 450.17 678.051 450.087" stroke="black" stroke-miterlimit="22.9256"/>
<path d="M682.165 45.4751C676.644 44.9276 671.123 44.3801 664.022 43.4569C656.922 42.5325 648.241 41.2302 638.4 40.1024C628.559 38.9735 617.556 38.0191 608.07 38.543C598.585 39.0668 590.615 41.0711 580.602 44.6446C570.589 48.2191 558.53 53.3628 542.492 59.0211C526.454 64.6772 506.437 70.8468 490.029 76.2986C473.62 81.7505 460.821 86.4823 446.734 91.6692C432.646 96.8549 417.272 102.496 400.135 107.415C382.998 112.332 364.099 116.531 344.385 121.42C324.671 126.311 304.14 131.895 286.11 136.999C268.079 142.104 252.549 146.726 234.949 152.552C217.347 158.379 197.678 165.408 180.447 172.093C163.214 178.778 148.421 185.117 137.586 190.884C126.751 196.65 119.874 201.84 112.371 209.225C104.868 216.609 96.7374 226.189 91.8434 235.171C86.9495 244.153 85.2911 252.54 83.4786 259.705C81.6662 266.87 79.7013 272.813 79.0118 279.48C78.323 286.146 78.9097 293.537 80.0667 301.821C81.2236 310.106 82.9516 319.286 86.7847 329.034C90.6177 338.782 96.5559 349.1 103.508 357.41C110.462 365.722 118.428 372.025 127.384 378.793C136.339 385.562 146.284 392.793 155.979 400.215C165.672 407.638 175.116 415.252 183.951 421.599C192.787 427.944 201.015 433.021 209.943 438.475C218.87 443.929 228.498 449.76 238.205 455.989C247.911 462.218 257.696 468.848 266.556 472.776C275.417 476.706 283.353 477.937 290.293 479.373C297.234 480.81 303.178 482.453 307.706 485.06C312.233 487.668 315.343 491.24 325.715 493.105C336.087 494.971 353.72 495.132 364.86 494.807C376 494.481 380.644 493.668 386.047 491.639C391.45 489.611 397.61 486.37 403.888 483.709C410.167 481.05 416.563 478.972 423.873 476.656C431.183 474.341 439.406 471.786 449.755 469.924C460.102 468.064 472.575 466.894 485.785 466.556C498.995 466.219 512.941 466.712 525.044 467.371C537.146 468.031 547.405 468.859 557.583 469.378C567.762 469.9 577.861 470.114 588.75 470.029C599.639 469.946 611.317 469.564 623.493 469.063C635.67 468.563 648.345 467.946 657.485 467.741C666.626 467.535 672.233 467.74 677.84 467.946" stroke="black" stroke-miterlimit="22.9256"/>
<path d="M682.332 28.563C677.058 28.2096 671.785 27.854 665.582 26.1478C659.38 24.4417 652.249 21.3828 642.809 19.4338C633.369 17.4838 621.621 16.6438 611.104 16.853C600.586 17.0634 591.299 18.3218 582.166 20.8048C573.033 23.2877 564.052 26.9929 551.205 32.3438C538.358 37.6936 521.643 44.689 502.983 51.6353C484.325 58.5815 463.72 65.4797 447.101 71.254C430.483 77.0294 417.85 81.6787 401.263 86.7811C384.677 91.8836 364.137 97.4392 343.38 103.069C322.623 108.699 301.648 114.407 280.932 119.777C260.216 125.147 239.758 130.18 218.544 135.958C197.331 141.734 175.359 148.254 156.471 155.186C137.582 162.117 121.776 169.458 105.916 177.928C90.0561 186.397 74.1434 195.992 62.1934 206.68C50.2442 217.367 42.2578 229.145 36.3326 237.767C30.4065 246.387 26.5417 251.85 23.8022 256.644C21.062 261.436 19.4465 265.56 17.0522 269.024C14.6571 272.489 11.481 275.293 10.0366 278.893C8.59223 282.493 8.87881 286.886 12.157 294.242C15.4351 301.6 21.7041 311.921 29.0007 323.106C36.2965 334.29 44.6176 346.341 57.4516 358.493C70.2848 370.646 87.63 382.9 104.402 394.6C121.172 406.298 137.369 417.443 150.202 425.624C163.035 433.806 172.503 439.024 182.056 444.105C191.608 449.188 201.246 454.137 211.493 460.035C221.741 465.932 232.601 472.778 241.663 477.273C250.724 481.768 257.989 483.912 264.753 486.356C271.517 488.799 277.782 491.541 283.985 496.241C290.188 500.941 296.33 507.595 303.04 511.324C309.75 515.052 317.028 515.851 326.755 516.061C336.481 516.273 348.656 515.896 358.426 514.762C368.196 513.631 375.561 511.742 382.998 509.121C390.435 506.502 397.945 503.15 405.129 500.191C412.312 497.234 419.17 494.67 429.338 492.166C439.506 489.661 452.986 487.219 467.013 485.942C481.039 484.664 495.613 484.552 509.437 484.861C523.261 485.172 536.335 485.901 550.031 486.576C563.728 487.251 578.046 487.87 592.035 488.303C606.023 488.737 619.683 488.984 631.318 488.785C642.953 488.586 652.564 487.94 659.945 487.725C667.327 487.512 672.478 487.729 677.629 487.945" stroke="black" stroke-miterlimit="22.9256"/>
<path d="M533.215 5.82484C536.422 7.10281 539.628 8.38077 541.503 10.1092C543.38 11.8377 543.925 14.0155 539.286 17.4654C534.649 20.9142 524.828 25.6362 515.827 29.1485C506.826 32.6607 498.646 34.9655 487.345 38.5466C476.046 42.1266 461.628 46.9818 447.395 51.8869C433.163 56.791 419.116 61.7451 400.748 68.1464C382.381 74.5466 359.691 82.394 338.593 88.5863C317.494 94.7796 297.986 99.3155 276.776 104.201C255.567 109.085 232.656 114.321 215.307 118.319C197.957 122.317 186.17 125.08 168.181 130.754C150.194 136.427 126.007 145.008 104.474 153.248C82.94 161.488 64.059 169.386 49.9953 176.043C35.9317 182.701 26.683 188.119 19.8892 192.458C13.0954 196.798 8.75633 200.059 4.41576 203.321" stroke="black" stroke-miterlimit="22.9256"/>
<path d="M482.585 5.36348C485.052 6.98538 487.519 8.6084 489.291 10.4957C491.063 12.382 492.139 14.5314 489.632 16.7717C487.125 19.0108 481.032 21.3396 470.925 24.6841C460.818 28.0286 446.693 32.3877 428.578 38.3681C410.462 44.3485 388.356 51.9469 368.374 58.1731C348.392 64.397 330.537 69.2488 310.932 75.0617C291.327 80.8758 269.974 87.6499 246.432 93.7941C222.89 99.9395 197.16 105.452 178.864 108.709C160.57 111.966 149.711 112.968 135.424 117.118C121.136 121.266 103.421 128.566 88.4522 134.605C73.4825 140.644 61.2601 145.423 50.4518 149.515C39.6428 153.608 30.2503 157.011 22.8829 158.658C15.5155 160.306 10.1749 160.197 4.83353 160.087" stroke="black" stroke-miterlimit="22.9256"/>
<path d="M443.156 5.00417C445.149 6.01205 447.141 7.0188 448.112 8.37907C449.085 9.73823 449.038 11.4509 446.138 13.5195C443.238 15.5858 437.487 18.0114 425.715 22.5669C413.943 27.1224 396.152 33.809 375.424 40.1025C354.696 46.396 331.031 52.2954 309.272 58.2447C287.512 64.1929 267.656 70.19 249.308 74.6091C230.96 79.0281 214.118 81.8702 198.103 84.9333C182.087 87.9976 166.897 91.2817 152.786 94.433C138.673 97.5842 125.64 100.599 113.733 103.61C101.827 106.62 91.047 109.625 80.205 112.913C69.3636 116.201 58.4601 119.771 49.973 122.752C41.4851 125.732 35.416 128.122 29.2477 129.351C23.0787 130.577 16.812 130.643 12.7757 130.54C8.73857 130.436 6.93259 130.163 5.12509 129.892" stroke="black" stroke-miterlimit="22.9256"/>
<path d="M404.089 4.64796C405.885 6.44743 407.68 8.24803 408.403 9.96692C409.127 11.6847 408.78 13.323 403.871 15.405C398.964 17.4848 389.496 20.0106 378.197 23.5038C366.898 26.997 353.765 31.4589 341.12 35.0443C328.473 38.6286 316.313 41.3376 304.422 43.9839C292.531 46.6291 280.91 49.2149 265.071 53.2295C249.232 57.2442 229.174 62.6888 212.844 66.2102C196.513 69.7305 183.908 71.3276 170.007 74.1679C156.105 77.007 140.907 81.0893 126.275 84.5959C111.641 88.1003 97.5732 91.0289 85.4786 93.3048C73.3841 95.5785 63.264 97.1994 54.3567 99.5348C45.4501 101.869 37.7586 104.919 30.6944 106.568C23.6303 108.215 17.1943 108.462 13.072 108.504C8.9505 108.545 7.1434 108.381 5.33478 108.216" stroke="black" stroke-miterlimit="22.9256"/>
<path d="M348.866 4.14422C349.843 5.00387 350.82 5.86353 350.725 7.57536C350.632 9.28607 349.468 11.8501 340.29 15.431C331.113 19.0096 313.921 23.6051 292.206 29.2247C270.49 34.8419 244.25 41.4844 220.426 46.7733C196.601 52.0612 175.193 55.9978 156.215 59.2059C137.236 62.414 120.688 64.8936 107.867 67.3489C95.0454 69.8019 85.9514 72.2282 75.5749 74.5811C65.1977 76.9339 53.5373 79.2109 45.2624 80.603C36.986 81.9951 32.0937 82.501 26.9493 82.7294C21.8043 82.9577 16.4065 82.9084 12.8039 82.7743C9.20056 82.6391 7.39398 82.4203 5.58589 82.2004" stroke="black" stroke-miterlimit="22.9256"/>
<path d="M260.752 3.33934C261.836 4.79812 262.921 6.25801 262.334 7.96566C261.748 9.67219 259.492 11.6287 247.202 14.821C234.91 18.0122 212.586 22.4414 188.727 27.0487C164.868 31.6561 139.475 36.4416 120.723 39.7716C101.97 43.1015 89.8597 44.977 78.0389 46.7056C66.2189 48.4331 54.6902 50.0137 44.1516 51.9238C33.6137 53.8327 24.0659 56.0711 17.8457 56.7662C11.6256 57.4613 8.73384 56.6143 5.84061 55.7662" stroke="black" stroke-miterlimit="22.9256"/>
<path d="M151.549 3.14657C154.226 4.2111 156.903 5.27562 154.64 6.83356C152.377 8.39262 145.173 10.4428 135.856 11.4179C126.54 12.3908 115.112 12.2863 105.196 14.1453C95.2787 16.0055 86.8745 19.8268 75.9175 22.1666C64.9605 24.5063 51.4514 25.361 40.754 26.6349C30.0559 27.9077 22.1702 29.5975 16.8639 30.0314C11.5576 30.4652 8.82991 29.642 6.10295 28.8187" stroke="black" stroke-miterlimit="22.9256"/>
<path d="M67.9876 1.57802C69.2009 2.98987 70.4149 4.40285 69.3342 4.98206C68.2526 5.56237 64.8786 5.31005 59.0873 5.55726C53.296 5.80335 45.0883 6.54897 38.2199 8.06005C31.35 9.57112 25.8187 11.8454 21.6226 12.4681C17.4264 13.0907 14.5639 12.0606 12.2296 11.3636C9.89617 10.6644 8.09103 10.2983 6.28436 9.93213" stroke="black" stroke-miterlimit="22.9256"/>
<path d="M677.689 501.226C671.211 501.255 664.734 501.284 655.775 501.767C646.816 502.249 635.378 503.185 623.63 503.843C611.884 504.499 599.83 504.878 588.42 504.957C577.01 505.037 566.246 504.816 557.041 503.906C547.836 502.997 540.192 501.398 531.527 500.37C522.862 499.343 513.176 498.887 501.536 499.147C489.897 499.407 476.304 500.383 465.153 501.443C454.002 502.504 445.294 503.647 434.577 506.914C423.86 510.181 411.133 515.57 399.329 519.805C387.525 524.041 376.644 527.123 366.104 529.167C355.565 531.212 345.368 532.219 336.783 531.377C328.199 530.533 321.229 527.84 314.543 525.607C307.857 523.374 301.456 521.603 295.696 520.013C289.935 518.425 284.814 517.018 280.16 514.59C275.505 512.162 271.316 508.711 265.39 505.085C259.464 501.458 251.8 497.656 243.973 493.699C236.144 489.743 228.153 485.634 218.021 480.25C207.889 474.866 195.617 468.209 183.259 461.855C170.899 455.504 158.456 449.457 146.552 443.2C134.648 436.943 123.285 430.477 109.224 422.549C95.1623 414.62 78.4041 405.23 64.8199 397.335C51.2343 389.442 40.8234 383.047 32.2034 377.585C23.5834 372.123 16.7551 367.595 12.1944 364.09C7.63214 360.584 5.33682 358.102 3.0415 355.619" stroke="black" stroke-miterlimit="22.9256"/>
<path d="M677.538 518.152C674.99 518.478 672.443 518.804 665.599 518.915C658.755 519.028 647.617 518.926 635.924 519.376C624.23 519.826 611.984 520.827 600.37 521.568C588.757 522.311 577.778 522.79 567.49 522.467C557.203 522.144 547.606 521.016 537.515 519.731C527.424 518.445 516.838 517.003 502.569 517.178C488.302 517.354 470.353 519.148 455.858 521.157C441.365 523.166 430.327 525.39 417.865 529.132C405.403 532.873 391.518 538.13 380.921 541.765C370.324 545.401 363.014 547.414 354.303 548.833C345.593 550.254 335.48 551.079 326.602 550.6C317.724 550.121 310.082 548.338 305.935 546.8C301.789 545.264 301.139 543.974 301.093 542.443C301.047 540.913 301.603 539.144 302.14 537.242C302.677 535.341 303.195 533.307 302.613 531.557C302.03 529.807 300.347 528.343 297.499 527.44C294.65 526.537 290.637 526.193 287.24 526.346C283.843 526.499 281.061 527.148 279.285 528.844C277.507 530.541 276.733 533.287 275.933 534.565C275.134 535.843 274.307 535.651 272.047 533.978C269.786 532.306 266.092 529.151 261.869 525.074C257.645 520.997 252.891 515.999 247.094 511.968C241.296 507.938 234.453 504.877 225.67 501.125C216.888 497.374 206.167 492.932 196.931 489.053C187.693 485.176 179.943 481.861 169.74 477.333C159.537 472.804 146.882 467.058 135.57 461.601C124.258 456.143 114.29 450.975 100.798 444.151C87.3043 437.327 70.2885 428.851 57.2901 422.277C44.2924 415.702 35.3127 411.031 27.7794 406.924C20.2453 402.817 14.1591 399.274 10.2179 396.845C6.27591 394.418 4.48051 393.104 2.68359 391.791" stroke="black" stroke-miterlimit="22.9256"/>
<path d="M677.485 530.76C673.509 530.984 669.534 531.207 659.593 531.43C649.652 531.653 633.747 531.875 618.689 532.249C603.631 532.623 589.421 533.146 575.793 533.349C562.165 533.552 549.121 533.433 537.861 532.941C526.601 532.449 517.127 531.585 507.741 531.141C498.354 530.697 489.056 530.673 481.329 531.492C473.603 532.31 467.446 533.971 458.453 536.035C449.461 538.099 437.633 540.567 427.874 543.186C418.115 545.806 410.425 548.578 404.97 551.18C399.515 553.782 396.295 556.213 393.075 558.646" stroke="black" stroke-miterlimit="22.9256"/>
<path d="M677.354 544.281C675.356 544.514 673.357 544.746 668.569 544.874C663.78 545.002 656.2 545.024 648.297 545.337C640.393 545.649 632.167 546.248 624.786 547.01C617.407 547.771 610.874 548.693 600.857 549.092C590.84 549.491 577.34 549.367 565.31 549.256C553.28 549.146 542.72 549.049 533.74 548.245C524.762 547.44 517.364 545.929 508.309 546.441C499.255 546.951 488.545 549.484 480.925 551.349C473.307 553.214 468.78 554.413 465.701 555.617C462.623 556.82 460.991 558.032 459.36 559.243" stroke="black" stroke-miterlimit="22.9256"/>
<path d="M263.91 557.251C262.494 554.786 261.078 552.321 257.008 547.859C252.937 543.398 246.213 536.94 239.627 531.104C233.042 525.268 226.595 520.052 218.22 515.156C209.843 510.263 199.539 505.689 189.065 501.551C178.59 497.413 167.945 493.709 158.187 490.473C148.429 487.237 139.556 484.467 131.117 480.753C122.676 477.041 114.669 472.383 106.946 468.374C99.2221 464.365 91.7828 461.003 84.044 457.555C76.3059 454.108 68.2682 450.575 59.8164 447.087C51.3638 443.6 42.4963 440.158 35.1178 436.943C27.7393 433.728 21.8484 430.743 17.0899 428.498C12.3299 426.255 8.70155 424.755 6.43759 423.85C4.17438 422.946 3.2748 422.636 2.37598 422.327" stroke="black" stroke-miterlimit="22.9256"/>
<path d="M246.218 557.08C243.88 553.575 241.541 550.071 237.46 545.608C233.379 541.146 227.554 535.727 219.881 530.95C212.208 526.173 202.685 522.04 191.447 517.592C180.209 513.143 167.255 508.379 154.548 504.009C141.839 499.638 129.375 495.66 118.195 491.645C107.015 487.632 97.1184 483.583 88.0668 479.961C79.016 476.342 70.808 473.149 62.2107 469.587C53.614 466.024 44.628 462.093 36.8989 458.782C29.1683 455.473 22.6953 452.784 17.623 450.721C12.5514 448.658 8.88052 447.219 6.53366 446.38C4.18679 445.543 3.16321 445.308 2.13965 445.07" stroke="black" stroke-miterlimit="22.9256"/>
<path d="M215.449 556.787C214.25 554.323 213.052 551.859 210.5 549.175C207.948 546.493 204.045 543.592 195.97 539.548C187.895 535.504 175.65 530.318 161.419 524.931C147.189 519.544 130.973 513.956 116.985 509.12C102.996 504.285 91.2378 500.204 79.7253 496.31C68.2119 492.415 56.9454 488.706 47.498 485.226C38.0515 481.748 30.4249 478.499 24.0299 476.056C17.6348 473.614 12.4728 471.977 8.98775 471.09C5.50273 470.202 3.69548 470.065 1.88672 469.926" stroke="black" stroke-miterlimit="22.9256"/>
<path d="M154.025 556.184C152.227 553.714 150.428 551.245 145.906 548.054C141.382 544.863 134.133 540.95 126.303 537.366C118.472 533.782 110.058 530.526 100.774 527.354C91.4887 524.182 81.3336 521.095 72.9933 518.753C64.653 516.411 58.1259 514.812 51.4392 512.764C44.7517 510.716 37.9037 508.215 31.9609 506.31C26.0165 504.406 20.9781 503.094 16.5758 502.42C12.172 501.748 8.40432 501.713 6.00997 501.489C3.61637 501.267 2.59452 500.856 1.57422 500.444" stroke="black" stroke-miterlimit="22.9256"/>
<path d="M72.5571 555.405C70.7637 551.755 68.9695 548.103 64.2774 544.911C59.5846 541.719 51.9937 538.985 44.7689 536.899C37.5434 534.815 30.6846 533.379 24.4036 532.045C18.1226 530.712 12.4186 529.483 8.66455 528.644C4.91049 527.806 3.1064 527.357 1.30078 526.91" stroke="black" stroke-miterlimit="22.9256"/>
<path d="M14.4251 554.84C12.8257 552.519 11.2264 550.196 9.33456 548.589C7.44192 546.983 5.256 546.092 3.83826 545.572C2.42127 545.054 1.77094 544.908 1.12061 544.763" stroke="black" stroke-miterlimit="22.9256"/>
</mask>
<g mask="url(#mask0_957_1925)">
<path d="M154.5 291L546.5 291L546.5 444.324L489.231 444.324L438.223 450.244L349.181 474.382L271.303 450.245C159 394.5 154.5 291 154.5 291Z" fill="#B6DDD8"/>
</g>
</svg>
