<svg width="484" height="645" viewBox="0 0 484 645" fill="none" xmlns="http://www.w3.org/2000/svg">
<mask id="mask0_957_2329" style="mask-type:alpha" maskUnits="userSpaceOnUse" x="7" y="12" width="693" height="615">
<path d="M656.949 332.094C644.028 329.206 631.108 326.317 611.934 324.298C592.76 322.278 567.332 321.127 546.43 321.375C525.528 321.623 509.152 323.27 491.672 323.77C474.191 324.271 455.606 323.625 442.084 323.892C428.564 324.158 420.106 325.336 412.003 327.232C403.9 329.128 396.15 331.74 387.956 334.783C379.762 337.828 371.123 341.303 363.01 344.33C354.897 347.357 347.308 349.935 346.83 353.331C346.351 356.727 352.984 360.941 360.392 363.08C367.801 365.218 375.987 365.284 383.999 367.845C392.011 370.407 399.849 375.468 409.501 379.355C419.153 383.243 430.62 385.959 439.674 387.646C448.728 389.333 455.369 389.994 463.881 393.501C472.395 397.008 482.777 403.363 493.601 408.64C504.424 413.919 515.686 418.122 523.929 421.983C532.173 425.845 537.397 429.367 545.674 433.128C553.951 436.89 565.281 440.893 574.998 445.468C584.716 450.045 592.822 455.195 598.724 458.507C604.627 461.82 608.324 463.296 612.023 464.772" stroke="black" stroke-miterlimit="22.9256"/>
<path d="M661.353 318.774C656.444 317.351 651.535 315.929 644.17 314.301C636.805 312.672 626.982 310.839 614.158 308.727C601.334 306.614 585.508 304.222 571.14 302.705C556.772 301.189 543.86 300.547 532.675 299.76C521.492 298.972 512.036 298.038 502.344 297.471C492.652 296.903 482.724 296.701 471.839 297.235C460.954 297.768 449.11 299.038 434.313 300.654C419.518 302.272 401.769 304.237 384.655 307.524C367.54 310.81 351.06 315.42 338.672 320.282C326.282 325.146 317.983 330.264 311.53 335.664C305.076 341.063 300.466 346.745 300.293 355.295C300.12 363.846 304.383 375.265 310.002 383.081C315.622 390.898 322.597 395.113 333.017 399.255C343.438 403.399 357.305 407.469 369.485 410.199C381.667 412.93 392.161 414.321 401.853 414.667C411.546 415.012 420.436 414.313 428.745 414.725C437.053 415.137 444.781 416.66 454.758 420.238C464.735 423.816 476.963 429.45 489.971 435.205C502.977 440.96 516.765 446.836 528.324 451.692C539.883 456.548 549.214 460.383 558.235 464.364C567.255 468.345 575.966 472.472 582.548 475.447C589.132 478.42 593.588 480.239 597 481.593C600.412 482.948 602.78 483.836 605.147 484.725" stroke="black" stroke-miterlimit="22.9256"/>
<path d="M652.291 297.697C643.934 295.338 635.578 292.979 620.44 289.477C605.303 285.974 583.385 281.329 567.384 278.685C551.385 276.04 541.304 275.399 532.15 275.01C522.997 274.62 514.772 274.486 505.916 273.615C497.061 272.742 487.576 271.132 473.151 270.069C458.726 269.004 439.362 268.486 417.94 269.751C396.518 271.015 373.038 274.063 356.87 276.331C340.701 278.599 331.844 280.085 321.475 283.177C311.105 286.269 299.223 290.965 289.469 295.651C279.716 300.336 272.092 305.009 266.175 311.251C260.257 317.492 256.045 325.302 254.597 334.09C253.149 342.877 254.465 352.641 258.144 362.807C261.822 372.971 267.865 383.535 276.024 392.473C284.182 401.411 294.457 408.724 304 413.906C313.544 419.086 322.354 422.137 332.575 424.768C342.795 427.4 354.425 429.614 364.884 430.66C375.343 431.706 384.632 431.585 392.277 431.915C399.921 432.244 405.922 433.024 413.157 434.66C420.393 436.296 428.864 438.789 439.718 442.853C450.571 446.918 463.808 452.553 474.145 456.612C484.483 460.671 491.921 463.151 499.224 465.587C506.528 468.023 513.697 470.415 520.363 473.082C527.029 475.749 533.192 478.693 542.085 482.049C550.979 485.404 562.606 489.17 570.239 491.544C577.872 493.919 581.513 494.901 585.154 495.884" stroke="black" stroke-miterlimit="22.9256"/>
<path d="M681.425 258.449C676.007 256.562 670.588 254.676 663.173 252.55C655.759 250.427 646.347 248.065 631.356 245.673C616.365 243.282 595.795 240.859 577.254 238.934C558.713 237.008 542.203 235.579 523.969 234.56C505.736 233.542 485.78 232.935 468.707 232.373C451.633 231.811 437.441 231.294 422.235 230.994C407.029 230.694 390.807 230.61 375.424 230.695C360.042 230.779 345.496 231.031 332.44 232.059C319.383 233.086 307.817 234.886 296.246 238.128C284.674 241.37 273.1 246.053 261.873 252.132C250.645 258.211 239.763 265.687 232.44 272.12C225.117 278.554 221.352 283.943 218.355 290.371C215.356 296.8 213.124 304.266 212.131 312.808C211.136 321.352 211.379 330.974 212.93 340.144C214.481 349.314 217.341 358.033 221.823 367.57C226.306 377.108 232.412 387.465 239.205 397.552C245.998 407.638 253.48 417.454 261.617 426.767C269.753 436.083 278.544 444.894 286.854 451.935C295.163 458.977 302.993 464.249 309.099 468.116C315.204 471.982 319.588 474.443 325.066 475.104C330.543 475.767 337.116 474.629 344.022 473.493C350.929 472.358 358.171 471.223 365.344 470.619C372.518 470.017 379.624 469.944 387.854 470.402C396.084 470.861 405.438 471.851 416.511 474.477C427.584 477.104 440.375 481.369 450.684 485.372C460.992 489.376 468.817 493.118 477.283 497.06C485.748 501.004 494.852 505.15 504.864 508.71C514.875 512.27 525.793 515.245 536.76 518.403C547.728 521.561 558.745 524.903 567.36 527.363C575.974 529.824 582.186 531.405 588.397 532.987" stroke="black" stroke-miterlimit="22.9256"/>
<path d="M687.65 239.751C684.705 238.871 681.76 237.991 675.107 235.574C668.454 233.156 658.093 229.202 649.179 225.924C640.265 222.647 632.798 220.047 624.188 218.84C615.579 217.633 605.827 217.82 596.577 217.732C587.329 217.642 578.583 217.277 570.04 216.422C561.498 215.566 553.161 214.218 544.749 213.856C536.339 213.491 527.856 214.109 518.67 214.713C509.485 215.315 499.598 215.9 486.629 215.791C473.66 215.682 457.61 214.879 441.132 213.794C424.655 212.71 407.752 211.344 391.365 210.983C374.979 210.623 359.109 211.266 345.21 211.374C331.31 211.482 319.381 211.053 305.304 211.684C291.227 212.316 275.003 214.005 261.616 216.835C248.229 219.664 237.678 223.635 229.458 227.771C221.236 231.907 215.343 236.21 210.465 240.324C205.586 244.438 201.721 248.364 198.952 252.194C196.182 256.023 194.506 259.759 191.342 265.027C188.178 270.295 183.526 277.096 180.588 283.62C177.651 290.145 176.428 296.392 176.547 305.555C176.665 314.72 178.124 326.799 182.307 339.037C186.488 351.274 193.393 363.671 201.452 376.841C209.511 390.011 218.723 403.954 228.025 416.207C237.325 428.46 246.715 439.024 254.283 446.192C261.85 453.36 267.596 457.134 273.638 461.657C279.68 466.181 286.017 471.455 293.177 475.951C300.336 480.446 308.32 484.161 315.36 486.701C322.399 489.243 328.494 490.609 336.131 490.619C343.767 490.628 352.945 489.281 361.015 488.423C369.086 487.563 376.051 487.194 383.117 487.65C390.184 488.106 397.352 489.386 406.285 491.534C415.218 493.681 425.916 496.693 436.554 500.295C447.193 503.898 457.772 508.091 466.308 511.603C474.845 515.116 481.339 517.946 489.709 521.18C498.079 524.415 508.323 528.053 518.904 531.359C529.486 534.666 540.403 537.641 549.345 540.067C558.286 542.494 565.251 544.373 570.484 545.84C575.717 547.308 579.216 548.364 582.716 549.42" stroke="black" stroke-miterlimit="22.9256"/>
<path d="M694.433 219.283C690.102 217.387 685.769 215.491 680.256 212.874C674.743 210.255 668.05 206.913 660.369 203.41C652.688 199.905 644.018 196.239 636.181 194.18C628.346 192.122 621.343 191.672 612.262 191.971C603.18 192.271 592.018 193.319 577.489 193.745C562.961 194.168 545.068 193.969 530.295 194.129C515.521 194.288 503.869 194.805 491.05 195.356C478.231 195.906 464.245 196.491 449.023 196.024C433.803 195.555 417.345 194.036 400.04 192.868C382.735 191.702 364.582 190.888 348.586 190.337C332.59 189.787 318.751 189.499 302.911 189.652C287.069 189.805 269.227 190.4 253.455 191.354C237.683 192.306 223.982 193.615 213.645 195.494C203.309 197.372 196.338 199.816 188.272 203.893C180.205 207.97 171.04 213.678 164.661 219.746C158.283 225.814 154.688 232.244 151.297 237.633C147.905 243.022 144.718 247.37 142.371 252.646C140.025 257.921 138.519 264.124 137.236 271.208C135.953 278.292 134.894 286.259 135.39 295.242C135.886 304.225 137.936 314.227 141.349 322.852C144.761 331.478 149.534 338.725 154.985 346.614C160.435 354.501 166.564 363.027 172.439 371.644C178.313 380.261 183.932 388.97 189.398 396.481C194.865 403.991 200.179 410.304 205.96 417.109C211.739 423.913 217.987 431.21 224.192 438.854C230.396 446.497 236.556 454.489 242.691 460.028C248.825 465.567 254.934 468.655 260.179 471.651C265.424 474.647 269.806 477.551 272.781 480.871C275.754 484.192 277.319 487.932 285.234 492.178C293.148 496.425 307.41 501.181 316.535 503.835C325.659 506.49 329.645 507.042 334.573 506.799C339.499 506.556 345.366 505.518 351.172 504.987C356.98 504.457 362.726 504.433 369.277 504.455C375.828 504.476 383.184 504.541 392.079 505.731C400.972 506.922 411.405 509.235 422.212 512.422C433.019 515.61 444.201 519.671 453.843 523.384C463.484 527.098 471.585 530.465 479.703 533.559C487.821 536.655 495.956 539.478 504.813 542.265C513.669 545.051 523.246 547.801 533.259 550.584C543.271 553.368 553.719 556.187 561.189 558.416C568.66 560.644 573.154 562.282 577.647 563.921" stroke="black" stroke-miterlimit="22.9256"/>
<path d="M699.015 205.386C694.831 203.713 690.648 202.039 686.073 199.016C681.499 195.993 676.534 191.62 669.397 187.549C662.262 183.477 652.956 179.709 644.367 177.122C635.778 174.536 627.905 173.131 619.829 172.768C611.754 172.406 603.474 173.083 591.616 174.094C579.759 175.104 564.323 176.446 547.321 177.238C530.321 178.031 511.754 178.274 496.722 178.642C481.691 179.011 470.196 179.504 455.371 179.33C440.546 179.157 422.392 178.318 404.042 177.483C385.692 176.648 367.144 175.819 348.898 174.782C330.65 173.745 312.703 172.5 293.943 171.666C275.183 170.831 255.609 170.406 238.426 171.126C221.244 171.846 206.451 173.71 191.313 176.483C176.175 179.256 160.692 182.936 148.131 188.551C135.57 194.164 125.933 201.71 118.814 207.214C111.695 212.715 107.094 216.173 103.586 219.378C100.078 222.582 97.6616 225.534 94.79 227.742C91.9179 229.95 88.5891 231.412 86.4519 233.98C84.3148 236.548 83.3695 240.218 84.0565 247.099C84.7433 253.981 87.0618 264.073 89.9825 275.141C92.9026 286.209 96.4224 298.254 103.576 311.566C110.729 324.879 121.516 339.457 131.985 353.431C142.455 367.405 152.607 380.774 160.825 390.835C169.042 400.897 175.325 407.651 181.712 414.316C188.1 420.981 194.591 427.559 201.324 435.073C208.057 442.587 215.032 451.039 221.179 457.095C227.325 463.15 232.644 466.81 237.477 470.584C242.309 474.357 246.656 478.245 250.429 483.718C254.201 489.192 257.4 496.249 261.845 501.06C266.288 505.871 271.979 508.434 279.814 511.157C287.648 513.881 297.627 516.765 305.858 518.399C314.088 520.035 320.569 520.42 327.305 520.226C334.041 520.032 341.033 519.258 347.655 518.72C354.276 518.183 360.527 517.883 369.447 518.5C378.369 519.116 389.96 520.652 401.682 523.285C413.405 525.917 425.258 529.648 436.391 533.526C447.524 537.405 457.936 541.431 468.866 545.575C479.797 549.719 491.248 553.98 502.481 558.003C513.713 562.026 524.729 565.811 534.222 568.699C543.715 571.587 551.686 573.579 557.732 575.339C563.778 577.1 567.899 578.628 572.02 580.156" stroke="black" stroke-miterlimit="22.9256"/>
<path d="M583.73 148.191C585.992 150.083 588.254 151.974 589.314 153.884C590.375 155.795 590.233 157.725 585.539 159.334C580.846 160.943 571.6 162.233 563.345 162.746C555.089 163.259 547.825 162.998 537.683 162.964C527.542 162.928 514.526 163.118 501.645 163.398C488.767 163.677 476.025 164.046 459.384 164.466C442.744 164.884 422.205 165.353 403.402 164.883C384.598 164.414 367.531 163.004 348.989 161.432C330.446 159.86 310.427 158.129 295.259 156.846C280.09 155.562 269.772 154.729 253.635 154.651C237.499 154.573 215.545 155.25 195.839 156.345C176.133 157.44 158.674 158.952 145.462 160.713C132.25 162.474 123.282 164.485 116.598 166.258C109.914 168.03 105.514 169.563 101.112 171.097" stroke="black" stroke-miterlimit="22.9256"/>
<path d="M542.64 134.592C544.21 136.572 545.779 138.553 546.713 140.567C547.647 142.581 547.945 144.627 545.306 145.805C542.668 146.983 537.092 147.29 527.982 147.374C518.871 147.458 506.223 147.318 489.897 147.457C473.571 147.596 453.568 148.012 435.66 147.862C417.752 147.71 401.94 146.992 384.449 146.602C366.958 146.213 347.788 146.151 327.008 144.997C306.228 143.844 283.84 141.595 268.098 139.453C252.357 137.311 243.264 135.276 230.541 134.92C217.817 134.564 201.463 135.891 187.678 136.907C173.893 137.921 162.679 138.626 152.798 139.139C142.916 139.652 134.37 139.972 127.941 139.385C121.512 138.798 117.201 137.303 112.89 135.808" stroke="black" stroke-miterlimit="22.9256"/>
<path d="M510.639 123.993C511.988 125.344 513.337 126.695 513.762 128.067C514.188 129.438 513.69 130.831 510.778 131.765C507.867 132.697 502.542 133.173 491.752 133.812C480.962 134.451 464.708 135.254 446.172 134.961C427.637 134.668 406.821 133.279 387.539 132.432C368.258 131.584 350.511 131.278 334.412 130.073C318.313 128.869 303.862 126.767 290.024 125.064C276.184 123.362 262.958 122.058 250.643 120.928C238.327 119.799 226.925 118.842 216.44 118.177C205.956 117.512 196.388 117.141 186.694 116.984C177 116.828 167.18 116.887 159.482 117.098C151.784 117.309 146.21 117.672 140.867 117.057C135.524 116.439 130.413 114.843 127.16 113.696C123.907 112.548 122.512 111.849 121.116 111.15" stroke="black" stroke-miterlimit="22.9256"/>
<path d="M478.934 113.466C479.911 115.415 480.887 117.366 481.014 118.967C481.141 120.567 480.42 121.821 475.872 122.237C471.325 122.651 462.951 122.23 452.829 122.121C442.707 122.012 430.836 122.215 419.595 121.827C408.353 121.438 397.741 120.458 387.366 119.498C376.991 118.537 366.85 117.599 352.899 116.722C338.946 115.845 321.182 115.031 306.963 113.62C292.743 112.207 282.069 110.198 270.007 108.868C257.945 107.537 244.496 106.884 231.661 105.908C218.825 104.93 206.604 103.628 196.163 102.311C185.721 100.991 177.06 99.6561 169.193 99.2268C161.327 98.7967 154.257 99.2738 148.072 98.7665C141.888 98.2583 136.59 96.7657 133.228 95.7146C129.866 94.6627 128.442 94.0515 127.016 93.4398" stroke="black" stroke-miterlimit="22.9256"/>
<path d="M434.115 98.5638C434.679 99.5267 435.242 100.49 434.707 101.87C434.172 103.25 432.538 105.048 424.116 105.568C415.696 106.088 400.486 105.329 381.325 104.22C362.164 103.108 339.049 101.646 318.262 99.7094C297.475 97.7718 279.014 95.3617 262.724 92.994C246.435 90.6263 232.316 88.3007 221.234 86.9377C210.152 85.5725 202.108 85.1678 193.041 84.3647C183.973 83.5614 173.883 82.3578 166.782 81.32C159.68 80.2817 155.567 79.4078 151.323 78.2396C147.079 77.0712 142.704 75.6083 139.811 74.5489C136.918 73.4884 135.508 72.8328 134.097 72.1758" stroke="black" stroke-miterlimit="22.9256"/>
<path d="M362.606 74.7176C363.097 76.2009 363.587 77.6852 362.652 78.9325C361.718 80.1788 359.359 81.1904 348.51 80.571C337.661 79.9506 318.322 77.7017 297.688 75.1946C277.053 72.6872 255.123 69.9218 238.983 67.7121C222.843 65.5025 212.494 63.8496 202.419 62.1525C192.345 60.4548 182.548 58.7133 173.467 57.5032C164.387 56.2924 156.024 55.613 150.78 54.5439C145.536 53.4749 143.412 52.0173 141.287 50.5584" stroke="black" stroke-miterlimit="22.9256"/>
<path d="M273.769 45.7998C275.661 47.38 277.553 48.96 275.295 49.6422C273.037 50.3254 266.629 50.1085 258.791 48.4516C250.955 46.7931 241.689 43.693 233.127 42.6036C224.564 41.515 216.705 42.4358 207.168 41.4666C197.631 40.4975 186.416 37.636 177.375 35.8603C168.334 34.0835 161.469 33.3909 157.037 32.3475C152.606 31.304 150.608 29.9086 148.612 28.5134" stroke="black" stroke-miterlimit="22.9256"/>
<path d="M206.164 22.4843C206.772 23.9637 207.38 25.4443 206.346 25.6348C205.311 25.826 202.635 24.7287 197.859 23.404C193.083 22.0783 186.209 20.5253 180.218 19.9543C174.226 19.3828 169.118 19.7912 165.539 19.1955C161.96 18.5999 159.908 16.9988 158.196 15.8107C156.486 14.6209 155.116 13.8441 153.745 13.0668" stroke="black" stroke-miterlimit="22.9256"/>
<path d="M569.608 590.795C564.334 589.112 559.061 587.43 551.649 585.466C544.237 583.502 534.687 581.257 524.961 578.702C515.236 576.147 505.335 573.282 496.038 570.341C486.741 567.401 478.05 564.384 470.811 561.213C463.572 558.042 457.787 554.716 451.018 551.589C444.25 548.464 436.498 545.538 426.966 542.685C417.434 539.832 406.123 537.053 396.773 534.985C387.424 532.919 380.039 531.563 370.45 531.421C360.862 531.279 349.071 532.35 338.339 532.716C327.607 533.083 317.935 532.746 308.819 531.647C299.703 530.55 291.143 528.69 284.39 525.737C277.638 522.783 272.694 518.737 267.858 515.143C263.021 511.549 258.293 508.409 254.037 505.587C249.779 502.765 245.994 500.262 242.861 497.043C239.729 493.824 237.249 489.889 233.404 485.351C229.559 480.813 224.349 475.674 219.047 470.364C213.744 465.055 208.35 459.577 201.557 452.49C194.764 445.402 186.572 436.705 178.23 428.235C169.887 419.766 161.393 411.525 153.394 403.254C145.394 394.982 137.891 386.682 128.587 376.471C119.282 366.26 108.177 354.138 99.2514 344.08C90.324 334.023 83.5759 326.032 78.0333 319.278C72.4907 312.524 68.154 307.009 65.3864 302.931C62.6179 298.852 61.4178 296.209 60.2178 293.567" stroke="black" stroke-miterlimit="22.9256"/>
<path d="M565.072 604.513C562.913 604.109 560.755 603.705 555.16 601.993C549.566 600.282 540.538 597.263 530.911 594.55C521.283 591.838 511.057 589.432 501.416 586.98C491.776 584.528 482.72 582.029 474.443 579.052C466.166 576.075 458.666 572.621 450.806 568.906C442.947 565.191 434.726 561.217 423.078 557.601C411.431 553.985 396.357 550.727 384.034 548.556C371.712 546.386 362.141 545.302 351.005 545.089C339.87 544.876 327.172 545.532 317.582 545.723C307.991 545.915 301.508 545.641 294.046 544.51C286.583 543.38 278.139 541.393 271.05 538.66C263.96 535.927 258.225 532.449 255.266 530.094C252.307 527.74 252.125 526.51 252.498 525.241C252.87 523.973 253.796 522.667 254.743 521.248C255.689 519.828 256.656 518.295 256.652 516.706C256.647 515.116 255.671 513.471 253.598 511.978C251.524 510.486 248.353 509.147 245.551 508.376C242.748 507.607 240.312 507.406 238.413 508.331C236.513 509.255 235.147 511.305 234.154 512.143C233.161 512.982 232.541 512.607 231.152 510.638C229.762 508.669 227.604 505.105 225.264 500.646C222.923 496.186 220.399 490.83 216.766 485.994C213.133 481.158 208.39 476.841 202.255 471.447C196.12 466.053 188.595 459.582 182.126 453.964C175.655 448.346 170.242 443.583 163.161 437.177C156.08 430.77 147.332 422.718 139.598 415.258C131.865 407.797 125.146 400.927 116.006 391.769C106.866 382.612 95.3038 371.17 86.4985 362.347C77.6937 353.525 71.6454 347.325 66.6218 341.968C61.5976 336.611 57.5993 332.099 55.0462 329.066C52.4922 326.035 51.3847 324.483 50.2759 322.932" stroke="black" stroke-miterlimit="22.9256"/>
<path d="M562.182 614.765C558.887 613.898 555.593 613.03 547.446 610.585C539.298 608.141 526.299 604.119 513.948 600.445C501.597 596.773 489.896 593.446 478.755 590.011C467.613 586.575 457.033 583.03 448.003 579.65C438.974 576.27 431.498 573.057 423.98 570.211C416.462 567.366 408.904 564.889 402.398 563.518C395.894 562.147 390.44 561.884 382.572 561.2C374.705 560.517 364.421 559.416 355.781 558.986C347.141 558.556 340.143 558.798 335.009 559.491C329.875 560.185 326.605 561.329 323.335 562.473" stroke="black" stroke-miterlimit="22.9256"/>
<path d="M558.511 625.834C556.822 625.496 555.134 625.158 551.203 623.996C547.272 622.834 541.099 620.847 534.584 619.012C528.07 617.177 521.216 615.492 515.007 614.164C508.798 612.836 503.237 611.863 494.979 609.54C486.722 607.217 475.769 603.544 466.01 600.271C456.25 596.998 447.683 594.125 440.591 591.09C433.5 588.055 427.884 584.86 420.379 582.883C412.875 580.906 403.484 580.15 396.786 579.663C390.088 579.176 386.085 578.961 383.258 579.134C380.432 579.306 378.781 579.868 377.13 580.429" stroke="black" stroke-miterlimit="22.9256"/>
<path d="M217.955 526.977C217.466 524.584 216.978 522.193 214.87 517.467C212.761 512.743 209.034 505.685 205.252 499.173C201.469 492.661 197.634 486.693 192.146 480.482C186.657 474.272 179.517 467.817 172.122 461.676C164.726 455.534 157.075 449.703 150.02 444.488C142.964 439.274 136.503 434.673 130.646 429.413C124.788 424.155 119.535 418.235 114.339 412.921C109.143 407.607 104.004 402.899 98.6447 398.04C93.286 393.183 87.707 388.177 81.7794 383.1C75.8513 378.022 69.5739 372.872 64.4448 368.3C59.3158 363.728 55.3332 359.734 52.0714 356.645C48.8077 353.557 46.2639 351.375 44.6683 350.038C43.073 348.703 42.4258 348.212 41.7788 347.723" stroke="black" stroke-miterlimit="22.9256"/>
<path d="M203.674 522.141C202.715 518.653 201.756 515.166 199.638 510.436C197.521 505.706 194.243 499.733 189.293 493.8C184.342 487.869 177.716 481.978 169.782 475.379C161.848 468.78 152.605 461.471 143.457 454.549C134.307 447.626 125.251 441.09 117.247 434.861C109.243 428.634 102.291 422.714 95.911 417.367C89.5307 412.022 83.7209 407.248 77.6937 402.068C71.6671 396.89 65.4233 391.305 60.0338 386.561C54.6427 381.816 50.1065 377.912 46.5404 374.887C42.9746 371.864 40.3791 369.72 38.6979 368.415C37.0165 367.112 36.2482 366.65 35.4805 366.187" stroke="black" stroke-miterlimit="22.9256"/>
<path d="M178.789 513.742C178.477 511.406 178.164 509.071 176.811 506.199C175.458 503.329 173.065 499.923 167.59 494.484C162.115 489.045 153.559 481.573 143.443 473.415C133.328 465.256 121.653 456.41 111.587 448.767C101.52 441.125 93.062 434.687 84.7541 428.467C76.4456 422.246 68.288 416.242 61.5465 410.905C54.8054 405.57 49.4814 400.9 44.9413 397.216C40.4012 393.532 36.6468 390.833 34.0537 389.189C31.4606 387.545 30.0293 386.957 28.5972 386.367" stroke="black" stroke-miterlimit="22.9256"/>
<path d="M129.055 496.965C128.257 494.466 127.458 491.967 124.639 488.16C121.82 484.353 116.979 479.237 111.579 474.237C106.177 469.238 100.214 464.354 93.5209 459.31C86.8275 454.266 79.4042 449.063 73.2557 444.948C67.1073 440.833 62.2325 437.805 57.3489 434.366C52.4644 430.927 47.571 427.075 43.2533 423.949C38.9343 420.823 35.1922 418.422 31.7959 416.711C28.398 415.001 25.3459 413.982 23.4604 413.168C21.5753 412.356 20.8551 411.751 20.1367 411.144" stroke="black" stroke-miterlimit="22.9256"/>
<path d="M63.0351 474.735C62.5577 471.27 62.08 467.803 59.1246 463.952C56.1686 460.1 50.7352 455.862 45.4254 452.252C40.1147 448.642 34.9278 445.662 30.183 442.916C25.4379 440.172 21.1336 437.664 18.309 435.989C15.484 434.315 14.1388 433.472 12.792 432.63" stroke="black" stroke-miterlimit="22.9256"/>
<path d="M15.9273 458.865C15.2522 456.546 14.5779 454.224 13.474 452.413C12.3692 450.602 10.8349 449.299 9.82423 448.501C8.81352 447.706 8.32513 447.416 7.83643 447.126" stroke="black" stroke-miterlimit="22.9256"/>
</mask>
<g mask="url(#mask0_957_2329)">
<path d="M243.317 249.285C399.622 197.771 413.001 223.499 485 223.499L485 505.499L422.808 491.702L311.233 474.745L257.525 436.429C202.386 372.405 164.449 275.278 243.317 249.285Z" fill="#B6DDD8"/>
</g>
</svg>
