<svg width="545" height="609" viewBox="0 0 545 609" fill="none" xmlns="http://www.w3.org/2000/svg">
<mask id="mask0_957_2018" style="mask-type:alpha" maskUnits="userSpaceOnUse" x="-403" y="3" width="948" height="605">
<path d="M-400.974 409.073C-379.482 407.579 -357.989 406.087 -327.254 401.17C-296.518 396.254 -256.538 387.915 -224.284 379.636C-192.031 371.357 -167.502 363.14 -140.678 355.868C-113.854 348.594 -84.7325 342.266 -63.9212 336.783C-43.112 331.303 -30.6115 326.669 -19.027 321.314C-7.44245 315.96 3.22813 309.888 14.3663 303.132C25.5046 296.374 37.1115 288.934 48.1338 282.228C59.155 275.522 69.5937 269.551 68.5993 265.322C67.6058 261.093 55.1771 258.604 42.6067 258.885C30.0363 259.166 17.3223 262.214 3.60149 262.222C-10.1203 262.229 -24.8488 259.192 -41.7874 258.246C-58.7271 257.299 -77.8802 258.444 -92.7678 259.891C-107.656 261.338 -118.283 263.087 -133.262 262.159C-148.242 261.231 -167.575 257.624 -187.039 255.47C-206.504 253.313 -226.097 252.606 -240.841 251.153C-255.586 249.699 -265.478 247.498 -280.223 246.177C-294.968 244.855 -314.565 244.412 -331.958 242.672C-349.351 240.93 -364.541 237.888 -375.377 236.195C-386.213 234.502 -392.696 234.155 -399.18 233.809" stroke="black" stroke-miterlimit="22.9256"/>
<path d="M-401.15 426.545C-392.816 426.366 -384.483 426.187 -372.238 425.314C-359.993 424.442 -343.834 422.875 -322.884 420.495C-301.932 418.115 -276.187 414.921 -253.147 411.242C-230.108 407.562 -209.773 403.395 -192.039 400.061C-174.307 396.729 -159.178 394.23 -143.869 391.204C-128.562 388.179 -113.076 384.628 -96.4812 379.834C-79.8866 375.041 -62.1833 369.004 -40.0825 361.425C-17.9838 353.847 8.51345 344.725 33.3524 334.27C58.1913 323.816 81.3709 312.026 98.0813 301.499C114.793 290.969 125.034 281.698 132.274 272.797C139.514 263.896 143.752 255.362 139.648 245.105C135.545 234.846 123.1 222.864 110.397 215.693C97.6921 208.522 84.7287 206.162 66.4648 205.204C48.1989 204.245 24.6314 204.69 4.36121 206.088C-15.9101 207.486 -32.882 209.835 -48.0772 213.125C-63.2734 216.415 -76.6918 220.644 -89.7767 223.327C-102.862 226.009 -115.614 227.145 -132.904 226.692C-150.193 226.237 -172.021 224.192 -195.118 222.3C-218.215 220.408 -242.584 218.67 -262.977 217.297C-283.372 215.923 -299.791 214.917 -315.804 213.616C-331.817 212.316 -347.424 210.724 -359.145 209.692C-370.867 208.662 -378.702 208.196 -384.681 207.886C-390.66 207.573 -394.784 207.419 -398.906 207.264" stroke="black" stroke-miterlimit="22.9256"/>
<path d="M-401.359 448.079C-387.2 447.7 -373.041 447.321 -347.787 445.714C-322.534 444.109 -286.187 441.275 -260.036 438.316C-233.886 435.358 -217.933 432.271 -203.547 429.238C-189.161 426.206 -176.345 423.224 -162.173 420.881C-148.001 418.539 -132.478 416.835 -109.576 412.592C-86.6746 408.352 -56.3974 401.574 -23.8424 391.883C8.71368 382.192 43.5465 369.588 67.4453 360.709C91.3452 351.827 104.312 346.673 118.802 339.025C133.292 331.378 149.306 321.239 162.027 311.926C174.748 302.615 184.173 294.131 190.151 284.427C196.131 274.725 198.665 263.804 196.413 252.774C194.163 241.743 187.129 230.603 176.228 219.888C165.327 209.174 150.558 198.886 133.34 191.345C116.124 183.804 96.4577 179.009 79.0163 176.476C61.5749 173.945 46.3584 173.672 29.1723 174.439C11.9851 175.205 -7.17264 177.008 -23.9184 179.757C-40.6642 182.504 -54.999 186.197 -67.0157 188.724C-79.0323 191.252 -88.7319 192.613 -100.783 193.427C-112.834 194.239 -127.238 194.503 -146.14 193.803C-165.041 193.103 -188.439 191.44 -206.537 190.549C-224.636 189.658 -237.432 189.542 -249.998 189.427C-262.564 189.312 -274.899 189.199 -286.595 188.565C-298.291 187.931 -309.349 186.775 -324.849 186.171C-340.35 185.568 -360.296 185.519 -373.342 185.604C-386.387 185.688 -392.532 185.908 -398.678 186.127" stroke="black" stroke-miterlimit="22.9256"/>
<path d="M-401.591 472.979C-370.078 472.435 -338.566 471.891 -314.607 470.045C-290.649 468.2 -274.245 465.053 -256.772 462.147C-239.299 459.241 -220.756 456.576 -202.974 453.936C-185.192 451.295 -168.171 448.683 -149.268 445.889C-130.366 443.093 -109.583 440.12 -88.269 436.095C-66.9564 432.071 -45.1143 426.997 -26.1315 422.588C-7.14977 418.18 8.97148 414.439 24.0677 410.702C39.1618 406.967 53.2309 403.238 72.8066 397.072C92.3834 390.905 117.468 382.3 138.989 372.344C160.511 362.389 178.469 351.081 192.347 341.298C206.225 331.515 216.022 323.254 224.314 314.166C232.607 305.079 239.396 295.164 242.219 283.939C245.043 272.713 243.904 260.179 238.044 247.011C232.182 233.844 221.603 220.044 207.581 207.128C193.562 194.211 176.103 182.175 158.873 173.146C141.643 164.117 124.641 158.094 106.058 154.332C87.4778 150.57 67.3167 149.068 44.3041 150.243C21.2906 151.417 -4.57543 155.269 -25.0251 159.506C-45.4758 163.74 -60.5101 168.359 -77.7689 170.581C-95.0287 172.8 -114.511 172.622 -134.939 171.92C-155.368 171.217 -176.743 169.991 -192.295 168.822C-207.848 167.653 -217.578 166.542 -237.085 165.92C-256.593 165.295 -285.875 165.16 -308.412 164.955C-330.95 164.749 -346.743 164.472 -359.165 164.327C-371.586 164.179 -380.637 164.162 -386.618 164.139C-392.601 164.115 -395.515 164.082 -398.429 164.051" stroke="black" stroke-miterlimit="22.9256"/>
<path d="M-401.913 506.091C-392.545 506.272 -383.177 506.452 -370.591 506.154C-358.006 505.855 -342.203 505.076 -317.732 502.202C-293.262 499.327 -260.124 494.358 -230.388 489.569C-200.652 484.782 -174.318 480.18 -145.523 474.428C-116.729 468.676 -85.473 461.775 -58.7097 455.922C-31.9463 450.07 -9.67467 445.263 14.0585 439.811C37.7916 434.359 62.9882 428.262 86.7988 422.282C110.609 416.304 133.035 410.446 152.755 404.231C172.476 398.017 189.489 391.45 205.772 383.161C222.057 374.872 237.606 364.863 251.905 353.321C266.204 341.779 279.251 328.702 287.313 318.229C295.375 307.756 298.454 299.888 299.811 291.074C301.17 282.259 300.809 272.499 297.977 261.928C295.146 251.355 289.844 239.969 282.744 229.622C275.645 219.274 266.748 209.966 254.914 200.3C243.081 190.635 228.31 180.612 212.612 171.174C196.916 161.737 180.289 152.885 162.903 144.883C145.519 136.878 127.377 129.726 110.886 124.501C94.3959 119.274 79.5565 115.976 68.1086 113.696C56.6617 111.417 48.6043 110.155 39.772 111.46C30.9387 112.762 21.3295 116.631 11.2013 120.625C1.07302 124.618 -9.57641 128.739 -20.3906 132.2C-31.2059 135.66 -42.188 138.462 -55.1841 141.06C-68.1812 143.657 -83.1922 146.05 -101.707 147.148C-120.223 148.245 -142.241 148.044 -160.276 147.207C-178.309 146.37 -192.358 144.895 -207.505 143.426C-222.65 141.956 -238.891 140.488 -256.237 140.067C-273.584 139.645 -292.037 140.267 -310.66 140.69C-329.284 141.113 -348.079 141.336 -362.696 141.692C-377.315 142.048 -387.755 142.535 -398.197 143.022" stroke="black" stroke-miterlimit="22.9256"/>
<path d="M-402.157 530.766C-397.139 530.691 -392.122 530.615 -380.567 530.956C-369.013 531.299 -350.92 532.057 -335.419 532.562C-319.919 533.066 -307.008 533.315 -293.038 531.465C-279.07 529.615 -264.043 525.666 -249.653 522.237C-235.266 518.81 -221.516 515.904 -207.831 513.66C-194.146 511.417 -180.528 509.839 -167.298 507.058C-154.069 504.279 -141.232 500.3 -127.295 496.07C-113.36 491.843 -98.3275 487.367 -78.1596 482.541C-57.9917 477.715 -32.6914 472.542 -6.58385 467.539C19.5226 462.537 46.4342 457.708 72.0303 451.877C97.6264 446.046 121.906 439.214 143.405 433.774C164.906 428.335 183.624 424.289 205.129 418.157C226.636 412.025 250.931 403.81 270.242 395.318C289.554 386.828 303.881 378.058 314.512 369.983C325.145 361.907 332.079 354.522 337.539 347.749C342.998 340.977 346.981 334.817 349.315 329.189C351.649 323.562 352.337 318.464 354.546 310.97C356.756 303.477 360.488 293.585 361.704 284.678C362.918 275.771 361.617 267.851 356.741 256.965C351.867 246.076 343.419 232.222 330.669 219.22C317.919 206.218 300.865 194.066 281.626 181.432C262.386 168.8 240.962 155.684 220.265 144.62C199.57 133.555 179.601 124.539 164.195 118.879C148.791 113.219 137.948 110.912 126.263 107.824C114.577 104.735 102.051 100.864 88.6459 98.2366C75.2428 95.6092 60.9598 94.2282 48.7425 93.8866C36.5252 93.5438 26.3735 94.243 14.5263 97.1495C2.67917 100.056 -10.8624 105.17 -22.9379 109.278C-35.0144 113.387 -45.6258 116.489 -56.8173 118.645C-68.0088 120.8 -79.7804 122.013 -94.7321 122.864C-109.684 123.716 -127.816 124.21 -146.157 123.977C-164.5 123.744 -183.052 122.783 -198.087 121.855C-213.124 120.926 -224.644 120.03 -239.278 119.37C-253.914 118.709 -271.663 118.283 -289.764 118.381C-307.866 118.48 -326.318 119.102 -341.427 119.624C-356.535 120.145 -368.298 120.564 -377.163 120.814C-386.03 121.062 -391.996 121.138 -397.965 121.216" stroke="black" stroke-miterlimit="22.9256"/>
<path d="M-402.403 557.775C-394.714 558.382 -387.024 558.988 -377.135 560.005C-367.245 561.022 -355.155 562.452 -341.448 563.697C-327.742 564.943 -312.419 566.005 -299.213 565.467C-286.008 564.929 -274.917 562.789 -260.987 558.962C-247.056 555.134 -230.282 549.618 -207.969 543.559C-185.656 537.502 -157.806 530.903 -134.976 525.068C-112.147 519.232 -94.3412 514.163 -74.743 508.607C-55.1448 503.052 -33.7554 497.01 -9.91018 491.752C13.9339 486.495 40.235 482.019 67.6691 476.8C95.1033 471.579 123.672 465.613 148.76 460.158C173.849 454.702 195.458 449.758 219.945 443.523C244.435 437.286 271.799 429.758 295.77 422.594C319.743 415.432 340.32 408.634 355.388 402.443C370.456 396.252 380.014 390.672 390.437 382.726C400.861 374.78 412.151 364.467 418.936 354.789C425.721 345.112 428.004 336.068 430.504 328.342C433.005 320.616 435.722 314.21 436.66 307.019C437.598 299.828 436.757 291.852 435.12 282.91C433.482 273.968 431.047 264.058 425.678 253.529C420.31 243 412.009 231.85 402.302 222.864C392.593 213.876 381.481 207.053 368.989 199.724C356.498 192.396 342.629 184.565 329.106 176.529C315.585 168.492 302.412 160.249 290.089 153.376C277.766 146.505 266.293 141.004 253.845 135.093C241.398 129.183 227.973 122.864 214.438 116.116C200.903 109.367 187.258 102.185 174.908 97.9211C162.558 93.6557 151.504 92.3053 141.836 90.7352C132.168 89.165 123.886 87.3751 117.573 84.5498C111.262 81.7234 106.92 77.8603 92.471 75.818C78.0244 73.7744 53.4709 73.5502 37.9614 73.8699C22.4519 74.1896 15.9875 75.0531 8.47107 77.2267C0.955662 79.3991 -7.61182 82.8791 -16.3444 85.7317C-25.0791 88.583 -33.9779 90.807 -44.1487 93.2844C-54.3195 95.7619 -65.7604 98.4953 -80.1635 100.474C-94.5655 102.452 -111.929 103.678 -130.32 104.005C-148.712 104.331 -168.132 103.759 -184.986 103.014C-201.839 102.266 -216.125 101.344 -230.3 100.755C-244.474 100.163 -258.536 99.9026 -273.697 99.9627C-288.858 100.022 -305.118 100.4 -322.07 100.906C-339.023 101.41 -356.669 102.039 -369.394 102.234C-382.121 102.431 -389.93 102.193 -397.737 101.955" stroke="black" stroke-miterlimit="22.9256"/>
<path d="M-402.584 576.027C-395.24 576.423 -387.896 576.822 -379.254 578.68C-370.613 580.539 -360.675 583.86 -347.524 585.99C-334.374 588.121 -318.013 589.061 -303.37 588.865C-288.727 588.668 -275.8 587.337 -263.09 584.684C-250.383 582.031 -237.889 578.059 -220.018 572.323C-202.148 566.587 -178.897 559.087 -152.938 551.646C-126.982 544.204 -98.3138 536.82 -75.1917 530.638C-52.0717 524.454 -34.4973 519.473 -11.4186 514.016C11.659 508.558 40.241 502.622 69.1235 496.607C98.007 490.592 127.194 484.494 156.021 478.759C184.849 473.024 213.317 467.652 242.836 461.478C272.355 455.306 302.926 448.335 329.203 440.909C355.481 433.486 377.466 425.61 399.521 416.516C421.577 407.424 443.703 397.117 460.307 385.619C476.911 374.122 487.993 361.437 496.215 352.151C504.439 342.867 509.803 336.984 513.602 331.82C517.402 326.657 519.638 322.212 522.961 318.481C526.284 314.749 530.698 311.732 532.697 307.852C534.697 303.972 534.284 299.232 529.696 291.285C525.108 283.337 516.346 272.183 506.15 260.094C495.956 248.005 484.331 234.98 466.422 221.831C448.515 208.682 424.324 195.41 400.935 182.739C377.546 170.068 354.958 157.997 337.064 149.133C319.169 140.268 305.969 134.611 292.653 129.101C279.335 123.589 265.901 118.222 251.613 111.829C237.326 105.437 222.183 98.0189 209.55 93.143C196.92 88.2672 186.797 85.9337 177.371 83.2773C167.945 80.6221 159.214 77.6452 150.561 72.5562C141.91 67.4673 133.336 60.27 123.981 56.228C114.627 52.186 104.491 51.3028 90.9459 51.0484C77.4031 50.7916 60.452 51.1635 46.852 52.3591C33.252 53.5522 23.0043 55.5689 12.6574 58.3753C2.3106 61.1805 -8.1354 64.7754 -18.1281 67.947C-28.1208 71.1175 -37.6613 73.8647 -51.8101 76.5371C-65.961 79.2107 -84.7222 81.8071 -104.248 83.1447C-123.774 84.4835 -144.065 84.5622 -163.315 84.1891C-182.564 83.8148 -200.771 82.9899 -219.843 82.2226C-238.916 81.4552 -258.853 80.7465 -278.332 80.2394C-297.81 79.731 -316.831 79.4254 -333.031 79.6069C-349.23 79.7883 -362.611 80.4579 -372.888 80.668C-383.165 80.8768 -390.338 80.6285 -397.511 80.3802" stroke="black" stroke-miterlimit="22.9256"/>
<path d="M-194.905 600.983C-199.373 599.595 -203.842 598.206 -206.459 596.336C-209.076 594.465 -209.842 592.113 -203.395 588.403C-196.95 584.695 -183.291 579.627 -170.77 575.862C-158.249 572.098 -146.867 569.634 -131.146 565.802C-115.425 561.971 -95.3663 556.772 -75.5645 551.52C-55.7649 546.268 -36.2242 540.962 -10.6706 534.106C14.882 527.252 46.4474 518.848 75.8026 512.226C105.159 505.603 132.306 500.764 161.82 495.552C191.334 490.342 223.216 484.757 247.359 480.492C271.502 476.228 287.906 473.279 312.932 467.207C337.958 461.137 371.606 451.945 401.561 443.115C431.516 434.284 457.778 425.815 477.338 418.671C496.897 411.526 509.757 405.706 519.202 401.042C528.647 396.378 534.678 392.872 540.711 389.364" stroke="black" stroke-miterlimit="22.9256"/>
<path d="M-124.415 601.625C-127.855 599.868 -131.294 598.109 -133.768 596.067C-136.241 594.026 -137.746 591.704 -134.263 589.293C-130.779 586.884 -122.304 584.388 -108.243 580.807C-94.1807 577.227 -74.5296 572.563 -49.3264 566.16C-24.1232 559.758 6.63113 551.621 34.4316 544.958C62.232 538.298 87.0766 533.113 114.354 526.896C141.631 520.677 171.339 513.428 204.097 506.864C236.855 500.299 272.661 494.424 298.123 490.961C323.584 487.498 338.699 486.448 358.578 482.01C378.458 477.574 403.098 469.747 423.92 463.272C444.743 456.798 461.745 451.674 476.78 447.289C491.816 442.903 504.882 439.258 515.135 437.501C525.387 435.743 532.823 435.877 540.26 436.01" stroke="black" stroke-miterlimit="22.9256"/>
<path d="M-69.5198 602.125C-72.297 601.031 -75.0743 599.939 -76.4307 598.468C-77.7892 596.998 -77.729 595.15 -73.6979 592.926C-69.6678 590.704 -61.6677 588.102 -45.2929 583.219C-28.918 578.336 -4.16832 571.17 24.6712 564.437C53.5096 557.704 86.4388 551.405 116.715 545.046C146.992 538.688 174.617 532.273 200.149 527.556C225.682 522.839 249.121 519.82 271.409 516.56C293.698 513.298 314.836 509.797 334.473 506.437C354.111 503.076 372.248 499.859 388.816 496.644C405.383 493.429 420.382 490.217 435.467 486.699C450.551 483.182 465.72 479.359 477.527 476.167C489.335 472.975 497.777 470.413 506.361 469.104C514.946 467.798 523.671 467.744 529.291 467.867C534.912 467.991 537.428 468.291 539.945 468.589" stroke="black" stroke-miterlimit="22.9256"/>
<path d="M-15.1285 602.621C-17.6344 600.673 -20.1392 598.725 -21.1517 596.867C-22.1643 595.011 -21.6866 593.244 -14.8594 591.011C-8.03332 588.78 5.14014 586.081 20.8606 582.343C36.5811 578.605 54.8508 573.827 72.4457 569.993C90.0416 566.16 106.964 563.271 123.511 560.449C140.057 557.628 156.23 554.87 178.269 550.583C200.309 546.295 228.217 540.476 250.942 536.722C273.668 532.969 291.212 531.281 310.558 528.255C329.904 525.231 351.051 520.868 371.412 517.125C391.775 513.385 411.352 510.264 428.184 507.842C445.015 505.423 459.1 503.702 471.494 501.207C483.887 498.713 494.586 495.443 504.416 493.684C514.246 491.926 523.206 491.678 528.945 491.644C534.684 491.612 537.2 491.795 539.719 491.978" stroke="black" stroke-miterlimit="22.9256"/>
<path d="M61.7561 603.322C60.3941 602.391 59.0311 601.461 59.1569 599.613C59.2817 597.767 60.8943 595.003 73.6602 591.164C86.4261 587.327 110.347 582.416 140.562 576.413C170.779 570.411 207.291 563.317 240.445 557.676C273.598 552.037 303.391 547.849 329.804 544.441C356.217 541.032 379.25 538.403 397.092 535.79C414.935 533.179 427.589 530.586 442.028 528.076C456.468 525.566 472.696 523.141 484.212 521.662C495.731 520.184 502.541 519.651 509.702 519.42C516.865 519.188 524.38 519.257 529.396 519.412C534.414 519.568 536.93 519.809 539.448 520.052" stroke="black" stroke-miterlimit="22.9256"/>
<path d="M184.434 604.443C182.92 602.866 181.405 601.287 182.216 599.445C183.027 597.604 186.161 595.499 203.263 592.088C220.366 588.679 251.433 583.962 284.636 579.057C317.84 574.152 353.179 569.059 379.277 565.518C405.374 561.977 422.23 559.988 438.682 558.156C455.133 556.325 471.179 554.652 485.846 552.62C500.511 550.59 513.797 548.201 522.455 547.468C531.113 546.736 535.142 547.658 539.173 548.582" stroke="black" stroke-miterlimit="22.9256"/>
<path d="M336.474 604.965C332.743 603.808 329.013 602.651 332.158 600.976C335.304 599.299 345.327 597.106 358.296 596.08C371.263 595.057 387.174 595.202 400.975 593.224C414.776 591.244 426.464 587.143 441.712 584.649C456.96 582.154 475.765 581.27 490.655 579.926C505.545 578.582 516.519 576.781 523.905 576.327C531.292 575.874 535.092 576.771 538.891 577.667" stroke="black" stroke-miterlimit="22.9256"/>
<path d="M452.814 606.897C451.12 605.369 449.426 603.84 450.928 603.218C452.432 602.594 457.131 602.876 465.193 602.626C473.255 602.377 484.68 601.596 494.237 599.984C503.797 598.372 511.491 595.932 517.331 595.272C523.171 594.612 527.16 595.732 530.412 596.491C533.663 597.253 536.177 597.653 538.694 598.054" stroke="black" stroke-miterlimit="22.9256"/>
<path d="M-397.574 66.0673C-388.555 66.0552 -379.537 66.0418 -367.065 65.547C-354.594 65.0522 -338.672 64.0747 -322.317 63.3984C-305.965 62.7232 -289.184 62.349 -273.298 62.2966C-257.412 62.2429 -242.425 62.5122 -229.606 63.5208C-216.787 64.5281 -206.14 66.2761 -194.072 67.4112C-182.005 68.544 -168.518 69.0639 -152.312 68.8167C-136.108 68.5695 -117.187 67.5551 -101.664 66.443C-86.1432 65.3297 -74.0228 64.121 -59.1117 60.625C-44.2007 57.1302 -26.4989 51.3494 -10.0776 46.8121C6.34272 42.2736 21.4827 38.9786 36.1505 36.8024C50.8172 34.6249 65.0118 33.5674 76.9663 34.5014C88.9208 35.4366 98.6341 38.3633 107.95 40.7928C117.266 43.2223 126.184 45.1521 134.208 46.8846C142.234 48.6158 149.368 50.1485 155.856 52.7826C162.345 55.4167 168.187 59.1534 176.45 63.0844C184.713 67.0166 195.395 71.1419 206.305 75.4355C217.217 79.7279 228.356 84.1861 242.481 90.0262C256.605 95.8664 273.713 103.087 290.939 109.981C308.167 116.872 325.51 123.434 342.104 130.222C358.699 137.01 374.54 144.022 394.142 152.619C413.745 161.217 437.108 171.401 456.046 179.961C474.986 188.519 489.502 195.452 501.521 201.372C513.54 207.293 523.061 212.199 529.422 215.995C535.785 219.792 538.989 222.479 542.193 225.166" stroke="black" stroke-miterlimit="22.9256"/>
<path d="M-397.41 47.8135C-393.864 47.4687 -390.318 47.125 -380.79 47.0241C-371.262 46.922 -355.755 47.0638 -339.476 46.6122C-323.197 46.1594 -306.149 45.1143 -289.982 44.3474C-273.816 43.5794 -258.531 43.0932 -244.207 43.4717C-229.884 43.8501 -216.518 45.0945 -202.464 46.5114C-188.411 47.9283 -173.667 49.5152 -153.802 49.3669C-133.938 49.2174 -108.954 47.3326 -88.7802 45.2061C-68.6077 43.0784 -53.2463 40.7101 -35.9077 36.7065C-18.5692 32.704 0.745202 27.0698 15.4879 23.1758C30.2295 19.2818 40.4005 17.1294 52.5241 15.6231C64.6467 14.1145 78.724 13.2521 91.0861 13.7946C103.448 14.3371 114.094 16.2845 119.872 17.9556C125.65 19.6256 126.559 21.0205 126.627 22.6734C126.697 24.3251 125.929 26.2324 125.187 28.2843C124.446 30.335 123.731 32.529 124.547 34.4193C125.364 36.3095 127.712 37.8947 131.68 38.8784C135.65 39.861 141.238 40.2432 145.967 40.0888C150.696 39.9331 154.567 39.2406 157.035 37.4143C159.504 35.5881 160.573 32.6257 161.683 31.2493C162.792 29.8716 163.943 30.0811 167.095 31.8932C170.249 33.7054 175.402 37.1213 181.295 41.534C187.189 45.9466 193.823 51.356 201.908 55.7232C209.992 60.0904 219.53 63.4142 231.77 67.4894C244.01 71.5634 258.95 76.3888 271.822 80.602C284.696 84.814 295.497 88.4139 309.717 93.331C323.937 98.2492 341.575 104.488 357.342 110.411C373.108 116.334 387.004 121.942 405.81 129.347C424.618 136.751 448.336 145.949 466.455 153.083C484.572 160.217 497.089 165.284 507.591 169.739C518.094 174.194 526.579 178.036 532.074 180.669C537.57 183.301 540.074 184.724 542.58 186.146" stroke="black" stroke-miterlimit="22.9256"/>
<path d="M178.34 6.86026C180.32 9.52491 182.299 12.1884 187.98 17.015C193.662 21.8404 203.045 28.8277 212.233 35.1447C221.422 41.4605 230.413 47.1083 242.091 52.4148C253.77 57.7189 268.131 62.6842 282.728 67.1792C297.326 71.6742 312.159 75.7013 325.756 79.2218C339.352 82.7411 351.714 85.7562 363.477 89.788C375.241 93.8175 386.405 98.8661 397.17 103.215C407.937 107.563 418.306 111.212 429.092 114.955C439.877 118.697 451.08 122.532 462.859 126.32C474.638 130.107 486.996 133.846 497.28 137.336C507.563 140.827 515.775 144.065 522.407 146.501C529.042 148.935 534.099 150.564 537.254 151.547C540.408 152.529 541.661 152.867 542.914 153.203" stroke="black" stroke-miterlimit="22.9256"/>
<path d="M202.969 7.10095C206.236 10.8899 209.504 14.6777 215.2 19.5052C220.897 24.3316 229.024 30.1965 239.723 35.3738C250.422 40.5499 263.694 45.0371 279.354 49.8697C295.016 54.7022 313.067 59.88 330.774 64.6331C348.483 69.3863 365.849 73.7147 381.428 78.0788C397.007 82.4418 410.799 86.8393 423.414 90.773C436.027 94.7043 447.465 98.1741 459.447 102.043C471.427 105.911 483.951 110.18 494.723 113.774C505.498 117.368 514.519 120.287 521.587 122.529C528.655 124.769 533.771 126.333 537.041 127.244C540.312 128.155 541.737 128.411 543.163 128.67" stroke="black" stroke-miterlimit="22.9256"/>
<path d="M245.818 7.51497C247.495 10.1778 249.171 12.8394 252.733 15.7436C256.294 18.6454 261.738 21.7873 272.993 26.1746C284.249 30.5619 301.315 36.1934 321.146 42.0476C340.976 47.9018 363.571 53.9788 383.062 59.2374C402.554 64.4948 418.939 68.9326 434.98 73.1685C451.023 77.4045 466.721 81.4398 479.886 85.2218C493.049 89.0025 503.678 92.531 512.59 95.1848C521.502 97.8386 528.694 99.62 533.549 100.588C538.404 101.555 540.921 101.709 543.44 101.864" stroke="black" stroke-miterlimit="22.9256"/>
<path d="M331.339 8.34446C333.851 11.0154 336.363 13.6852 342.67 17.1422C348.978 20.5992 359.083 24.8423 369.997 28.7328C380.911 32.6234 392.637 36.1613 405.574 39.6111C418.511 43.0608 432.66 46.421 444.28 48.9728C455.9 51.5245 464.992 53.2679 474.309 55.4981C483.626 57.7271 493.169 60.4453 501.449 62.5182C509.732 64.5911 516.751 66.021 522.882 66.7605C529.016 67.4989 534.262 67.5468 537.596 67.7954C540.929 68.0428 542.353 68.4885 543.775 68.9365" stroke="black" stroke-miterlimit="22.9256"/>
<path d="M444.769 9.43614C447.278 13.3811 449.788 17.3273 456.331 20.7857C462.875 24.2441 473.452 27.216 483.518 29.4877C493.585 31.7582 503.139 33.3273 511.888 34.7848C520.637 36.2412 528.583 37.5836 533.812 38.5001C539.041 39.4154 541.555 39.9048 544.07 40.3931" stroke="black" stroke-miterlimit="22.9256"/>
<path d="M525.711 10.2266C527.945 12.7346 530.179 15.2451 532.818 16.9837C535.458 18.7211 538.505 19.689 540.48 20.254C542.455 20.8165 543.361 20.976 544.267 21.1343" stroke="black" stroke-miterlimit="22.9256"/>
</mask>
<g mask="url(#mask0_957_2018)">
<path d="M307.5 335.499L0.000102432 336L4.89777e-05 111.5L61.4773 105.292L219.5 147.296C337.118 202.755 307.5 335.499 307.5 335.499Z" fill="#B6DDD8"/>
</g>
</svg>
